<?xml version="1.0" encoding="utf-8"?>
<!-- Generator: Adobe Illustrator 25.0.0, SVG Export Plug-In . SVG Version: 6.00 Build 0)  -->
<svg version="1.1" id="Layer_1" xmlns="http://www.w3.org/2000/svg" xmlns:xlink="http://www.w3.org/1999/xlink" x="0px" y="0px"
	 viewBox="0 0 201 75" style="enable-background:new 0 0 201 75;" xml:space="preserve">
<style type="text/css">
	.st0{fill:#FBC02D;}
	.st1{fill:#F4511E;}
	.st2{fill:#FFA000;}
	.st3{fill:#E64A19;}
	.st4{fill:#D84315;}
</style>
<desc>Created with Sketch.</desc>
<g>
	<g id="Group_1_" transform="translate(67.000000, 1.000000)">
		<g id="Vector_1_">
			<g>
				
					<g id="path0_fill-link_1_" transform="translate(34.026705, 37.235775) rotate(-74.247933) translate(-34.026705, -37.235775) translate(3.025380, 11.234649)">
					<path id="path0_fill_1_" class="st0" d="M30.8,47.2c13.2,0,23.9-9,23.9-20.1C54.7,16,44,7,30.8,7C17.6,7,6.9,16,6.9,27.1
						C6.9,38.2,17.6,47.2,30.8,47.2z"/>
				</g>
			</g>
			<g transform="translate(8.000000, 10.000000)">
				<g id="path1_fill-link_1_" transform="translate(0.725900, 0.235000)">
					<path id="path1_fill_1_" class="st1" d="M16.1,6.7C12.3,9.5,9.3,14,7.8,19.6c-3,11,0.7,22.8,8.3,28.6l8.8,3.5
						c8.6,0.8,17-5.8,19.9-16.5c1.1-4.1,1.3-8.5,0.6-12.4c-6.2-0.9-13.3-3.6-15.6-7.6C27,10.8,21.2,7.8,16.1,6.7z"/>
				</g>
			</g>
			<g transform="translate(8.000000, 18.000000)">
				<g id="path2_fill-link_1_" transform="translate(0.757000, 0.212000)">
					<path id="path2_fill_1_" class="st2" d="M7.7,11.8C4.3,24.6,9.8,38.3,20.1,42.7c10.3,4.2,21.3-2.6,24.8-15.4
						c0.7-2.8,1.1-5.8,1-8.6c-4.2-2.3-9.3-3.6-13.1-2.3c-5.7,1.8-18-5.8-22.2-11.5C9.4,6.9,8.5,9.2,7.7,11.8z"/>
				</g>
			</g>
			<g transform="translate(8.000000, 33.000000)">
				<g id="path3_fill-link_1_" transform="translate(0.801200, 0.335000)">
					<path id="path3_fill_1_" class="st0" d="M6.9,1.4c-1.1,11.3,4.2,22.3,13.2,26c8.4,3.6,17.5-0.5,22.3-9.2
						c-6.6-0.6-14.8-3.5-17.5-7.7C21.2,4.7,12.5,1.5,6.9,1.4z"/>
				</g>
			</g>
			<g transform="translate(9.000000, 46.000000)">
				<g id="path4_fill-link_1_" transform="translate(0.793000, 0.131000)">
					<path id="path4_fill_1_" class="st3" d="M19,14.6c7.1,2.9,14.5,0.6,19.7-5.3c-4-1.9-8.5-2.9-12-1.8c-4.8,1.5-14.8-4-20.2-9.1
						C8.2,5.8,12.8,12.1,19,14.6z"/>
				</g>
			</g>
		</g>
	</g>
	<g>
		<path class="st4" d="M5.1,61.2c-0.4,0-1.4-0.1-3-0.2c-0.3,0-0.6-0.2-1-0.6c-0.4-0.4-0.6-0.7-0.7-1C0.1,58.3,0,57.7,0,57.6
			c0-5.6,0-8.8,0.1-9.4c0.1-0.7,1.2-3.5,3.1-8.2c1.4-3.3,5.3-12.8,12-28.6c0.2-0.5,0.6-1.4,1.1-2.5c0.5-1.1,0.9-1.9,1.1-2.5
			c0.8-2,2.4-3,4.8-3c0.9,0,2.2,0,3.9,0c1.8,0,3.1-0.1,4-0.1c1.3,0,2.7,0.1,4.3,0.1c0.4,0,0.8,0.1,1.1,0.3C36,4,36.2,4.3,36.4,4.6
			c0.5,1.3,0.5,2.4,0,3.6c-0.4,0.8-1,1.3-1.7,1.6c-0.8,0.3-1.1,0.7-0.9,1.2c0.5,1.3,0.5,2.5,0,3.5c-0.3,0.8-0.8,1.9-1.3,3.4
			c-0.6,1.6-1.1,2.7-1.4,3.4c-0.8,1.9-2,4.7-3.5,8.4c-1.6,3.7-2.8,6.5-3.5,8.4c-0.2,0.6-0.4,1.1-0.5,1.7c-0.2,0.9-0.1,1.7,0.3,2.3
			c0,0,0.4,0.5,1.1,1.5c0.4,0.5,0.9,0.8,1.5,0.9c0.5,0.1,1.1,0.2,1.8,0.4c1,0.4,1.7,0.4,2.3,0c0.3-0.2,2.2-1,5.6-2.4
			c1.2-0.5,1.9-1.4,2-2.8c0-0.5,0-1.1,0-1.8c0-1,0-1.6,0-1.8c0-0.5,0.1-1.1,0.2-1.8c0.3-1.5,1.1-2.3,2.5-2.4
			c0.6-0.1,0.8-0.1,0.6-0.1c5.4,0,9.5,0,12.2,0c0.3,0,0.7,0.1,1.2,0.3c0.8,0.3,1.3,0.9,1.5,1.8c0.1,0.5,0.2,1.5,0.3,3
			c0.1,2.1,0.2,3.3,0.2,3.6c0.3,1.2,1,1.9,2,2.1c0.9,0.2,1.5,0.3,1.8,0.3c0.3,0,0.8,0,1.5,0c0.7,0,1.2,0.1,1.5,0.1
			c0.3,0,0.9,0.1,1.8,0.4c1.2,0.3,1.9,1,2,2.1c0,0,0,0.1,0,0.3c0,0.1,0.1,0.2,0.1,0.3c0.2,4.7,0.1,8.7-0.1,12.1c0-0.1,0,0.1-0.1,0.6
			c0,0.4-0.3,0.8-0.8,1.2C65.8,60.7,65.4,61,65,61c-0.6,0.1-1.6,0.2-3,0.3c-2.4,0.2-3.4,0.3-3,0.2c-0.5,0.1-1,0.4-1.5,0.9
			c-0.5,0.5-0.8,1.1-0.8,1.6c0,0.5-0.1,1.2-0.1,2.1c-0.1,1.1-0.1,1.8-0.1,2.1c0,0.3-0.1,0.9-0.2,1.8c-0.1,0.4-0.3,0.8-0.8,1.2
			c-0.5,0.5-0.9,0.7-1.3,0.7c-4.7,0.4-9.3,0.4-14,0c-0.7,0-1.1-0.3-1.4-0.9c-0.3-0.6-0.3-1.2,0-1.7c0.1-0.2,0.3-0.4,0.5-0.7
			c0.2-0.3,0.4-0.6,0.5-0.8c0.1-0.2,0.2-0.4,0.1-0.6c-0.3-0.9-1-2.4-2.1-4.4c-0.4-0.7-1.1-1.2-1.9-1.3c-1.3-0.2-2.3-0.3-3-0.3
			c-1.4,0-6.1,0-14,0C10.9,61.2,6.4,61.2,5.1,61.2z M24.9,59.5c0.1,0.4,0.3,0.6,0.8,0.5c0.2-0.1,0.3-0.2,0.3-0.3
			c-0.1-0.4-0.4-0.6-0.8-0.5C25,59.3,24.9,59.4,24.9,59.5z M47.5,47.6c0.1,0.5,0.4,0.6,0.8,0.3c0.2-0.1,0.3-0.2,0.3-0.4
			c0.1-0.5-0.1-0.7-0.5-0.7C47.7,46.9,47.5,47.2,47.5,47.6z M54.3,49.2c0-0.1,0-0.2,0-0.2c-0.2,0.1-0.4,0.1-0.4,0.1
			c0,0,0,0.2,0.1,0.4c0,0,0.1,0,0.2-0.1c0.1,0,0.1,0,0.2,0C54.4,49.4,54.4,49.3,54.3,49.2z M65.2,59.1c0.2,0,0.3-0.2,0.3-0.4
			c0.1-0.5-0.1-0.8-0.6-0.7c0,0-0.1,0.2-0.3,0.4C64.5,59,64.7,59.2,65.2,59.1z"/>
		<path class="st4" d="M115.6,72.2c-1.1,0-3,0-5.5,0c-3,0-8.9,0-17.7,0c-1.8,0-2.6,0-2.4,0c-2.6,0.1-5.6-0.5-8.9-1.8
			c-3.2-1.2-5.9-3.3-8.1-6.2c-0.5-0.6-1.3-1.8-2.3-3.6c-0.3-0.5-0.5-1.1-0.7-1.7c-0.9-2.9-1.3-5.4-1.3-7.7c0-0.8,0-10.1,0-28
			c0-1.9,0.3-3.9,0.8-6c0.5-1.8,1.2-3.4,2.2-4.9c2.3-3.5,5.2-6,8.5-7.6c1.4-0.7,2.6-1,3.5-1c1,0,1.8-0.2,2.4-0.4
			c2.1-0.7,4.5-0.9,7.2-0.6c2.1,0.3,4.3,0.4,6.7,0.5c0.5,0,1.4,0.1,2.7,0.2c1.1,0.1,2,0.1,2.7,0.1c2.2-0.1,4.8-0.3,7.9-0.6
			c1.9-0.2,3.7-0.1,5.4,0.3c0.3,0.1,0.5,0.1,0.6,0.1c3.3,0.4,6.5,2,9.7,4.7c2.3,1.9,4.1,4.6,5.4,8c0.1,0.3,0.2,0.5,0.2,0.6
			c0.9,5.8,1.3,9.2,1.3,10.2c0,1.3,0,4.7,0,10.3c0,1.6-0.3,3-0.9,4.1c-0.5,0.9-0.5,1.9,0,2.9c0.3,0.5,0.4,0.9,0.4,1.1
			c0.5,1.4,0.5,2.6,0.2,3.6c-0.6,1.7-0.8,3.3-0.6,4.7c0.1,0.5,0,1.3-0.1,2.4c-0.1,1.2-0.7,1.9-1.7,2.2c-0.1,0-0.6,0.3-1.6,0.8l0-0.1
			c0.7,0.4,1.1,0.8,1.2,1.2c0.2,0.4,0.2,0.8,0.1,1.1c-0.1,0.6-0.3,1.1-0.6,1.6c-0.8,1.3-1.9,2.5-3.1,3.6c-0.6,0.6-1.3,1.1-1.9,1.4
			c-0.3,0.2-1.7,0.9-4.3,2.1c-0.2-0.2-0.4-0.3-0.4-0.3c0,0-0.2,0-0.4-0.1c0.1,0.1,0.2,0.1,0.4,0.2c0.2,0.1,0.4,0.2,0.5,0.2
			C120.8,71.5,118.3,72.1,115.6,72.2z M73.2,21c0-0.5-0.3-0.7-0.7-0.8c-0.9-0.1-1.5,0.2-2,0.9c-0.1,0.2-0.1,0.3,0,0.5
			c0.2,0.4,0.6,0.5,1.2,0.5c0.6,0,1.1-0.2,1.4-0.6C73.2,21.2,73.2,21,73.2,21z M77.5,20.1l0.3,0.4L78,20L77.5,20.1z M77.9,31.4
			l0.2,0.3l0.2-0.4L77.9,31.4z M78.1,9.5l0.3-0.2L78,9L78.1,9.5z M79.3,45.2c0.1,0.1,0.3,0.1,0.4-0.1l-0.1-0.4
			C79,44.7,79,44.8,79.3,45.2z M80.8,22.8l-0.3-0.4l-0.1,0.4H80.8z M87.3,61.8c-0.4-0.2-0.8-0.1-1.1,0.1c-0.4,0.3-0.4,0.8,0.1,1.6
			c0.3,0.6,0.6,1.1,0.9,1.5c0.4,0.5,0.8,0.7,1.2,0.7c0.4,0,0.8-0.3,1-0.8c0.1-0.2,0.2-0.5,0.4-1.1c0.2-0.5,0.2-0.9,0.1-1.1
			c-0.1-0.2-0.5-0.4-1.1-0.5l-0.5,0C87.7,62,87.4,61.9,87.3,61.8z M117.7,54.1c0.4,0.5,0.6,0.4,0.6,0c0-0.1-0.1-0.3-0.3-0.4
			c-0.1,0-0.4-0.2-1.1-0.4c0.3-1.2,0.5-2.8,0.5-4.8c0-9.2,0-16,0-20.6c0-0.7-0.1-1.7-0.2-3c-0.1-0.8-0.5-1.5-1.1-2.1
			c-0.6-0.7-1.3-1-2.1-1.1c-1.2-0.2-2-0.2-2.4-0.2c-5.3,0-11.8,0-19.5,0c-0.6,0-1.2,0-1.8,0.1c-1.6,0.3-2.6,1.2-3.1,2.6
			c-0.5,1.2-0.7,2.6-0.7,4.2c0,8,0,14,0,18.2c0,1,0.1,2,0.3,3c0.1,0.8,0.4,1.5,0.7,2.3c0.4,1,1.1,1.6,2.2,1.9c1,0.3,2.2,0.4,3.6,0.4
			c5.2-0.1,9-0.2,11.6-0.2c0.9,0,3.6,0,7.9,0c1.6,0,3-0.2,4.2-0.5C117.5,53.7,117.7,54,117.7,54.1z M92.7,12.2c0,0,0.1-0.1,0.1-0.1
			c0.1-0.1,0.1-0.2,0-0.3l-0.4-0.2C92.1,11.9,92.1,12.2,92.7,12.2z M93.8,62.7c-0.1-0.1-0.3-0.1-0.5,0.1C93.1,63,93,63.1,93,63.3
			c0,0.6,0.2,0.7,0.6,0.4c0,0,0.1-0.2,0.3-0.5L93.8,62.7z M100.1,60.7c-0.2-0.1-0.3,0-0.5,0.1c-0.5,0.5-0.6,1-0.3,1.5
			c0.1,0.2,0.2,0.2,0.4,0.1c0.5-0.2,0.7-0.7,0.7-1.3L100.1,60.7z M108.6,15.5c-0.1,0.2,0,0.4,0.1,0.4c0.4,0.1,0.7,0,0.8-0.4
			c0,0,0-0.2-0.1-0.5C109,15,108.7,15.1,108.6,15.5z M115.5,62.8c0,0,0,0.1,0,0.2c0.1,0.1,0.1,0.2,0.1,0.2c0,0,0.2,0,0.5-0.1
			C116.1,62.5,115.9,62.4,115.5,62.8z M120.8,14.2c0.2,0,0.2-0.1,0.2-0.4c0-0.5-0.2-0.7-0.6-0.6l-0.3,0.3
			C120.2,14,120.4,14.2,120.8,14.2z M120.4,47.2c0,0.2,0.1,0.3,0.4,0.2c0,0,0.1-0.2,0.2-0.4C120.6,46.7,120.4,46.7,120.4,47.2z
			 M121.9,52c0.2,0.2,0.4,0.3,0.4,0.3c0.2,0.1,0.4,0.2,0.4,0.1c0-0.1-0.1-0.1-0.3-0.2C122.3,52.2,122.2,52.1,121.9,52L121.9,52z
			 M123,23c0.3,0.4,0.7,0.4,1,0c0.1-0.2,0.2-0.3,0.1-0.5c0-0.2-0.1-0.3-0.3-0.3c-0.4-0.1-0.7,0-0.9,0.4L123,23z M125.8,61.5
			c-0.2,0-0.3,0.1-0.3,0.3c-0.1,0.4,0.1,0.7,0.5,0.8l0.3-0.3C126.4,61.9,126.2,61.6,125.8,61.5z M127.2,24.7
			c0.1,0.5,0.4,0.6,0.8,0.3c0.2-0.1,0.3-0.2,0.3-0.4c0.1-0.5-0.1-0.7-0.6-0.7C127.4,23.9,127.2,24.2,127.2,24.7z M129.1,46
			c-0.4-0.2-0.7-0.1-1.1,0.1c-0.4,0.3-0.5,0.6-0.4,1c0,0.2,0.1,0.4,0.2,0.5c0.3,0.5,0.8,0.8,1.4,1c0.5,0.1,0.8,0,1.1-0.3l0.1-0.5
			C130.3,47,129.9,46.4,129.1,46z M133.6,28.6l0.2,0.4l0.2-0.4L133.6,28.6z"/>
		<path class="st4" d="M167.9,56c0.6-0.7,1.3-1,2-1.1c0.7-0.1,2.1-0.2,4.2-0.3c3.6-0.3,5.2-0.4,4.8-0.3c1.5-0.2,2.7-0.8,3.7-1.9
			l0.4-0.4l0,0.1v-4.8l0,0c-1.4-1-3.1-1.5-5.2-1.5c-9.6,0-16.1,0-19.5,0c-2,0-4.5,0-7.3-0.1c-0.1,0-0.7-0.1-1.8-0.2
			c-0.4,0-0.8-0.3-1.3-0.7c-0.5-0.5-0.8-0.9-0.8-1.2c-0.1-0.5-0.1-0.7-0.1-0.6c-0.2-3.9-0.2-7.4,0.1-10.3c0.1-0.6,0.4-1.1,0.9-1.5
			c0.6-0.4,1.1-0.4,1.7-0.2c0.3,0.1,0.6,0.2,1.1,0.4c-0.1,0,0.1,0,0.5,0.2c0.7,0.3,1.3,0.3,1.8,0c1.7-0.8,3.9-1.2,6.5-1.2
			c3.1,0,5.5-0.2,7.3-0.4c2.2-0.4,4.4-0.2,6.6,0.5c0.9,0.3,1.9,0.2,3,0c1.1-0.3,2.3-0.6,3.5-0.9c1.2-0.3,2-1.2,2.3-2.6
			c0.2-0.8,0.2-1.6,0-2.4c-0.3-1.7-1.3-2.6-2.8-2.8c-1.2-0.1-2.4-0.2-3.6-0.2c-0.5,0-1.8,0-3.7-0.1c-1.5,0-2.7,0-3.6-0.1
			c-1.9-0.1-3.3-1-4.4-2.9c-0.3-0.6-0.2-1.2,0.2-1.7c0.3-0.3,0.6-0.5,1-0.5l2.3,0.5c0.3,0.1,0.6,0,0.8-0.3c0.3-0.2,0.4-0.5,0.3-0.8
			c-0.1-1-0.6-1.9-1.4-2.7c-0.2-0.2-0.6-0.4-1-0.6c-1.1-0.4-2.5-0.6-4.2-0.7c-0.7,0-1.3,0.1-1.8,0.2c-1.1,0.4-2.2,0.2-3.5-0.3
			c-0.3-0.1-0.7-0.1-1.2-0.1c-0.4,0-0.8,0.3-1,0.7c-0.2,0.4-0.2,0.8,0.1,1.1c0.4,0.5,0.9,0.9,1.5,1c0.5,0.1,1.2,0.3,2.1,0.5
			c1,0.2,1.7,0.4,2.1,0.4c0.4,0.1,0.7,0.3,0.9,0.7c0.6,1.3,0.8,2.7,0.6,4.2c-0.1,0.7-0.5,1-1.3,1.1c-2.2,0.2-5,0.2-8.5,0
			c-0.7-0.1-1.5-0.3-2.3-0.7c-0.8-0.4-1.5-0.4-2.2,0.2c-0.3,0.3-0.7,0.5-1.1,0.5c-3.2,0.2-6.1,0.2-8.5,0c-0.1,0-0.2,0-0.3-0.1
			c-0.1,0-0.2,0-0.2,0c-0.9-0.2-1.5-0.8-1.6-1.7C136,18.4,136,18,136,18c0-4.2,0-8,0-11.5c0,0,0.1-0.4,0.2-1.2
			c0.2-1,0.8-1.5,1.7-1.6c1.6-0.2,2.6-0.3,3-0.3h9.1c2.4,0,4.1,0.6,5,1.7c1.1,0.7,2.3,0.7,3.4,0c0.2-0.1,0.4-0.2,0.5-0.3
			c0.8-0.9,1.9-1.3,3.3-1.3c0.6,0,7.1,0,19.5,0c2.5,0,5.1,0.6,7.7,1.7c3,1.3,5.4,3.3,7.4,6.1c1.7,2.3,2.8,4.9,3.6,7.7
			c0.2,0.8,0.3,1.6,0.3,2.4c0.1,1.6,0.1,3.2,0.1,4.8c0,4,0,11.5,0,22.5c0,0.3,0,0.8,0,1.5c0,0.6,0,1.1,0,1.5c0,2.3-0.5,5-1.6,8.3
			c-0.5,1.3-1.2,2.5-2.1,3.7c-0.8,0.9-1.7,2-2.9,3.2c-2.4,2.5-5.6,4.2-9.5,5c-0.6,0.1-1.2,0.2-1.8,0.2c-1.7,0.1-3.1,0.1-4.2,0.1
			c-6.3,0-12,0-17.1,0c-0.5,0-1.5-0.1-3-0.2c-1.2-0.1-1.9-0.8-2.1-1.9c0-0.1-0.1-0.9-0.3-2.4c1.4-0.6,2.6-1,3.7-1.2
			c0.8,1.1,1.2,1.8,1.3,1.9c0.1,0.1,0.3,0.2,0.5,0.3c0.4,0.1,0.8,0,1-0.3c0.4-0.5,0.5-1,0.2-1.6c-0.3-0.6-0.7-0.9-1.4-0.7
			c-0.1,0-0.7,0.2-1.7,0.5c0.4-1.8,0.6-2.8,0.6-2.9c0.1-0.7-0.1-1.2-0.7-1.5c-0.1,0-0.4-0.2-1.1-0.5c-0.4-0.7-0.6-1-0.6-1
			c-1-1.3-2.2-1.5-3.8-0.8c-0.2,0.1-0.3,0.2-0.3,0.4c-0.1,0.5,0.1,0.8,0.5,0.9c0.5,0.2,1.9,0.3,4.2,0.4c-0.2,1.4-0.7,2.6-1.3,3.7
			c-0.1,0.1-0.5,0.9-1.2,2.5c-2,0.2-3.4,0.1-4.2-0.3c-0.4-0.2-0.9,0-1.4,0.7c-0.6,0.9-1.2,1.3-1.8,1.4c-1.1,0.2-1.9,0.7-2.3,1.7
			c-0.2,0.4-0.5,0.6-0.9,0.7c-3,0.3-5.4,0.2-7.3,0c-0.4,0-0.8-0.3-1.3-0.7c-0.5-0.4-0.7-0.8-0.8-1.2c-0.1-0.8-0.2-1.2-0.2-1.2
			c0-4.3,0-8.1,0-11.5c0-0.3,0.1-0.7,0.3-1.1c0.3-0.6,0.7-1.1,1.2-1.3c0.8-0.3,1.8-0.4,3-0.4c4.7,0,10.2,0,16.5,0
			c1.8,0,3.3,0.3,4.8,0.9c0.6,0.3,1.1,0.2,1.7-0.1c0.8-0.4,1.5-0.2,2.1,0.5c0.3,0.4,0.8,0.6,1.6,0.8c0,1.1,0,2,0,2.5l-0.1-0.1
			c0.6-0.3,1-0.4,1-0.4c0.3-0.2,0.4-0.4,0.4-0.7c0-0.3-0.1-0.5-0.4-0.7c0,0-0.4-0.2-1-0.5C167.6,56.3,167.9,56,167.9,56z
			 M137.6,66.1l0,0.5l0.4-0.2L137.6,66.1z M138.8,13.5l0.4-0.2l-0.4-0.2L138.8,13.5z M145.3,16.8c-0.3,0-0.8,0-1.4,0
			c-0.1-0.3-0.1-0.5-0.1-0.5l-0.2-0.3c0,0.3,0.1,0.5,0.4,0.8C144.4,16.9,144.8,16.9,145.3,16.8L145.3,16.8z M152.2,18.8
			c0.5,0.8,1.2,1,2.1,0.7c0.6-0.2,1.1-0.6,1.5-1c0.1-0.2,0.2-0.3,0.2-0.5c0.1-0.5-0.1-0.7-0.6-0.8c-0.3,0-1.7-0.2-4.2-0.5
			c-0.2-1.4-0.6-2.5-1.1-3.4c-0.1-0.2-0.3-0.5-0.6-0.9c-0.6-0.9-1.5-1-2.7-0.4c-0.3,0.1-0.5,0.4-0.6,0.7c-0.1,0.3,0,0.6,0.2,0.7
			c2.3,1.8,4,2.9,5,3.2C151.6,17.6,151.8,18.4,152.2,18.8z M146.8,56.8l-0.4,0.2l0.3,0.2L146.8,56.8z M152.2,71.9l-0.5,0.1l0.1-0.3
			L152.2,71.9z M157.1,33.2c-0.4-0.1-0.7,0-0.8,0.4c-0.1,0.3,0,0.4,0.1,0.5c0.4,0.1,0.7,0,0.9-0.4C157.2,33.4,157.2,33.2,157.1,33.2
			z M166,33.8c-0.9,0.6-1.4,0.9-1.4,1c-0.1,0.1-0.4,0.4-0.7,0.9c-0.4,0.5-0.3,1.1,0.2,1.6c0.6,0.6,1.2,0.7,1.6,0.4
			c0.3-0.2,0.5-0.6,0.4-1C166.1,36.4,166,35.4,166,33.8L166,33.8z M165,8.2l0.1-0.4l-0.4,0.1L165,8.2z M166.1,62.9
			c-0.1,0.2-0.1,0.3,0,0.5c0.3,0.4,0.6,0.4,0.9,0c0,0,0-0.2,0-0.5C166.7,62.6,166.4,62.6,166.1,62.9z M170.9,33.8
			c-0.7,0.2-1.2,0.5-1.4,0.8c-0.1,0.2-0.1,0.3,0,0.5c0.2,0.4,0.5,0.5,0.9,0.4c0.2,0,0.3-0.1,0.4-0.3C171,35,171,34.5,170.9,33.8
			L170.9,33.8z M173.3,17.8l0.3,0.2c0,0,0.1-0.1,0.1-0.2c0-0.1,0.1-0.1,0.1-0.1C173.4,17.3,173.3,17.3,173.3,17.8z M174.9,14.6
			c0,0,0.2,0,0.4,0.1c-0.7-0.3-1-0.4-0.9-0.4c-0.1-0.8-0.1-1.2-0.1-1.2c-0.1-0.7-0.3-0.8-0.6-0.4c-0.1,0.1,0,0.3,0.1,0.5
			c0,0.1,0.2,0.4,0.6,1C174.8,14.4,174.9,14.6,174.9,14.6z M178.6,66.9c0,0,0.2,0,0.4,0c-0.4-0.1-0.7-0.2-0.9-0.3
			c0.5-0.9,0.8-1.4,0.9-1.5c0-0.1,0.1-0.2,0.2-0.5c0.2-0.5,0.1-0.8-0.3-1c-0.2-0.1-0.4,0-0.6,0c-1.6,0.6-1.8,1.4-0.6,2.5
			c0,0,0.2,0.1,0.5,0.3C178.4,66.7,178.5,66.9,178.6,66.9z M179.1,16.6c-0.2,0.1-0.1,0.3,0.1,0.4l0.4-0.1
			C179.7,16.3,179.5,16.2,179.1,16.6z M187.8,31c-0.2,0-0.2,0.1-0.1,0.4l0.4,0.2C188.4,31.2,188.3,31.1,187.8,31z M193.7,16.3
			c-0.3-0.1-0.6,0-0.9,0.3c-0.4,0.4-0.4,0.7-0.2,1c0.2,0.3,0.5,0.4,1,0.2c0.4-0.1,0.6-0.4,0.7-0.7C194.3,16.7,194.2,16.4,193.7,16.3
			z"/>
	</g>
</g>
</svg>
