<?xml version="1.0" encoding="utf-8"?>
<!-- Generator: Adobe Illustrator 25.0.0, SVG Export Plug-In . SVG Version: 6.00 Build 0)  -->
<svg version="1.1" id="Layer_1" xmlns="http://www.w3.org/2000/svg" xmlns:xlink="http://www.w3.org/1999/xlink" x="0px" y="0px"
	 viewBox="0 0 201 75" style="enable-background:new 0 0 201 75;" xml:space="preserve">
<style type="text/css">
	.st0{fill:#FFFFFF;}
	.st1{opacity:0.5;fill:#909FA8;}
	.st2{fill:#000271;}
	.st3{fill:#04A1FC;}
	.st4{fill:#001564;}
	.st5{fill:#1568C9;}
	.st6{fill:#A4CEF2;}
	.st7{fill:#EBE9F2;}
	.st8{fill:#464796;}
	.st9{fill:#31357C;}
	.st10{fill:#9492C2;}
	.st11{opacity:0.3;}
	.st12{fill:#000072;}
	.st13{fill:#0E236E;}
	.st14{fill:#022E9B;}
	.st15{fill:#3B90F5;}
	.st16{opacity:0.6;}
	.st17{clip-path:url(#SVGID_2_);fill:#0560BD;}
	.st18{clip-path:url(#SVGID_2_);fill:#055FBC;}
	.st19{clip-path:url(#SVGID_2_);fill:#065EBC;}
	.st20{clip-path:url(#SVGID_2_);fill:#065DBB;}
	.st21{clip-path:url(#SVGID_2_);fill:#065CBA;}
	.st22{clip-path:url(#SVGID_2_);fill:#065BB9;}
	.st23{clip-path:url(#SVGID_2_);fill:#065AB9;}
	.st24{clip-path:url(#SVGID_2_);fill:#0659B8;}
	.st25{clip-path:url(#SVGID_2_);fill:#0758B7;}
	.st26{clip-path:url(#SVGID_2_);fill:#0757B7;}
	.st27{clip-path:url(#SVGID_2_);fill:#0756B6;}
	.st28{clip-path:url(#SVGID_2_);fill:#0755B5;}
	.st29{clip-path:url(#SVGID_2_);fill:#0754B4;}
	.st30{clip-path:url(#SVGID_2_);fill:#0853B4;}
	.st31{clip-path:url(#SVGID_2_);fill:#0852B3;}
	.st32{clip-path:url(#SVGID_2_);fill:#0851B2;}
	.st33{clip-path:url(#SVGID_2_);fill:#084FB2;}
	.st34{clip-path:url(#SVGID_2_);fill:#084EB1;}
	.st35{clip-path:url(#SVGID_2_);fill:#084DB0;}
	.st36{clip-path:url(#SVGID_2_);fill:#094CB0;}
	.st37{clip-path:url(#SVGID_2_);fill:#094BAF;}
	.st38{clip-path:url(#SVGID_2_);fill:#094AAE;}
	.st39{clip-path:url(#SVGID_2_);fill:#0949AD;}
	.st40{clip-path:url(#SVGID_2_);fill:#0948AD;}
	.st41{clip-path:url(#SVGID_2_);fill:#0A47AC;}
	.st42{clip-path:url(#SVGID_2_);fill:#0A46AB;}
	.st43{clip-path:url(#SVGID_2_);fill:#0A45AB;}
	.st44{clip-path:url(#SVGID_2_);fill:#0A44AA;}
	.st45{clip-path:url(#SVGID_2_);fill:#0A43A9;}
	.st46{clip-path:url(#SVGID_2_);fill:#0A42A8;}
	.st47{clip-path:url(#SVGID_2_);fill:#0B41A8;}
	.st48{clip-path:url(#SVGID_2_);fill:#0B40A7;}
	.st49{clip-path:url(#SVGID_2_);fill:#0B3FA6;}
	.st50{clip-path:url(#SVGID_2_);fill:#0B3EA6;}
	.st51{clip-path:url(#SVGID_2_);fill:#0B3DA5;}
	.st52{clip-path:url(#SVGID_2_);fill:#0C3CA4;}
	.st53{clip-path:url(#SVGID_2_);fill:#0C3BA3;}
	.st54{clip-path:url(#SVGID_2_);fill:#0C3AA3;}
	.st55{clip-path:url(#SVGID_2_);fill:#0C39A2;}
	.st56{clip-path:url(#SVGID_2_);fill:#0C38A1;}
	.st57{clip-path:url(#SVGID_2_);fill:#0D37A1;}
	.st58{clip-path:url(#SVGID_2_);fill:#0D36A0;}
	.st59{clip-path:url(#SVGID_2_);fill:#0D359F;}
	.st60{clip-path:url(#SVGID_2_);fill:#0D349F;}
	.st61{clip-path:url(#SVGID_2_);fill:#0D339E;}
	.st62{clip-path:url(#SVGID_2_);fill:#0D329D;}
	.st63{clip-path:url(#SVGID_2_);fill:#0E319C;}
	.st64{clip-path:url(#SVGID_2_);fill:#0E309C;}
	.st65{clip-path:url(#SVGID_2_);fill:#0E2F9B;}
	.st66{fill:#00CFFF;}
	.st67{fill:#314FA3;}
	.st68{clip-path:url(#SVGID_4_);fill:#0271C9;}
	.st69{clip-path:url(#SVGID_4_);fill:#0270C8;}
	.st70{clip-path:url(#SVGID_4_);fill:#026FC8;}
	.st71{clip-path:url(#SVGID_4_);fill:#036EC7;}
	.st72{clip-path:url(#SVGID_4_);fill:#036DC6;}
	.st73{clip-path:url(#SVGID_4_);fill:#036CC5;}
	.st74{clip-path:url(#SVGID_4_);fill:#036BC5;}
	.st75{clip-path:url(#SVGID_4_);fill:#036AC4;}
	.st76{clip-path:url(#SVGID_4_);fill:#0369C3;}
	.st77{clip-path:url(#SVGID_4_);fill:#0468C3;}
	.st78{clip-path:url(#SVGID_4_);fill:#0467C2;}
	.st79{clip-path:url(#SVGID_4_);fill:#0466C1;}
	.st80{clip-path:url(#SVGID_4_);fill:#0465C1;}
	.st81{clip-path:url(#SVGID_4_);fill:#0464C0;}
	.st82{clip-path:url(#SVGID_4_);fill:#0563BF;}
	.st83{clip-path:url(#SVGID_4_);fill:#0562BE;}
	.st84{clip-path:url(#SVGID_4_);fill:#0561BE;}
	.st85{clip-path:url(#SVGID_4_);fill:#0560BD;}
	.st86{clip-path:url(#SVGID_4_);fill:#055FBC;}
	.st87{clip-path:url(#SVGID_4_);fill:#065EBC;}
	.st88{clip-path:url(#SVGID_4_);fill:#065DBB;}
	.st89{clip-path:url(#SVGID_4_);fill:#065CBA;}
	.st90{clip-path:url(#SVGID_4_);fill:#065BB9;}
	.st91{clip-path:url(#SVGID_4_);fill:#065AB9;}
	.st92{clip-path:url(#SVGID_4_);fill:#0659B8;}
	.st93{clip-path:url(#SVGID_4_);fill:#0758B7;}
	.st94{clip-path:url(#SVGID_4_);fill:#0757B7;}
	.st95{clip-path:url(#SVGID_4_);fill:#0756B6;}
	.st96{clip-path:url(#SVGID_4_);fill:#0755B5;}
	.st97{clip-path:url(#SVGID_4_);fill:#0754B4;}
	.st98{clip-path:url(#SVGID_4_);fill:#0853B4;}
	.st99{clip-path:url(#SVGID_4_);fill:#0852B3;}
	.st100{clip-path:url(#SVGID_4_);fill:#0851B2;}
	.st101{clip-path:url(#SVGID_4_);fill:#084FB2;}
	.st102{clip-path:url(#SVGID_4_);fill:#084EB1;}
	.st103{clip-path:url(#SVGID_4_);fill:#084DB0;}
	.st104{clip-path:url(#SVGID_4_);fill:#094CB0;}
	.st105{clip-path:url(#SVGID_4_);fill:#094BAF;}
	.st106{clip-path:url(#SVGID_4_);fill:#094AAE;}
	.st107{clip-path:url(#SVGID_4_);fill:#0949AD;}
	.st108{clip-path:url(#SVGID_4_);fill:#0948AD;}
	.st109{clip-path:url(#SVGID_4_);fill:#0A47AC;}
	.st110{clip-path:url(#SVGID_4_);fill:#0A46AB;}
	.st111{clip-path:url(#SVGID_4_);fill:#0A45AB;}
	.st112{clip-path:url(#SVGID_4_);fill:#0A44AA;}
	.st113{clip-path:url(#SVGID_4_);fill:#0A43A9;}
	.st114{clip-path:url(#SVGID_4_);fill:#0A42A8;}
	.st115{clip-path:url(#SVGID_4_);fill:#0B41A8;}
	.st116{clip-path:url(#SVGID_4_);fill:#0B40A7;}
	.st117{clip-path:url(#SVGID_4_);fill:#0B3FA6;}
	.st118{clip-path:url(#SVGID_4_);fill:#0B3EA6;}
	.st119{clip-path:url(#SVGID_4_);fill:#0B3DA5;}
	.st120{clip-path:url(#SVGID_4_);fill:#0C3CA4;}
	.st121{clip-path:url(#SVGID_4_);fill:#0C3BA3;}
	.st122{clip-path:url(#SVGID_4_);fill:#0C3AA3;}
	.st123{clip-path:url(#SVGID_4_);fill:#0C39A2;}
	.st124{clip-path:url(#SVGID_4_);fill:#0C38A1;}
	.st125{clip-path:url(#SVGID_4_);fill:#0D37A1;}
	.st126{clip-path:url(#SVGID_4_);fill:#0D36A0;}
	.st127{clip-path:url(#SVGID_4_);fill:#0D359F;}
	.st128{clip-path:url(#SVGID_4_);fill:#0D349F;}
	.st129{clip-path:url(#SVGID_4_);fill:#0D339E;}
	.st130{clip-path:url(#SVGID_4_);fill:#0D329D;}
	.st131{clip-path:url(#SVGID_4_);fill:#0E319C;}
	.st132{clip-path:url(#SVGID_4_);fill:#0E309C;}
	.st133{clip-path:url(#SVGID_4_);fill:#0E2F9B;}
	.st134{clip-path:url(#SVGID_6_);fill:#0758B7;}
	.st135{clip-path:url(#SVGID_6_);fill:#0757B7;}
	.st136{clip-path:url(#SVGID_6_);fill:#0756B6;}
	.st137{clip-path:url(#SVGID_6_);fill:#0755B5;}
	.st138{clip-path:url(#SVGID_6_);fill:#0754B4;}
	.st139{clip-path:url(#SVGID_6_);fill:#0853B4;}
	.st140{clip-path:url(#SVGID_6_);fill:#0852B3;}
	.st141{clip-path:url(#SVGID_6_);fill:#0851B2;}
	.st142{clip-path:url(#SVGID_6_);fill:#084FB2;}
	.st143{clip-path:url(#SVGID_6_);fill:#084EB1;}
	.st144{clip-path:url(#SVGID_6_);fill:#084DB0;}
	.st145{clip-path:url(#SVGID_6_);fill:#094CB0;}
	.st146{clip-path:url(#SVGID_6_);fill:#094BAF;}
	.st147{clip-path:url(#SVGID_6_);fill:#094AAE;}
	.st148{clip-path:url(#SVGID_6_);fill:#0949AD;}
	.st149{clip-path:url(#SVGID_6_);fill:#0948AD;}
	.st150{clip-path:url(#SVGID_6_);fill:#0A47AC;}
	.st151{clip-path:url(#SVGID_6_);fill:#0A46AB;}
	.st152{clip-path:url(#SVGID_6_);fill:#0A45AB;}
	.st153{clip-path:url(#SVGID_6_);fill:#0A44AA;}
	.st154{clip-path:url(#SVGID_6_);fill:#0A43A9;}
	.st155{clip-path:url(#SVGID_6_);fill:#0A42A8;}
	.st156{clip-path:url(#SVGID_6_);fill:#0B41A8;}
	.st157{clip-path:url(#SVGID_6_);fill:#0B40A7;}
	.st158{clip-path:url(#SVGID_6_);fill:#0B3FA6;}
	.st159{clip-path:url(#SVGID_6_);fill:#0B3EA6;}
	.st160{fill:#3ED2FF;}
</style>
<path class="st0" d="M79,9.4l-7.4,10.1l-5.8,12c0,0,1.1,17.1,1.9,18.6c0.8,1.4,4.2,7.4,4.2,7.4l8.5,4.9l7.2,1.2l7.3,0.7l1.4-1.9
	c0,0,1.1-0.2,3.1-3.2c2.1-3,3.7-4.5,3.7-4.5l2.5-2.8l3.8-6c0,0,1.7-2.9,1.5-6.9s-0.4-11.3-1.7-15.2s-1.2-2.6-3.7-6.3
	s-0.8-3.1-6.2-5.8c-5.4-2.6-6.2-3.2-9.8-3.5s-4.7-0.4-5.9,0C82.3,8.4,79,9.4,79,9.4z"/>
<rect x="11.5" y="9" class="st0" width="32.7" height="50.2"/>
<g id="XMLID_851_">
	<path id="XMLID_1051_" class="st1" d="M195.6,67.1c-3.8,1.4-15.3,2.6-31.6,3.5c0.5,0.3,0.7,0.7,0.7,1.1c0,1.7-5.1,3.1-11.4,3.1
		c-6.3,0-11.4-1.4-11.4-3.1c0-0.1,0-0.1,0-0.2c-12.8,0.4-27.1,0.6-42.3,0.6c-53.8,0-97.4-2.7-97.4-6.1c0-3.4,43.6-6.1,97.4-6.1
		c45.4,0,83.6,1.9,94.4,4.6C196.4,64.7,197.2,66.6,195.6,67.1z"/>
	<g id="XMLID_1039_">
		<path id="XMLID_1044_" class="st2" d="M9.4,4l39.3,0l1.4,43.9c-1.2,7.5-7.3,14.4-10.7,16.7c-9.7,5.4-20.2,5-31.4-1.4V37.3
			c-0.1-1.7,0.3-2.6,1.4-2.8V4z M15.2,12.8L15,38.7c0,0,0.2,1.2,0.2,1.4c0,0.1,10.2-1.1,11.1-1.1c1.5,0,3,0.1,4.3,0.8
			c1.3,0.7,2.4,2,2.3,3.5c-0.1,1.1-0.7,2-1.6,2.6c-0.9,0.6-1.9,0.9-2.9,1.1c-4.3,0.8-8.5-0.8-12.1-3.1h-2.4
			c-0.3,2.1-0.3,4.9-0.2,8.2V56c1.2,0.7,2.7,1.3,4.4,1.8l1.4,0.4l0.1,0c1.4,0.4,2.9,0.7,4.3,0.7l0,0c12.3,1.6,19.1-3.1,20.4-14.4
			c0.5-4.3-0.5-8.6-3.2-12c-3.4-4.4-8.4-6-14.9-4.8C26,27,26,26,26,24.9c1.2-0.5,2.7-0.6,4.6-0.3h12.6c0.3-2.8,0.3-6.5,0.2-11
			l-0.2-0.7H15.2z"/>
		<path id="XMLID_1040_" class="st2" d="M62.6,24.3c4.8-13.6,12-21.2,21.8-22.8c8.4-1.6,16.4,2.6,24.1,12.6l3.1,6.3
			c1,2.6,1.7,5.9,2.3,9.8l0.2,0.7v7.7l-0.5,4.9l-0.6,2.4c-0.1,0.7-0.3,1.6-0.6,2.8l-0.5,1.4c-9.4,19.4-21.9,24.5-37.3,15.1
			c-9-6.6-13.3-17.4-13-32.6C61.6,29.7,62,26.9,62.6,24.3z M103.2,23.9c-1.3-4.1-3.9-7.7-7.5-10.1c-3.4-2.2-7.2-3.1-11.3-2.5
			c-11,1.9-15.9,12.1-14.8,30.5l0.5,2.4l1,3.5c0.9,2.3,2.1,4.4,3.6,6.3l0.3,0.7c7.2,6.6,14.8,7,23,1.4
			C105.8,47.8,107.5,37.1,103.2,23.9z M80.9,36.1c0.2-5.3,1.9-8.5,4.9-9.8c4.7-1.2,7.1,2.7,7.2,11.7c-0.4,5.2-2,8.1-4.6,8.7
			c-2.4,1.2-4.5,0.1-6-3C81.3,41.3,80.8,38.7,80.9,36.1z"/>
	</g>
	<g>
		<g>
			<g>
				<path class="st3" d="M181.9,62.9c-3.9,1.8-7.8,3.3-10.3,4.2c-1.8,0.6-2.9,1-2.9,1l1.3-4.3l4.5-4c0,0,5.3-2.2,15.9-4.6
					c-0.3,0.4-0.5,0.8-0.8,1.1C187.7,58.9,186.4,60.8,181.9,62.9z"/>
				<path class="st4" d="M168.3,68.3c-0.1-0.1-0.1-0.2-0.1-0.4l1.3-4.3c0-0.1,0.1-0.1,0.1-0.2l4.5-4c0,0,0.1-0.1,0.1-0.1
					c0.1,0,5.5-2.3,15.9-4.6c0.2,0,0.4,0,0.5,0.2c0.1,0.1,0.1,0.3,0,0.5c-0.2,0.3-0.5,0.7-0.7,1l-0.1,0.1c-1.9,2.8-3.3,4.6-7.9,6.8
					l0,0c-3.9,1.8-7.8,3.3-10.4,4.2c-1.8,0.6-2.9,1-2.9,1C168.6,68.5,168.5,68.5,168.3,68.3C168.3,68.3,168.3,68.3,168.3,68.3z
					 M170.4,64l-1,3.3c0.5-0.2,1.2-0.4,2.1-0.7c2.5-0.9,6.4-2.3,10.3-4.2l0,0c4.3-2,5.7-3.8,7.5-6.5l0.1-0.1c0,0,0,0,0,0
					c-9,2.1-14,4-14.6,4.3L170.4,64z"/>
			</g>
			<g>
				<g>
					<path class="st5" d="M181.9,62.9c-3.9,1.8-7.8,3.3-10.3,4.2c-0.4-0.9,0.4-2.1,0.4-2.1s5.4-1.6,9.8-3.4c2.9-1.2,6.1-3.9,7.8-5.3
						C187.7,58.9,186.4,60.8,181.9,62.9z"/>
				</g>
			</g>
			<g>
				<path class="st3" d="M176,53.1c0,0,9.3-6.3,20-12c-0.8,2.3-1.8,6-4,8.3c-4.5,4.9-10.6,9.5-14.9,11.8c-2.4,1.3-4.8,1.4-4.8,1.4
					l0.1-3.9L176,53.1z"/>
				<path class="st4" d="M171.9,62.9c0-0.1-0.1-0.2-0.1-0.3l0.1-3.9c0-0.1,0-0.2,0.1-0.2l3.6-5.7c0-0.1,0.1-0.1,0.1-0.1
					c0.1-0.1,9.4-6.4,20.1-12c0.2-0.1,0.4-0.1,0.5,0.1c0.1,0.1,0.2,0.3,0.1,0.5c-0.1,0.3-0.2,0.6-0.3,0.9c-0.8,2.3-1.8,5.5-3.8,7.6
					c-4.4,4.7-10.4,9.5-15,11.9c-2.5,1.3-4.9,1.4-5,1.4C172.2,63.1,172,63.1,171.9,62.9C171.9,63,171.9,62.9,171.9,62.9z
					 M172.8,58.9l-0.1,3.2c0.8-0.1,2.5-0.4,4.2-1.3c4.5-2.4,10.5-7.1,14.8-11.7c1.8-1.9,2.8-4.9,3.5-7.1c-9.7,5.2-18,10.8-18.9,11.4
					L172.8,58.9z"/>
			</g>
			<g>
				<path class="st6" d="M191.6,44.8c0,0-11.1,6.7-12.8,7.9s-3.2,4.3-0.6,2.8C180.9,54,194.1,43.9,191.6,44.8z"/>
			</g>
			<g>
				<path class="st7" d="M170,69.6c-2.7,1.8-4.8,3.2-5.5,2.2c-0.7-1.1,0.9-3.4,3.6-5.1c2.7-1.8,5.4-2.3,6.1-1.3
					C174.9,66.5,172.7,67.8,170,69.6z"/>
				<path class="st4" d="M164.2,72c-1-1.5,1.2-4.1,3.7-5.7c2.5-1.7,5.7-2.6,6.7-1.1c0.7,1-0.4,2-0.8,2.3c-0.7,0.7-1.9,1.4-3.2,2.3
					l-0.3,0.2l-0.3,0.2c-1.3,0.9-2.4,1.6-3.3,2C166.2,72.4,164.8,73,164.2,72z M173.8,65.7c-0.5-0.7-2.9-0.3-5.5,1.4
					c-2.6,1.7-3.9,3.8-3.4,4.5c0.1,0.1,0.2,0.4,1.3-0.1c0.9-0.4,1.9-1.1,3.2-1.9l0.3-0.2l0.3-0.2c1.3-0.8,2.3-1.5,3-2.2
					C174.1,66,173.9,65.7,173.8,65.7z"/>
			</g>
			<g>
				<path class="st8" d="M169,67.8c-3.4,2.2-6.2,4.1-7.2,2.5s1-4.6,4.4-6.8c3.4-2.2,7-2.8,8-1.3S172.4,65.5,169,67.8z"/>
				<path class="st4" d="M161.5,70.6c-0.6-0.9-0.4-2.2,0.5-3.6c0.9-1.3,2.3-2.7,4-3.8c1.7-1.1,3.5-1.9,5.1-2.1
					c1.7-0.3,2.9,0.1,3.5,0.9c0.9,1.3-0.5,2.6-1,3.1c-1,1-2.6,2-4.3,3.1c-1.7,1.1-3.3,2.2-4.6,2.7C164.1,71.1,162.3,71.9,161.5,70.6
					z M173.8,62.4c-0.4-0.6-1.3-0.8-2.6-0.6c-1.4,0.2-3.1,1-4.7,2s-2.9,2.3-3.7,3.5c-0.7,1.1-0.9,2.1-0.5,2.6
					c0.8,1.1,3.6-0.7,6.6-2.7C171.7,65.4,174.5,63.6,173.8,62.4z"/>
			</g>
			<g>
				<path class="st3" d="M147.7,19.2c0,0,4.2-4,10.5-12.8c-3.9,0.8-6.2,1-10.4,4.7c-5.5,4.9-9.9,10.1-9.9,10.1l4.4,0.5L147.7,19.2z"
					/>
				<path class="st4" d="M137.5,21.5C137.4,21.5,137.4,21.5,137.5,21.5c-0.1-0.2-0.1-0.4,0-0.5c0-0.1,4.5-5.3,10-10.1
					c3.9-3.5,6.3-4,9.6-4.6c0.3-0.1,0.7-0.1,1-0.2c0.2,0,0.4,0,0.5,0.2c0,0,0,0,0,0c0.1,0.2,0.1,0.4,0,0.5
					c-6.3,8.7-10.5,12.8-10.5,12.8c0,0-0.1,0.1-0.1,0.1l-5.5,2.5c-0.1,0-0.2,0-0.2,0l-4.4-0.5C137.7,21.7,137.5,21.6,137.5,21.5z
					 M157.2,7.1c-3.2,0.6-5.4,1.1-9.1,4.4c-4.3,3.8-8,7.9-9.3,9.4l3.5,0.4l5.3-2.4C148,18.4,151.7,14.6,157.2,7.1z"/>
			</g>
			<g>
				<g>
					<path class="st5" d="M147.8,11.2c-3.2,2.9-6.1,5.9-7.9,7.8c0.7,0.7,2.1,0.5,2.1,0.5s4-4,7.4-7.3c2.3-2.2,5.5-4.5,7.5-5.5
						C153.8,7.3,151.5,7.9,147.8,11.2z"/>
				</g>
			</g>
			<g>
				<path class="st3" d="M154.5,20.5l-6.7,1.1l-3.6-1.4c0,0,0.4-0.9,1.3-2c0.5-0.6,1.1-1.3,1.9-1.9c3.8-3.1,10.5-6.8,16.7-9
					c2.5-0.9,5.7-0.7,8-0.5c0,0,0,0,0,0c0.4,0,0.8,0.1,1.2,0.1C163.9,14.4,154.5,20.5,154.5,20.5z"/>
				<path class="st4" d="M143.8,20.3C143.8,20.3,143.8,20.3,143.8,20.3c-0.1-0.2-0.1-0.3,0-0.4c0,0,0.5-1,1.3-2.1
					c0.6-0.8,1.3-1.4,2-2c4.1-3.3,10.8-6.9,16.9-9.1c2.5-0.9,5.4-0.7,8.2-0.5c0,0,0,0,0,0l0.1,0c0.4,0,0.8,0.1,1.1,0.1
					c0.2,0,0.3,0.1,0.4,0.3c0.1,0.2,0,0.4-0.1,0.5c-9.3,7.6-18.8,13.7-18.9,13.7c-0.1,0-0.1,0.1-0.2,0.1l-6.7,1.1
					c-0.1,0-0.2,0-0.2,0l-3.6-1.4C144,20.5,143.9,20.4,143.8,20.3z M172.1,7.1L172.1,7.1c-2.7-0.2-5.5-0.4-7.8,0.4
					c-5.9,2.1-12.6,5.7-16.6,9c-0.7,0.5-1.3,1.1-1.8,1.8c-0.5,0.6-0.8,1.1-1,1.5l3,1.2l6.5-1c0.9-0.6,9.3-6.1,17.9-12.9
					C172.2,7.1,172.2,7.1,172.1,7.1L172.1,7.1C172.1,7.1,172.1,7.1,172.1,7.1z M154.5,20.5L154.5,20.5L154.5,20.5z"/>
			</g>
			<g>
				<path class="st6" d="M169.1,8.6c-0.5,0.3-0.9,0.5-1.4,0.8c-1.4,0.9-3,1.7-4.5,2.4c-2.1,0.9-4.3,1.6-6.3,2.7
					c-2.8,1.5-4.7,3.7-6.7,6.1c0,0,3.1-1,6.1-2.6c1.4-0.7,2.7-2.1,3.7-2.6c3.1-1.8,11.1-7.4,10.3-7.2C169.9,8.3,169.5,8.4,169.1,8.6
					z"/>
			</g>
			<g>
				<path class="st7" d="M136.9,19.4c-2.7,1.8-4.9,3.1-4.2,4.2c0.7,1.1,3.4,0.5,6.1-1.3c2.7-1.8,4.3-4,3.6-5.1
					C141.7,16.2,139.6,17.6,136.9,19.4z"/>
				<path class="st4" d="M132.4,23.8c-0.7-1,0.4-2,0.8-2.3c0.7-0.7,1.9-1.4,3.2-2.3l0.3-0.2l0.3-0.2c1.3-0.9,2.4-1.6,3.3-2
					c0.4-0.2,1.8-0.8,2.4,0.2c1,1.5-1.2,4.1-3.7,5.7C136.6,24.4,133.4,25.3,132.4,23.8z M142.1,17.5c-0.1-0.1-0.2-0.4-1.3,0.1
					c-0.9,0.4-1.9,1.1-3.2,1.9l-0.3,0.2l-0.3,0.2c-1.3,0.8-2.3,1.5-3,2.2c-0.9,0.8-0.7,1.1-0.6,1.2c0.5,0.7,2.9,0.3,5.5-1.4
					C141.2,20.3,142.6,18.2,142.1,17.5z"/>
			</g>
			<g>
				<path class="st8" d="M138.2,21.1c-3.4,2.2-6.2,4.1-5.2,5.6c1,1.5,4.6,0.9,8-1.3c3.4-2.2,5.4-5.3,4.4-6.8S141.6,18.8,138.2,21.1z
					"/>
				<path class="st4" d="M132.7,26.9c-0.9-1.3,0.5-2.6,1-3.1c1-1,2.6-2,4.3-3.1c1.7-1.1,3.3-2.2,4.6-2.7c0.6-0.3,2.4-1,3.2,0.3
					c0.6,0.9,0.4,2.2-0.5,3.6c-0.9,1.3-2.3,2.7-4,3.8c-1.7,1.1-3.5,1.9-5.1,2.1C134.5,28.1,133.3,27.8,132.7,26.9z M145,18.8
					c-0.8-1.1-3.6,0.7-6.6,2.7s-5.8,3.8-5,5c0.4,0.6,1.3,0.8,2.6,0.6c1.4-0.2,3.1-1,4.7-2c1.6-1.1,2.9-2.3,3.7-3.5
					C145.2,20.3,145.4,19.3,145,18.8z"/>
			</g>
			<g>
				<g>
					<path class="st9" d="M137.1,25.2l-0.2,0.1c-1.9,1.5-3.6,1.8-4,0.9c-0.4-0.9,1-1.9,4.8-4.9C136.4,22.9,137.1,25.2,137.1,25.2z"
						/>
				</g>
			</g>
			<g>
				<path class="st7" d="M168.9,64.7c-10.5,9.2-23.1,10.9-35.1-7.2s-5.6-29.6,7.2-35.1c12.8-5.5,25-8.1,35.1,7.2
					S179.6,55.3,168.9,64.7z"/>
				<path class="st4" d="M133.4,57.7c-5.7-8.7-7.6-16.4-5.7-22.8c1.7-5.5,6.2-10,13.1-12.9c5.7-2.4,12.4-4.8,18.8-4.2
					c6.6,0.6,12.1,4.4,16.9,11.6c4.8,7.3,6.2,13.8,4.3,20.1c-1.5,5.1-5.1,9.9-11.6,15.5c-5.9,5.2-11.9,7.5-17.6,6.7
					C145.1,70.9,139,66.2,133.4,57.7z M175.7,29.9c-4.6-6.9-9.9-10.6-16.2-11.2c-6.2-0.6-12.7,1.8-18.3,4.2
					c-6.7,2.9-11,7.1-12.6,12.4c-1.9,6.2,0,13.6,5.6,22.1c5.4,8.2,11.3,12.8,17.5,13.6c5.5,0.7,11.2-1.5,16.9-6.5
					C178.4,55.7,186,45.6,175.7,29.9z"/>
			</g>
			<g>
				<g>
					<path class="st10" d="M153.5,37.5c0,0,1.8,3.6,2.9,5.1c1.5,2.1,4,5.3,4,5.3S156.8,38.9,153.5,37.5z"/>
				</g>
			</g>
			<g class="st11">
				<path class="st12" d="M157.1,70.2c-2.2,0.3-4.4-0.2-6.3-1.3c-3.2-1.8-6.8-5.7-6.5-9.8c0.1-1.4,0.9-2.7,1.3-4
					c0.8-2.7,0.8-5.3,0.8-5.9c0,0,0.1,0,0.1,0s0,0-0.1,0c0-0.1,0-0.1,0-0.1s0,0-0.1,0c-0.6-0.2-2.9-1.1-5.7-1.4
					c-1.3-0.2-2.9,0-4.2-0.4c-3.9-1.4-6.2-5.8-6.4-9.9c-0.1-2.2,0.2-4.4,1.3-6.3c0.3-0.4,0.6-0.9,0.9-1.3c0,0-11.7,11.2,1.6,27.7
					c9.9,18.7,24.8,12.4,24.8,12.4C158.1,70.1,157.6,70.2,157.1,70.2z"/>
			</g>
			<g>
				<g>
					<path class="st10" d="M159.2,44.1c0,0,1.3,8.4-1.7,12.1c-3,3.7,2.5,8.1,6.1,6S162.1,45.9,159.2,44.1z"/>
				</g>
			</g>
			<g>
				<g>
					<path class="st10" d="M156.1,39.5c0,0-7.2-4.5-11.8-3.2c-4.6,1.3-6.5-5.5-3.1-8C144.5,25.8,155.6,36,156.1,39.5z"/>
				</g>
			</g>
			<g>
				<path class="st13" d="M156,51.3c-1.9,1.3-6,0.2-8.2-3.1c-2.2-3.3-1.5-7.5,0.4-8.7c1.9-1.3,3.5,1.5,5.7,4.8
					C156.1,47.5,157.9,50.1,156,51.3z"/>
				<path class="st2" d="M147.2,48.6c-1.1-1.7-1.6-3.7-1.5-5.6c0.1-1.9,0.9-3.5,2.1-4.2c0.6-0.4,1.2-0.5,1.8-0.4
					c1.6,0.3,2.9,2.3,4.5,4.7c0.3,0.4,0.6,0.9,0.8,1.3c1.6,2.5,2.9,4.4,2.6,6c-0.1,0.6-0.5,1.1-1.1,1.5c-1.1,0.8-2.9,0.8-4.7,0.2
					C149.9,51.6,148.3,50.3,147.2,48.6z M152.4,43.4c-1.2-1.8-2.2-3.3-3.1-3.5c-0.1,0-0.4,0-0.7,0.2c-1.4,0.9-2.1,4.6-0.2,7.7
					c2,3,5.7,3.8,7.1,2.9c0.3-0.2,0.4-0.4,0.4-0.5c0.2-1-1-2.8-2.4-4.8c-0.3-0.4-0.6-0.9-0.8-1.3C152.7,43.8,152.6,43.6,152.4,43.4z
					"/>
			</g>
			<g>
				<path class="st14" d="M173,57.5c8.1-7.3,1.6-17.7-2.8-24.5c-4.4-6.7-12.7-15-21.2-12c-11,3.8-9.8,10.7-4.9,13.2
					c4.9,2.5,8.8,1.1,13.1,7.2c3.9,6.3,2.3,11,2.7,16.5C160.2,63.4,164.4,65.2,173,57.5z"/>
				<path class="st4" d="M141,32.1c-0.7-1.1-1-2.3-1-3.5c0.1-1.9,1.5-5.5,8.8-8c4-1.4,8.2-0.6,12.5,2.4c4.4,3,7.6,7.4,9.2,9.8
					c2.4,3.6,5,7.8,6.2,12.1c0.6,2.4,0.8,4.7,0.3,6.7c-0.5,2.3-1.8,4.4-3.7,6.2c-4.8,4.3-8.7,6.1-11.2,5.1c-1.6-0.6-2.5-2.3-2.7-4.9
					c-0.1-1.5-0.1-2.9,0-4.3c0.1-3.8,0.2-7.5-2.6-12c-2.8-3.9-5.3-4.6-8.2-5.4c-1.5-0.4-3-0.8-4.7-1.7C142.6,34,141.7,33.1,141,32.1
					z M169.8,33.2c-1.5-2.3-4.7-6.6-8.9-9.5c-4.1-2.8-8.1-3.6-11.8-2.3c-2.7,0.9-4.8,2.1-6.2,3.5c-1.2,1.2-1.9,2.5-2,3.8
					c-0.1,2,1.1,4,3.4,5.2c1.6,0.8,3.1,1.2,4.5,1.6c3,0.8,5.7,1.5,8.7,5.7c0,0,0,0,0,0c2.9,4.8,2.8,8.7,2.7,12.5
					c0,1.4-0.1,2.8,0,4.2c0.1,1.5,0.6,3.5,2.2,4.1c2.2,0.9,5.8-0.9,10.3-4.9l0,0c3.5-3.1,4.5-7,3.2-12
					C174.7,40.9,172.1,36.8,169.8,33.2z"/>
			</g>
			<g>
				
					<image style="overflow:visible;opacity:0.86;" width="2160" height="1135" xlink:href="C9DB558B.png"  transform="matrix(1.125593e-02 1.708141e-02 -1.708141e-02 1.125593e-02 158.0478 14.5235)">
				</image>
				<g>
					<g>
						<path class="st15" d="M142.3,31.2c-0.5-0.7-0.9-1.9-0.5-3.3c0.4-1.3,1.9-3.8,7.6-5.8c4.4-1.5,8.3,0.3,11.3,2.1
							c3,1.8,5.8,4.8,8.8,9.2c2.7,4.2,5.1,7.9,5.8,11.5c1,5.1,0.1,8.7-3.1,11.5c-5.2,4.7-7.9,5.1-9.1,4.9c-0.6-0.1-1.1-0.4-1.4-0.9
							c-0.4-0.6-0.6-1.5-0.7-2.6c-0.1-1.4-0.1-2.8,0-4.2c0.1-3.9,0.2-8-2.8-12.9l0,0l0,0c-3.1-4.4-6.2-5.2-9.2-6
							c-1.4-0.4-2.8-0.8-4.4-1.5C143.6,32.7,142.8,32,142.3,31.2z M168.7,33.9c-2.8-4.3-5.7-7.3-8.5-9c-3-1.8-6.6-3.4-10.6-2
							c-5.3,1.8-6.7,4-7,5.2c-0.3,1.1,0,2,0.4,2.6c0.4,0.6,1.1,1.2,1.9,1.6c1.4,0.7,2.8,1.1,4.2,1.5c3.1,0.8,6.3,1.7,9.7,6.4l0,0.1
							c0,0,0,0,0,0l0,0.1c3.2,5.2,3.1,9.4,3,13.4c0,1.3-0.1,2.7,0,4.1c0.1,1,0.3,1.7,0.6,2.2c0.2,0.3,0.4,0.5,0.8,0.5
							c0.6,0.1,3.1,0.1,8.3-4.7c3-2.7,3.8-5.9,2.8-10.7C173.7,41.7,171.4,38,168.7,33.9z"/>
					</g>
				</g>
			</g>
			<g>
				
					<image style="overflow:visible;" width="806" height="795" xlink:href="C9DB5598.png"  transform="matrix(1.125593e-02 1.708141e-02 -1.708141e-02 1.125593e-02 160.0435 20.0734)">
				</image>
			</g>
			<g>
				
					<image style="overflow:visible;" width="897" height="834" xlink:href="C9DB5599.png"  transform="matrix(1.125593e-02 1.708141e-02 -1.708141e-02 1.125593e-02 168.5507 34.0244)">
				</image>
			</g>
			<g class="st16">
				<g>
					<defs>
						
							<ellipse id="SVGID_1_" transform="matrix(0.6479 -0.7618 0.7618 0.6479 35.5439 128.6894)" cx="157" cy="25.9" rx="1.3" ry="1.9"/>
					</defs>
					<clipPath id="SVGID_2_">
						<use xlink:href="#SVGID_1_"  style="overflow:visible;"/>
					</clipPath>
					<polygon class="st17" points="156.8,28.4 156.8,28.4 156.8,28.4 					"/>
					<polygon class="st18" points="156.8,28.3 156.9,28.4 156.8,28.4 156.8,28.4 					"/>
					<polygon class="st19" points="156.7,28.2 157,28.3 156.9,28.4 156.8,28.3 					"/>
					<polygon class="st20" points="156.6,28.1 157.1,28.3 157,28.3 156.7,28.2 					"/>
					<polygon class="st21" points="156.5,28 157.2,28.2 157.1,28.3 156.6,28.1 					"/>
					<polygon class="st22" points="156.5,27.9 157.3,28.2 157.2,28.2 156.5,28 					"/>
					<polygon class="st23" points="156.4,27.7 157.3,28.1 157.3,28.2 156.5,27.9 					"/>
					<polygon class="st24" points="156.3,27.6 157.4,28.1 157.3,28.1 156.4,27.7 					"/>
					<polygon class="st25" points="156.2,27.5 157.5,28 157.4,28.1 156.3,27.6 					"/>
					<polygon class="st26" points="156.2,27.4 157.6,27.9 157.5,28 156.2,27.5 					"/>
					<polygon class="st27" points="156.1,27.3 157.7,27.9 157.6,27.9 156.2,27.4 					"/>
					<polygon class="st28" points="156,27.2 157.7,27.8 157.7,27.9 156.1,27.3 					"/>
					<polygon class="st29" points="155.9,27.1 157.8,27.8 157.7,27.8 156,27.2 					"/>
					<polygon class="st30" points="155.9,26.9 157.9,27.7 157.8,27.8 155.9,27.1 					"/>
					<polygon class="st31" points="155.8,26.8 158,27.7 157.9,27.7 155.9,26.9 					"/>
					<polygon class="st32" points="155.7,26.7 158.1,27.6 158,27.7 155.8,26.8 					"/>
					<polygon class="st33" points="155.6,26.6 158.2,27.6 158.1,27.6 155.7,26.7 					"/>
					<polygon class="st34" points="155.6,26.5 158.2,27.5 158.2,27.6 155.6,26.6 					"/>
					<polygon class="st35" points="155.5,26.4 158.3,27.5 158.2,27.5 155.6,26.5 					"/>
					<polygon class="st36" points="155.4,26.3 158.4,27.4 158.3,27.5 155.5,26.4 					"/>
					<polygon class="st37" points="155.3,26.1 158.5,27.3 158.4,27.4 155.4,26.3 					"/>
					<polygon class="st38" points="155.3,26 158.6,27.3 158.5,27.3 155.3,26.1 					"/>
					<polygon class="st39" points="155.2,25.9 158.6,27.2 158.6,27.3 155.3,26 					"/>
					<polygon class="st40" points="155.1,25.8 158.7,27.2 158.6,27.2 155.2,25.9 					"/>
					<polygon class="st41" points="155,25.7 158.8,27.1 158.7,27.2 155.1,25.8 					"/>
					<polygon class="st42" points="155,25.6 158.9,27.1 158.9,27.1 158.8,27.1 155,25.7 					"/>
					<polygon class="st43" points="154.9,25.5 158.9,27 158.9,27.1 155,25.6 					"/>
					<polygon class="st44" points="154.8,25.4 159,26.9 158.9,27 154.9,25.5 					"/>
					<polygon class="st45" points="154.8,25.3 154.8,25.3 159,26.9 159,26.9 154.8,25.4 					"/>
					
						<rect x="156.9" y="23.8" transform="matrix(0.3553 -0.9347 0.9347 0.3553 76.8304 163.4556)" class="st46" width="0.1" height="4.4"/>
					
						<rect x="156.9" y="23.7" transform="matrix(0.3553 -0.9347 0.9347 0.3553 76.9183 163.434)" class="st47" width="0.1" height="4.4"/>
					
						<rect x="156.9" y="23.7" transform="matrix(0.3553 -0.9347 0.9347 0.3553 77.0063 163.4125)" class="st48" width="0.1" height="4.4"/>
					
						<rect x="157" y="23.6" transform="matrix(0.3553 -0.9347 0.9347 0.3553 77.0942 163.3909)" class="st49" width="0.1" height="4.4"/>
					
						<rect x="157" y="23.5" transform="matrix(0.3553 -0.9347 0.9347 0.3553 77.1823 163.3693)" class="st50" width="0.1" height="4.4"/>
					<polygon class="st51" points="155,24.9 155,24.8 159.1,26.4 159.1,26.5 159.1,26.5 					"/>
					<polygon class="st52" points="155,24.8 155,24.8 159,26.3 159.1,26.4 					"/>
					<polygon class="st53" points="155,24.8 155,24.7 155.1,24.7 158.9,26.2 159,26.3 					"/>
					<polygon class="st54" points="155.2,24.6 158.9,26 158.9,26.2 155.1,24.7 					"/>
					<polygon class="st55" points="155.2,24.6 158.8,25.9 158.9,26 155.2,24.6 					"/>
					<polygon class="st56" points="155.3,24.5 158.7,25.8 158.8,25.9 155.2,24.6 					"/>
					<polygon class="st57" points="155.4,24.5 158.6,25.7 158.7,25.8 155.3,24.5 					"/>
					<polygon class="st58" points="155.5,24.4 158.6,25.6 158.6,25.7 155.4,24.5 					"/>
					<polygon class="st59" points="155.6,24.4 158.5,25.5 158.6,25.6 155.5,24.4 					"/>
					<polygon class="st60" points="155.7,24.3 158.4,25.4 158.5,25.5 155.6,24.4 					"/>
					<polygon class="st61" points="155.7,24.3 158.3,25.2 158.4,25.4 155.7,24.3 					"/>
					<polygon class="st62" points="155.8,24.2 158.3,25.1 158.3,25.2 155.7,24.3 					"/>
					<polygon class="st63" points="155.9,24.1 158.2,25 158.3,25.1 155.8,24.2 					"/>
					<polygon class="st64" points="156,24.1 158.1,24.9 158.2,25 155.9,24.1 					"/>
					<polygon class="st65" points="156.1,24 158,24.8 158.1,24.9 156,24.1 					"/>
					<polygon class="st65" points="158,24.8 156.1,24 157.1,23.4 					"/>
				</g>
			</g>
			<g class="st11">
				<path class="st12" d="M176.1,29.6c0,0,6.6,15,1.7,25.9C180.4,51.8,184.8,42.8,176.1,29.6z"/>
			</g>
			<g>
				<g>
					<path class="st5" d="M193.4,46.6c0,0-7.7,7.5-11.2,9.9c-1.7,1.1-4.1,2.4-5.7,3.2c-0.8-1.1-1.4-0.8-2.1-0.1
						c-0.5,0.5-1.2,0.9-1.4,1.7c0,0,1.4,1.4,2.6,1c1.2-0.4,9.4-5.9,11.4-8C189,52.1,193.4,49.1,193.4,46.6z"/>
				</g>
			</g>
			<g>
				<g>
					<path class="st66" d="M147.8,19.4c0,0-1.1,1.7-5.2,3.8s-8.9,5.4-9.4,5.9c-0.5,0.5-0.9-1,2.1-3.1S146.8,19.2,147.8,19.4z"/>
				</g>
			</g>
			<g>
				<g>
					<path class="st66" d="M176.9,56.1c0,0-5.8,5.5-11.1,9.4c-4.9,3.6-8.8,4.9-10.2,4.8C160.3,71.1,171.8,64.7,176.9,56.1z"/>
				</g>
			</g>
			<g>
				<path class="st67" d="M154.7,48.1c0,0-0.3-1.7-1.5-1.1C152.1,47.7,154.4,50.2,154.7,48.1z"/>
			</g>
			<g>
				<g>
					<path class="st5" d="M149.2,18.9c-2.1,1.4-3.5,0.8-3.5,0.8l-0.1-1.6c0.5-0.6,1.1-1.3,1.9-1.9c3.8-3.1,10.5-6.8,16.7-9
						c2.5-0.9,5.7-0.7,8-0.5c-0.2,0-8.7,0.8-14.7,4.8C151.4,15.4,147,18.3,149.2,18.9z"/>
				</g>
			</g>
			<g>
				<g>
					<path class="st9" d="M164.9,67.5l-0.2,0.1c-2.1,1.2-3.3,2.2-2.7,3c0.7,0.8,2.2-0.2,6.4-2.5C166.4,68.7,164.9,67.5,164.9,67.5z"
						/>
				</g>
			</g>
			<g>
				<g>
					<path class="st10" d="M171.1,68.9c0,0-3.5,2.7-5.2,0.4c-1.1,0.7-2.1,0.9-1.5,2.1C165.1,72.7,169,70.7,171.1,68.9z"/>
				</g>
			</g>
			<g>
				<g>
					<path class="st10" d="M137.9,18.6c0,0-3.9,2.1-2.4,4.6c-1.1,0.8-1.7,1.6-2.5,0.5C132,22.6,135.4,19.8,137.9,18.6z"/>
				</g>
			</g>
			<g class="st16">
				<g>
					<defs>
						<path id="SVGID_3_" d="M173.4,44.9c-0.7-2.6-2.1-5.7-3.5-7.9c0,0,0,0,0,0c-5.1-8.8-8.8-9.4-8.8-9.4c-1-0.4-1.6,1.4,1.1,3.5
							c2.7,2.1,6.2,8.5,6.2,8.5c0.2,1,0.4,2,0.2,2.8c-0.3,1.2-1.5,1.5-1.4,2.9c0.7,5.8,2.9,9.2,4.4,8.9
							C173.3,53.9,174.8,50.5,173.4,44.9z"/>
					</defs>
					<clipPath id="SVGID_4_">
						<use xlink:href="#SVGID_3_"  style="overflow:visible;"/>
					</clipPath>
					<polygon class="st68" points="176.1,52 174.8,43.5 179.1,50 					"/>
					<polygon class="st68" points="175.9,52.1 174.6,43.2 174.8,43.5 176.1,52 					"/>
					<polygon class="st69" points="175.8,52.2 174.4,42.8 174.6,43.2 175.9,52.1 					"/>
					<polygon class="st70" points="175.6,52.3 174.2,42.5 174.4,42.8 175.8,52.2 					"/>
					<polygon class="st71" points="175.5,52.5 174,42.2 174.2,42.5 175.6,52.3 					"/>
					<polygon class="st72" points="175.3,52.6 173.7,41.8 174,42.2 175.5,52.5 					"/>
					<polygon class="st73" points="175.2,52.7 173.5,41.5 173.7,41.8 175.3,52.6 					"/>
					<polygon class="st74" points="175,52.8 173.3,41.2 173.5,41.5 175.2,52.7 					"/>
					<polygon class="st75" points="174.9,52.9 173.1,40.9 173.3,41.2 175,52.8 					"/>
					<polygon class="st76" points="174.7,53 172.9,40.5 173.1,40.9 174.9,52.9 					"/>
					<polygon class="st77" points="174.6,53.1 172.7,40.2 172.9,40.5 174.7,53 					"/>
					<polygon class="st78" points="174.4,53.2 172.4,39.9 172.7,40.2 174.6,53.1 					"/>
					<polygon class="st79" points="174.3,53.3 172.2,39.5 172.4,39.9 174.4,53.2 					"/>
					<polygon class="st80" points="174.1,53.4 172,39.2 172.2,39.5 174.3,53.3 					"/>
					<polygon class="st81" points="173.9,53.5 171.8,38.9 172,39.2 174.1,53.4 					"/>
					<polygon class="st82" points="173.8,53.6 171.6,38.6 171.8,38.9 173.9,53.5 					"/>
					<polygon class="st83" points="173.6,53.7 171.3,38.2 171.6,38.6 173.8,53.6 					"/>
					<polygon class="st84" points="173.5,53.8 171.1,37.9 171.3,38.2 173.6,53.7 					"/>
					<polygon class="st85" points="173.3,53.9 170.9,37.6 171.1,37.9 173.5,53.8 					"/>
					<polygon class="st86" points="173.2,54 170.7,37.2 170.9,37.6 173.3,53.9 					"/>
					<polygon class="st87" points="173,54.1 170.5,36.9 170.7,37.2 173.2,54 					"/>
					<polygon class="st88" points="172.9,54.2 170.3,36.6 170.5,36.9 173,54.1 					"/>
					<polygon class="st89" points="172.7,54.3 170,36.3 170.3,36.6 172.9,54.2 					"/>
					<polygon class="st90" points="172.7,54.3 172.6,54.3 169.8,35.9 170,36.3 172.7,54.3 					"/>
					<polygon class="st91" points="172.6,54.3 172.4,54.3 169.6,35.6 169.8,35.9 					"/>
					<polygon class="st92" points="172.4,54.3 172.2,54.3 169.4,35.3 169.6,35.6 					"/>
					<polygon class="st93" points="172.2,54.3 172.1,54.4 169.2,34.9 169.4,35.3 					"/>
					<polygon class="st94" points="172.1,54.4 171.9,54.4 169,34.6 169.2,34.9 					"/>
					<polygon class="st95" points="171.9,54.4 171.7,54.4 168.7,34.3 169,34.6 					"/>
					<polygon class="st96" points="171.7,54.4 171.6,54.4 168.5,34 168.7,34.3 					"/>
					<polygon class="st97" points="171.6,54.4 171.4,54.5 168.3,33.6 168.5,34 					"/>
					<polygon class="st98" points="171.4,54.5 171.2,54.5 168.1,33.3 168.3,33.6 					"/>
					<polygon class="st99" points="171.2,54.5 171.1,54.5 167.9,33 168.1,33.3 					"/>
					<polygon class="st100" points="171.1,54.5 170.9,54.5 167.7,32.6 167.9,33 					"/>
					<polygon class="st101" points="170.9,54.5 170.8,54.6 167.4,32.3 167.7,32.6 					"/>
					<polygon class="st102" points="170.8,54.6 170.6,54.6 167.2,32 167.4,32.3 					"/>
					<polygon class="st103" points="170.6,54.6 170.4,54.6 167,31.6 167.2,32 					"/>
					<polygon class="st104" points="170.4,54.6 170.3,54.6 166.8,31.3 167,31.6 					"/>
					<polygon class="st105" points="170.3,54.6 170.2,54.6 170.1,54.4 166.6,31 166.8,31.3 					"/>
					<polygon class="st106" points="169.8,54.1 166.4,30.7 166.6,31 170.1,54.4 					"/>
					<polygon class="st107" points="169.6,53.7 166.1,30.3 166.4,30.7 169.8,54.1 					"/>
					<polygon class="st108" points="169.4,53.4 165.9,30 166.1,30.3 169.6,53.7 					"/>
					<polygon class="st109" points="169.2,53.1 165.7,29.7 165.9,30 169.4,53.4 					"/>
					<polygon class="st110" points="169,52.8 165.5,29.3 165.7,29.7 169.2,53.1 					"/>
					<polygon class="st111" points="168.8,52.4 165.3,29 165.5,29.3 169,52.8 					"/>
					<polygon class="st112" points="168.5,52.1 165.1,28.7 165.3,29 168.8,52.4 					"/>
					<polygon class="st113" points="168.3,51.8 164.8,28.4 165.1,28.7 168.5,52.1 					"/>
					<polygon class="st114" points="168.1,51.4 164.6,28 164.8,28.4 168.3,51.8 					"/>
					<polygon class="st115" points="167.9,51.1 164.4,27.7 164.6,28 168.1,51.4 					"/>
					<polygon class="st116" points="167.7,50.8 164.2,27.4 164.4,27.7 167.9,51.1 					"/>
					<polygon class="st117" points="167.5,50.5 164,27 164.2,27.4 167.7,50.8 					"/>
					<polygon class="st118" points="167.2,50.1 163.8,26.7 164,27 167.5,50.5 					"/>
					<polygon class="st119" points="167,49.8 163.6,26.5 163.6,26.5 163.8,26.7 167.2,50.1 					"/>
					<polygon class="st120" points="166.8,49.5 163.4,26.5 163.6,26.5 167,49.8 					"/>
					<polygon class="st121" points="166.6,49.1 163.2,26.5 163.4,26.5 166.8,49.5 					"/>
					<polygon class="st122" points="166.4,48.8 163.1,26.5 163.2,26.5 166.6,49.1 					"/>
					<polygon class="st123" points="166.2,48.5 162.9,26.6 163.1,26.5 166.4,48.8 					"/>
					<polygon class="st124" points="165.9,48.2 162.7,26.6 162.9,26.6 166.2,48.5 					"/>
					<polygon class="st125" points="165.7,47.8 162.6,26.6 162.7,26.6 165.9,48.2 					"/>
					<polygon class="st126" points="165.5,47.5 162.4,26.6 162.6,26.6 165.7,47.8 					"/>
					<polygon class="st127" points="165.3,47.2 162.2,26.7 162.4,26.6 165.5,47.5 					"/>
					<polygon class="st128" points="165.1,46.8 162.1,26.7 162.2,26.7 165.3,47.2 					"/>
					<polygon class="st129" points="164.9,46.5 161.9,26.7 162.1,26.7 165.1,46.8 					"/>
					<polygon class="st130" points="164.6,46.2 161.7,26.7 161.9,26.7 164.9,46.5 					"/>
					<polygon class="st131" points="164.4,45.9 161.6,26.7 161.7,26.7 164.6,46.2 					"/>
					<polygon class="st132" points="164.2,45.5 161.4,26.8 161.6,26.7 164.4,45.9 					"/>
					<polygon class="st133" points="164,45.2 161.3,26.8 161.4,26.8 164.2,45.5 					"/>
					<polygon class="st133" points="160.4,26.9 161.3,26.8 164,45.2 154.5,30.8 					"/>
				</g>
			</g>
			<g class="st16">
				<g>
					<defs>
						<path id="SVGID_5_" d="M170,54.9c0,0-0.9-0.7-2.1-0.1s-1.7,2.5-1,2.6C167.6,57.6,170.7,55.6,170,54.9z"/>
					</defs>
					<clipPath id="SVGID_6_">
						<use xlink:href="#SVGID_5_"  style="overflow:visible;"/>
					</clipPath>
					<polygon class="st134" points="166.8,58.2 167.1,58 166.8,58.2 					"/>
					<polygon class="st135" points="166.8,58.1 168.6,57 167.1,58 166.8,58.2 					"/>
					<polygon class="st136" points="166.7,58 170.2,56 168.6,57 166.8,58.1 					"/>
					<polygon class="st137" points="166.6,57.9 170.7,55.6 170.7,55.6 170.2,56 166.7,58 					"/>
					<polygon class="st138" points="166.6,57.8 170.6,55.5 170.7,55.6 166.6,57.9 					"/>
					<polygon class="st139" points="166.5,57.7 170.6,55.4 170.6,55.5 166.6,57.8 					"/>
					<polygon class="st140" points="166.5,57.6 170.5,55.3 170.6,55.4 166.5,57.7 					"/>
					<polygon class="st141" points="166.4,57.6 170.5,55.2 170.5,55.3 166.5,57.6 					"/>
					<polygon class="st142" points="166.4,57.5 170.4,55.1 170.5,55.2 166.4,57.6 					"/>
					<polygon class="st143" points="166.3,57.4 170.4,55 170.4,55.1 166.4,57.5 					"/>
					<polygon class="st144" points="166.2,57.3 170.3,54.9 170.4,55 166.3,57.4 					"/>
					<polygon class="st145" points="166.2,57.2 170.2,54.9 170.3,54.9 166.2,57.3 					"/>
					<polygon class="st146" points="166.1,57.1 170.2,54.8 170.2,54.9 166.2,57.2 					"/>
					<polygon class="st147" points="166.1,57 170.1,54.7 170.2,54.8 166.1,57.1 					"/>
					<polygon class="st148" points="166,57 170.1,54.6 170.1,54.7 166.1,57 					"/>
					<polygon class="st149" points="166,56.9 170,54.5 170.1,54.6 166,57 					"/>
					<polygon class="st150" points="165.9,56.8 170,54.4 170,54.5 166,56.9 					"/>
					<polygon class="st151" points="165.8,56.7 169.9,54.3 170,54.4 165.9,56.8 					"/>
					<polygon class="st152" points="165.8,56.6 169.8,54.2 169.9,54.3 165.8,56.7 					"/>
					<polygon class="st153" points="165.7,56.5 169.8,54.2 169.8,54.2 165.8,56.6 					"/>
					<polygon class="st154" points="165.7,56.4 169.7,54.1 169.8,54.2 165.7,56.5 					"/>
					<polygon class="st155" points="165.6,56.3 169.7,54 169.7,54.1 165.7,56.4 					"/>
					<polygon class="st156" points="165.6,56.3 169.6,53.9 169.7,54 165.6,56.3 					"/>
					<polygon class="st157" points="166.4,55.7 169.5,53.8 169.6,53.9 165.6,56.3 165.5,56.2 					"/>
					<polygon class="st158" points="167.9,54.6 169.5,53.7 169.5,53.8 166.4,55.7 					"/>
					<polygon class="st159" points="169.5,53.7 167.9,54.6 169.4,53.6 					"/>
				</g>
			</g>
			<g>
				<path class="st2" d="M139,43.7c1.7-0.1,3.4,0.5,4.9,1.4c0.8,0.4,1.4,1,2.1,1.6c0.3,0.3,0.6,0.6,0.9,1c0.3,0.3,0.5,0.7,0.8,1.1
					c0.9,1.5,1.6,3.2,1.7,4.9c0.2,0.8,0.1,1.7,0,2.5c-0.1,0.8-0.3,1.7-0.6,2.5l-0.2,0c0-0.8,0-1.6-0.1-2.4c-0.1-0.8-0.2-1.6-0.4-2.3
					l-0.3-1.1l-0.4-1.1c-0.1-0.4-0.3-0.7-0.5-1.1c-0.2-0.3-0.4-0.7-0.6-1c-0.8-1.3-1.9-2.5-3.1-3.5c-1.2-1-2.6-1.7-4.1-2.2L139,43.7
					z"/>
			</g>
		</g>
		<g id="XMLID_982_">
			
				<rect x="154.4" y="31" transform="matrix(1 -5.175765e-03 5.175765e-03 1 -0.1613 0.8157)" class="st160" width="6.2" height="1.2"/>
			
				<rect x="154.4" y="31" transform="matrix(4.558925e-02 -0.999 0.999 4.558925e-02 118.7933 187.4939)" class="st160" width="6.2" height="1.2"/>
		</g>
		<g id="XMLID_1_">
			
				<rect x="164.2" y="45.8" transform="matrix(1 -5.175765e-03 5.175765e-03 1 -0.2378 0.8664)" class="st160" width="6.2" height="1.2"/>
			
				<rect x="164.2" y="45.8" transform="matrix(4.558925e-02 -0.999 0.999 4.558925e-02 113.3171 211.3597)" class="st160" width="6.2" height="1.2"/>
		</g>
	</g>
</g>
</svg>
