<svg width="71" height="103" viewBox="0 0 71 103" fill="none" xmlns="http://www.w3.org/2000/svg">
<path d="M36.2891 102.999C65.0978 93.8423 78.9568 68.59 64.7129 56.1345C51.4955 44.589 55.4735 35.6597 59.9648 31.2235C59.9648 31.2235 35.9683 42.8259 41.2296 58.4095C41.2296 58.4095 23.1358 41.7453 38.4064 15.8105C38.4064 15.8105 -13.7574 44.2478 4.07969 75.7562C14.2173 93.5011 36.2891 102.999 36.2891 102.999Z" fill="#EF470C"/>
<path d="M44.4378 82.9794C44.4378 90.7143 36.2892 96.9705 36.2892 96.9705C36.2892 96.9705 28.1406 90.7143 28.1406 82.9794C28.1406 75.2445 36.2892 68.9883 36.2892 68.9883C36.2892 68.9883 44.4378 75.2445 44.4378 82.9794Z" fill="#EDCA58"/>
<path d="M36.2891 0C43.1544 6.82493 56.3076 11.773 56.3076 20.0767C56.3076 29.8022 43.2186 32.0203 39.9463 40.1534C39.1122 30.4847 45.3359 28.6079 44.4377 20.0767C43.7319 13.5361 36.2891 10.0099 36.2891 0Z" fill="#EF470C"/>
</svg>
