<svg width="79" height="111" viewBox="0 0 79 111" fill="none" xmlns="http://www.w3.org/2000/svg">
<g filter="url(#filter0_d_6448_47173)">
<path d="M64.9411 24.669C65.4379 27.4457 65.6425 30.1639 65.6133 32.7652C65.6133 33.0867 65.5841 33.4082 65.5841 33.7297C65.5548 34.1389 65.5548 34.5189 65.5256 34.9281C63.4797 30.69 58.2186 27.6795 52.0808 27.6795C51.8469 27.6795 51.5546 27.6795 51.3208 27.6795C51.35 27.5626 51.3793 27.5041 51.4085 27.358C51.4085 27.2996 51.467 27.1826 51.467 27.1242C51.467 27.1242 51.467 27.1242 51.467 27.095C51.467 27.0657 51.467 27.0365 51.4962 26.978C51.5254 26.8027 51.5546 26.5981 51.6131 26.4227C51.73 25.8674 51.7885 25.312 51.8762 24.7275C51.8762 24.6106 51.9054 24.4937 51.9054 24.406C51.9054 24.3183 51.9346 24.2306 51.9346 24.1722C51.9638 23.9676 51.9931 23.7337 51.9931 23.5291C52.0808 22.5938 52.11 21.6001 52.11 20.6356C52.11 20.4018 52.11 20.1679 52.11 19.9341C52.11 19.8756 52.11 19.788 52.11 19.7295C52.11 19.5834 52.11 19.4665 52.11 19.3203C52.11 19.1742 52.11 19.0573 52.0808 18.9111C52.0808 18.8527 52.0808 18.7942 52.0808 18.7065C52.0808 18.6481 52.0808 18.6188 52.0808 18.5604C52.0808 18.4727 52.0807 18.385 52.0515 18.2973C52.0515 18.2681 52.0515 18.2389 52.0515 18.1804C52.0515 17.9758 52.0223 17.8005 51.9931 17.5959C51.9638 17.3328 51.9346 17.0698 51.9054 16.8067C51.9054 16.719 51.8762 16.6313 51.8762 16.5437C51.8469 16.3391 51.8177 16.1345 51.7885 15.9299C51.7885 15.9299 51.7885 15.9299 51.7885 15.9006C51.7592 15.6668 51.73 15.433 51.6716 15.1699C51.6423 14.9946 51.6131 14.8192 51.5839 14.6438C51.5839 14.5562 51.5547 14.4977 51.5547 14.41C51.5547 14.3516 51.5254 14.2931 51.5254 14.2346C51.4962 14.0885 51.467 13.9131 51.4377 13.767C51.4377 13.7378 51.4377 13.7085 51.4085 13.6501C51.3793 13.5332 51.3501 13.4455 51.3501 13.3286C51.3208 13.2117 51.2916 13.124 51.2624 13.0071V12.9778C51.2039 12.7733 51.1747 12.5687 51.1162 12.3641C51.0578 12.101 50.9701 11.838 50.9116 11.6041C50.8532 11.4288 50.7947 11.2534 50.7363 11.078C50.7363 11.0488 50.7363 11.0196 50.707 10.9903C50.6778 10.9319 50.6486 10.8442 50.6486 10.7858C50.5901 10.6396 50.5609 10.4935 50.5024 10.3473C50.4732 10.2304 50.4148 10.1427 50.3855 10.0258C50.3563 9.96737 50.3271 9.90891 50.3271 9.85046C50.2978 9.82123 50.2978 9.76277 50.2686 9.73354C50.1809 9.52895 50.0932 9.32435 50.0348 9.11976C50.0056 9.00284 49.9471 8.91516 49.9179 8.79825C49.8594 8.71056 49.8302 8.59365 49.7717 8.50597C49.7425 8.44751 49.7133 8.38906 49.7133 8.35983C49.6548 8.21369 49.5671 8.06755 49.5087 7.92141C49.4502 7.83372 49.421 7.71681 49.3626 7.62913C49.3041 7.51222 49.2456 7.42453 49.2164 7.33685C49.2164 7.30762 49.1872 7.30762 49.1872 7.27839C49.158 7.21994 49.1287 7.16148 49.0995 7.10303C49.0703 7.01534 49.0118 6.95689 48.9826 6.8692C48.9534 6.83997 48.9534 6.81075 48.9241 6.78152C48.9241 6.75229 48.8949 6.75229 48.8949 6.72306C48.8072 6.54769 48.7195 6.40156 48.6026 6.25542C48.4857 6.08005 48.398 5.90468 48.2811 5.72931C48.2227 5.64163 48.1642 5.55394 48.1057 5.46626C48.1057 5.46626 48.1057 5.46626 48.1057 5.43703C48.0765 5.4078 48.0473 5.34935 48.0181 5.32012C47.9596 5.23244 47.8719 5.11552 47.8135 5.02784C47.7258 4.91093 47.6381 4.76479 47.5212 4.64788C47.4627 4.58942 47.4335 4.53096 47.375 4.47251C47.3166 4.38482 47.2289 4.29714 47.1705 4.20946C47.1412 4.18023 47.112 4.151 47.112 4.12177C47.0243 4.03409 46.9659 3.94641 46.8782 3.82949C46.8489 3.77104 46.7905 3.74181 46.7613 3.68335C46.6151 3.50799 46.469 3.36185 46.2936 3.18648C46.2059 3.09879 46.1475 3.04034 46.0598 2.95265C46.0013 2.8942 45.9429 2.83574 45.8552 2.74806C45.826 2.71883 45.826 2.71883 45.7967 2.6896C45.7383 2.66038 45.7091 2.60192 45.6506 2.57269C45.4168 2.36809 45.2122 2.19273 44.9784 2.01736C44.8907 1.9589 44.7738 1.87122 44.6861 1.81276C44.6568 1.78354 44.6568 1.78354 44.6276 1.75431C44.5692 1.72508 44.5399 1.69585 44.4815 1.6374C44.423 1.60817 44.3938 1.57894 44.3646 1.54971C44.3646 1.54971 44.3353 1.54971 44.3353 1.52048C43.9846 1.28666 43.6046 1.05284 43.2539 0.877469C43.4585 0.819013 43.6339 0.789785 43.8385 0.760557C47.2874 0.14677 50.7947 1.31589 53.9806 3.80027C54.0098 3.82949 54.039 3.85872 54.0975 3.88795C54.1267 3.91718 54.1559 3.94641 54.1852 3.97563C54.3605 4.12177 54.5359 4.26791 54.7113 4.41405C54.8574 4.53096 54.9743 4.64788 55.1205 4.76479C55.2666 4.91093 55.442 5.05707 55.5881 5.20321H55.6173C55.7635 5.34935 55.9096 5.49549 56.0558 5.64163C56.2019 5.78777 56.348 5.96314 56.4942 6.10928C56.6403 6.25542 56.7865 6.43078 56.9326 6.60615C57.108 6.81075 57.2833 7.01534 57.4587 7.19071C57.5756 7.33685 57.6925 7.48299 57.8094 7.62913C58.0725 7.97986 58.3355 8.3306 58.5986 8.68134C58.5986 8.71056 58.6278 8.71056 58.657 8.73979C58.774 8.91516 58.9201 9.11976 59.0662 9.32435C59.1831 9.52895 59.3293 9.70432 59.4462 9.90891C59.5631 10.0843 59.68 10.2889 59.8262 10.4935C59.8554 10.5519 59.8846 10.5812 59.9138 10.6396C60.0308 10.815 60.1184 10.9903 60.2354 11.1657C60.3523 11.3703 60.4692 11.5749 60.6153 11.8087C60.7322 12.0133 60.8491 12.2471 60.9661 12.4517C61.1999 12.8902 61.4337 13.3578 61.6383 13.7962C61.8721 14.2639 62.0767 14.7315 62.2813 15.1992C62.3982 15.433 62.4859 15.6668 62.5736 15.9299C62.6613 16.1637 62.749 16.3975 62.8366 16.6021C62.8659 16.6313 62.8659 16.6898 62.8951 16.719C62.9828 16.9529 63.0705 17.1867 63.1581 17.3913C63.2458 17.6543 63.3335 17.8881 63.4212 18.1512C63.5089 18.385 63.5673 18.5896 63.655 18.8234C63.6843 18.8819 63.7135 18.9696 63.7135 19.028C63.7719 19.2619 63.8596 19.4665 63.9181 19.7003C63.9765 19.9341 64.0642 20.1972 64.1227 20.431C64.1227 20.4602 64.1519 20.5187 64.1519 20.5479C64.2104 20.7233 64.2396 20.8986 64.298 21.074C64.3273 21.1909 64.3565 21.337 64.3857 21.454C64.5319 21.9801 64.6488 22.5062 64.7657 23.0615C64.7949 23.2369 64.8534 23.4415 64.8826 23.6461C64.8241 23.9968 64.8826 24.3183 64.9411 24.669Z" fill="url(#paint0_linear_6448_47173)"/>
<path d="M53.8633 3.82812C60.878 4.61728 68.5065 12.012 72.3646 22.6802C74.5859 28.818 75.1997 34.9267 74.3521 39.9831C73.5922 37.0896 70.3186 34.9267 66.4021 34.9267C66.0806 34.9267 65.7883 34.9267 65.4668 34.9559C65.496 34.5467 65.5252 34.1668 65.5252 33.7576C65.5252 33.4361 65.5545 33.1145 65.5545 32.793C65.5837 30.1917 65.3791 27.4736 64.8822 24.6969C64.8238 24.3754 64.7653 24.0246 64.7069 23.7031C64.6776 23.4985 64.6192 23.3232 64.5899 23.1186C64.473 22.5633 64.3561 22.0371 64.21 21.511C64.1808 21.3941 64.1515 21.248 64.1223 21.1311C64.0931 20.9557 64.0346 20.7803 63.9762 20.605C63.9762 20.5758 63.9469 20.5173 63.9469 20.4881C63.8885 20.2542 63.8008 19.9912 63.7423 19.7574C63.6839 19.5235 63.5962 19.3189 63.5377 19.0851C63.5085 19.0267 63.5085 18.939 63.4793 18.8805C63.4208 18.6467 63.3331 18.4421 63.2455 18.2083C63.1578 17.9452 63.0701 17.7114 62.9824 17.4484C62.8947 17.2145 62.807 16.9807 62.7194 16.7761C62.7194 16.7469 62.6901 16.6884 62.6609 16.6592C62.5732 16.4254 62.4855 16.1916 62.3978 15.987C62.3102 15.7531 62.1932 15.4901 62.1056 15.2563C61.901 14.7886 61.6964 14.321 61.4626 13.8533C61.2287 13.3857 61.0241 12.9473 60.7903 12.5088C60.6734 12.275 60.5565 12.0704 60.4396 11.8658C60.3227 11.6612 60.2057 11.4274 60.0596 11.2228C59.9427 11.0474 59.855 10.8721 59.7381 10.6967C59.7089 10.6675 59.6796 10.609 59.6504 10.5506C59.5335 10.346 59.4166 10.1706 59.2705 9.966C59.1535 9.7614 59.0074 9.55681 58.8905 9.38144C58.7443 9.17684 58.6274 9.00147 58.4813 8.79688C58.4521 8.76765 58.4521 8.76765 58.4228 8.73842C58.1598 8.38769 57.8967 8.03695 57.6337 7.68622C57.5168 7.54008 57.3999 7.39394 57.2829 7.2478C57.1076 7.0432 56.9322 6.83861 56.7568 6.66324C56.6107 6.48787 56.4646 6.34173 56.3184 6.16636C56.1723 5.99099 56.0261 5.84486 55.88 5.69872C55.7339 5.55258 55.5877 5.40644 55.4416 5.2603C55.4416 5.2603 55.4416 5.2603 55.4124 5.2603C55.2662 5.11416 55.1201 4.96802 54.9447 4.82188C54.7986 4.70496 54.6817 4.55882 54.5355 4.47114C54.3602 4.325 54.1848 4.17886 54.0094 4.03272C53.9802 4.00349 53.951 3.97427 53.9217 3.94504C53.951 3.85735 53.8925 3.82812 53.8633 3.82812Z" fill="url(#paint1_linear_6448_47173)"/>
<path d="M27.2955 27.0066C27.1494 26.2759 27.0324 25.516 26.9448 24.7561C26.9448 24.6392 26.9155 24.5223 26.9155 24.4346C26.9155 24.3469 26.8863 24.2592 26.8863 24.2008C26.8571 23.9962 26.8279 23.7623 26.8279 23.5577C26.7402 22.6224 26.7109 21.6287 26.7109 20.6642C26.7109 20.4303 26.7109 20.1965 26.7109 19.9627C26.7109 19.9042 26.7109 19.8166 26.7109 19.7581C26.7109 19.612 26.7109 19.4951 26.7109 19.3489C26.7109 19.1443 26.7109 18.9689 26.7402 18.7644C26.7402 18.6182 26.7694 18.5013 26.7694 18.3552C26.7694 18.3259 26.7694 18.2967 26.7694 18.2382C26.7694 18.0337 26.7986 17.8583 26.8279 17.6537C26.8571 17.3906 26.8863 17.1276 26.9155 16.8645C26.9155 16.7768 26.9448 16.6892 26.9448 16.6015C26.974 16.3969 27.0032 16.1923 27.0324 15.9877C27.0324 15.9877 27.0324 15.9877 27.0324 15.9585C27.0617 15.7246 27.0909 15.4908 27.1494 15.2278C27.1786 15.0524 27.2078 14.877 27.237 14.7017C27.237 14.614 27.2663 14.5555 27.2663 14.4678C27.2663 14.4094 27.2955 14.3509 27.2955 14.2925C27.3247 14.1463 27.354 13.971 27.3832 13.8248C27.3832 13.7956 27.4124 13.7664 27.4124 13.7079C27.4709 13.5033 27.5001 13.2695 27.5586 13.0649V13.0357C27.617 12.8311 27.6755 12.6265 27.7047 12.4219C27.7631 12.1588 27.8508 11.8958 27.9093 11.662C27.9677 11.4574 28.0262 11.2528 28.1139 11.0482C28.1723 10.8143 28.26 10.6097 28.3477 10.4052C28.4354 10.2006 28.4938 9.96674 28.5815 9.76214C28.6692 9.55754 28.7569 9.35295 28.8154 9.14835C28.8446 9.03144 28.903 8.94376 28.9323 8.82685C28.9907 8.73916 29.0199 8.62225 29.0784 8.53456C29.1369 8.41765 29.1661 8.32997 29.2245 8.24229C29.283 8.1546 29.3122 8.03769 29.3707 7.95001C29.4291 7.86232 29.4584 7.74541 29.5168 7.65773C29.5753 7.54081 29.6337 7.45313 29.663 7.36545C29.7214 7.27776 29.7506 7.19008 29.8091 7.10239C29.8676 7.01471 29.926 6.92703 29.9552 6.81012C30.0137 6.72243 30.0429 6.63475 30.1014 6.54706C30.1598 6.45938 30.2183 6.3717 30.2475 6.28401C30.3644 6.10864 30.4521 5.93328 30.569 5.75791C30.6275 5.67023 30.6859 5.58254 30.7444 5.49486C31.1244 4.9103 31.5336 4.35497 31.972 3.85809C32.0012 3.79964 32.0597 3.77041 32.0889 3.71195C32.235 3.53658 32.3812 3.39044 32.5273 3.21508C32.615 3.12739 32.6734 3.06894 32.7611 2.98125C33.0242 2.7182 33.2872 2.48438 33.5795 2.25055C33.6672 2.16287 33.7549 2.10441 33.8426 2.01673C33.9302 1.95827 34.0472 1.87059 34.1348 1.81213C34.281 1.72445 34.3979 1.63677 34.544 1.54908C34.8948 1.31526 35.2455 1.11066 35.6255 0.935295C36.8238 0.321508 38.0806 0 39.3959 0C40.7111 0 41.9679 0.321508 43.1663 0.935295C43.5462 1.11066 43.897 1.34449 44.2769 1.57831C44.2769 1.57831 44.3062 1.57831 44.3062 1.60754C44.3939 1.66599 44.4815 1.72445 44.5692 1.81213C44.5985 1.84136 44.5985 1.84136 44.6277 1.87059C44.7154 1.92905 44.8323 2.01673 44.92 2.07518C45.0076 2.13364 45.0953 2.22132 45.183 2.27978C45.3291 2.39669 45.4461 2.5136 45.5922 2.63052C45.6507 2.68897 45.7383 2.74743 45.7968 2.80588C45.8553 2.86434 45.9429 2.9228 46.0014 3.01048C46.0891 3.09816 46.1475 3.15662 46.2352 3.2443C46.3814 3.39044 46.5567 3.56581 46.7029 3.74118C46.7321 3.79963 46.7905 3.82886 46.8198 3.88732C46.9367 4.00423 47.0244 4.12114 47.1413 4.26728C47.1997 4.35497 47.2874 4.44265 47.3459 4.53033C47.4043 4.58879 47.4336 4.64725 47.492 4.7057C47.5797 4.82261 47.6674 4.96875 47.7843 5.08567C47.872 5.23181 47.9889 5.34872 48.0766 5.49486C48.0766 5.49486 48.0766 5.49486 48.0766 5.52409C48.135 5.61177 48.1935 5.69945 48.2519 5.78714C48.3689 5.9625 48.4565 6.13787 48.5735 6.31324C48.6319 6.40092 48.6904 6.48861 48.7196 6.57629C48.7488 6.63475 48.8073 6.72243 48.8365 6.78089C48.8365 6.81012 48.8657 6.81012 48.8657 6.83934C48.895 6.86857 48.895 6.8978 48.9242 6.92703C48.9534 6.98548 48.9826 7.04394 49.0119 7.10239C49.0411 7.16085 49.0996 7.24853 49.1288 7.30699C49.1288 7.33622 49.158 7.33622 49.158 7.36545C49.2165 7.45313 49.2457 7.57004 49.3042 7.65773C49.3626 7.74541 49.3918 7.86232 49.4503 7.95001C49.5087 8.03769 49.538 8.1546 49.5964 8.24229C49.6257 8.30074 49.6549 8.32997 49.6549 8.38843C49.6841 8.44688 49.7133 8.47611 49.7133 8.53456C49.7426 8.62225 49.801 8.73916 49.8595 8.82685C49.8887 8.94376 49.9472 9.03144 49.9764 9.14835C50.0641 9.35295 50.1518 9.55754 50.2102 9.76214C50.2395 9.87905 50.2979 9.96674 50.3271 10.0836C50.3564 10.2006 50.4148 10.2882 50.444 10.4052C50.5025 10.5513 50.5317 10.6974 50.5902 10.8436C50.6194 10.9313 50.6486 11.0482 50.6779 11.1359C50.7363 11.3112 50.7948 11.4866 50.8532 11.662C50.9409 11.925 50.9994 12.1881 51.0578 12.4219C51.1163 12.6265 51.1747 12.8311 51.204 13.0357V13.0649C51.2332 13.1818 51.2624 13.2695 51.2917 13.3864C51.3209 13.5033 51.3501 13.591 51.3501 13.7079C51.3501 13.7371 51.3793 13.7664 51.3793 13.8248C51.4086 13.971 51.4378 14.1463 51.467 14.2925C51.467 14.3509 51.4963 14.4094 51.4963 14.4678C51.4963 14.5263 51.5255 14.614 51.5255 14.7017C51.5547 14.877 51.5839 15.0524 51.6132 15.2278C51.6424 15.4616 51.7008 15.6954 51.7301 15.9585V15.9877C51.7593 16.1923 51.7885 16.3969 51.8178 16.6015C51.8178 16.6892 51.847 16.7768 51.847 16.8645C51.8762 17.1276 51.9054 17.3906 51.9347 17.6537C51.9639 17.8583 51.9639 18.0337 51.9931 18.2382C51.9931 18.2675 51.9931 18.2967 51.9931 18.3552C51.9931 18.4428 51.9931 18.5305 52.0224 18.6182C52.0224 18.6767 52.0224 18.7059 52.0224 18.7644C52.0224 18.8228 52.0224 18.8813 52.0224 18.9689C52.0224 19.1151 52.0224 19.232 52.0516 19.3781C52.0516 19.5243 52.0516 19.6412 52.0516 19.7873C52.0516 19.8458 52.0516 19.9335 52.0516 19.9919C52.0516 20.2257 52.0516 20.4596 52.0516 20.6934C52.0516 21.6871 52.0224 22.6517 51.9347 23.587C51.9054 23.8208 51.9054 24.0254 51.8762 24.23C51.8762 24.3177 51.8762 24.4053 51.847 24.4638C51.847 24.5807 51.8178 24.6976 51.8178 24.7853C51.7593 25.3699 51.6716 25.9252 51.5547 26.4805C51.5255 26.6559 51.4962 26.8605 51.4378 27.0359C51.4378 27.0651 51.4086 27.0943 51.4086 27.1528C51.4086 27.1528 51.4086 27.1528 51.4086 27.182C51.3501 27.3866 51.3209 27.4743 51.2624 27.7373C48.0474 25.6037 43.897 24.5807 39.3666 24.5807C34.8363 24.5807 30.4813 25.2822 27.2663 27.3866C27.237 27.2405 27.2955 27.1236 27.2955 27.0066Z" fill="url(#paint2_linear_6448_47173)"/>
<path d="M27.2683 27.3581C21.1304 27.3581 15.314 30.6901 13.2388 34.9574C13.2096 34.5482 13.1804 34.1683 13.1804 33.7591C13.1804 33.4376 13.1512 33.1161 13.1512 32.7945C13.1219 30.1933 13.3265 27.4751 13.8234 24.6984C13.8819 24.3769 13.9403 24.0262 13.9988 23.7047C14.028 23.5001 14.0865 23.3247 14.1157 23.1201C14.2326 22.5648 14.3495 22.0387 14.4956 21.5126C14.5249 21.3956 14.5541 21.2495 14.5833 21.1326C14.6126 20.9572 14.671 20.7819 14.7295 20.6065C14.7295 20.5773 14.7587 20.5188 14.7587 20.4896C14.8172 20.2558 14.9048 19.9927 14.9633 19.7589C15.0218 19.5251 15.1094 19.3205 15.1679 19.0866C15.1971 19.0282 15.2263 18.9405 15.2263 18.882C15.2848 18.6482 15.3725 18.4436 15.4602 18.2098C15.5479 17.9467 15.6355 17.7129 15.7232 17.4499C15.8109 17.216 15.8986 16.9822 15.9863 16.7776C15.9863 16.7484 16.0155 16.6899 16.0155 16.6607C16.1032 16.4269 16.1909 16.1931 16.2786 15.9885C16.3662 15.7546 16.4832 15.4916 16.5708 15.2578C16.7754 14.7901 16.98 14.3225 17.2138 13.8548C17.4477 13.3872 17.6523 12.9488 17.9153 12.5103C18.0322 12.2765 18.1491 12.0719 18.2661 11.8673C18.383 11.6627 18.4999 11.4289 18.646 11.2243C18.7337 11.0489 18.8506 10.8736 18.9675 10.6982C18.9968 10.669 19.026 10.6105 19.0552 10.5521C19.1721 10.3475 19.289 10.1721 19.4059 9.9675C19.5229 9.76291 19.669 9.55831 19.7859 9.38295C19.9321 9.17835 20.049 9.00298 20.1951 8.79839C20.1951 8.76916 20.2243 8.76916 20.2536 8.73993C20.5166 8.3892 20.7797 8.03846 21.0427 7.68772C21.1596 7.54158 21.2765 7.39544 21.3934 7.2493C21.5688 7.04471 21.7442 6.84011 21.9196 6.66474C22.0657 6.48938 22.2118 6.34324 22.358 6.16787C22.5041 5.9925 22.6503 5.84636 22.7964 5.70022C22.9425 5.55408 23.0887 5.40794 23.2348 5.2618C23.2348 5.2618 23.2348 5.2618 23.264 5.2618C23.4102 5.11566 23.5855 4.96952 23.7317 4.82338C23.8778 4.70647 23.9947 4.56033 24.1409 4.47265C24.3162 4.32651 24.4916 4.18037 24.667 4.03423C24.6962 4.005 24.7254 3.97577 24.7547 3.94654C24.7839 3.91732 24.8131 3.88809 24.8716 3.85886C28.0282 1.37448 31.5648 0.205363 35.0137 0.819151C35.2183 0.848379 35.4229 0.906835 35.5982 0.936063C35.2475 1.11143 34.8675 1.31603 34.546 1.54985C34.3999 1.63753 34.283 1.72522 34.1368 1.8129C34.0492 1.87136 33.9615 1.95904 33.8446 2.0175C33.7569 2.07595 33.6692 2.16364 33.5815 2.25132C33.2892 2.48515 33.0262 2.71897 32.7631 2.98202C32.6754 3.0697 32.617 3.12816 32.5293 3.21584C32.3832 3.36198 32.237 3.53735 32.0909 3.71272C32.0324 3.77118 32.0032 3.8004 31.974 3.85886C31.5355 4.35574 31.1264 4.91107 30.7464 5.49563C30.6879 5.58331 30.6295 5.67099 30.571 5.75868C30.4541 5.93405 30.3664 6.10941 30.2495 6.28478C30.1911 6.37247 30.1326 6.46015 30.1034 6.54783C30.0449 6.63552 30.0157 6.7232 29.9572 6.81088C29.8988 6.89857 29.8403 6.98625 29.8111 7.10316C29.7526 7.19085 29.7234 7.27853 29.665 7.36622C29.6065 7.4539 29.548 7.57081 29.5188 7.6585C29.4604 7.74618 29.4311 7.86309 29.3727 7.95078C29.3435 8.03846 29.285 8.15537 29.2265 8.24306C29.1681 8.33074 29.1389 8.44765 29.0804 8.53534C29.0219 8.62302 28.9927 8.73993 28.9343 8.82761C28.905 8.94453 28.8466 9.03221 28.8173 9.14912C28.7297 9.35372 28.642 9.55831 28.5835 9.76291C28.4958 9.96751 28.4374 10.1721 28.3497 10.4059C28.262 10.6105 28.2036 10.8443 28.1159 11.0489C28.0574 11.2535 27.9697 11.4581 27.9113 11.6627C27.8236 11.9258 27.7651 12.1888 27.7067 12.4227C27.6482 12.6273 27.5898 12.8318 27.5606 13.0364V13.0657C27.5021 13.2703 27.4729 13.5041 27.4144 13.7087C27.4144 13.7379 27.3852 13.7671 27.3852 13.8256C27.356 13.9717 27.3267 14.1471 27.2975 14.2932C27.2975 14.3517 27.2683 14.4102 27.2683 14.4686C27.2683 14.5271 27.239 14.6148 27.239 14.7024C27.2098 14.8778 27.1806 15.0532 27.1514 15.2285C27.1221 15.4624 27.0637 15.6962 27.0344 15.9592V15.9885C27.0052 16.1931 26.976 16.3977 26.9468 16.6023C26.9468 16.6899 26.9175 16.7776 26.9175 16.8653C26.8883 17.1284 26.8591 17.3914 26.8299 17.6545C26.8006 17.8591 26.8006 18.0344 26.7714 18.239C26.7714 18.2682 26.7714 18.2975 26.7714 18.3559C26.7714 18.5021 26.7422 18.619 26.7422 18.7651C26.7422 18.9697 26.7129 19.1451 26.7129 19.3497C26.7129 19.4958 26.7129 19.6127 26.7129 19.7589C26.7129 19.8173 26.7129 19.905 26.7129 19.9635C26.7129 20.1973 26.7129 20.4311 26.7129 20.6649C26.7129 21.6587 26.7422 22.6232 26.8299 23.5585C26.8591 23.7923 26.8591 23.9969 26.8883 24.2015C26.8883 24.2892 26.9175 24.3769 26.9175 24.4354C26.9175 24.5523 26.9468 24.6692 26.9468 24.7569C27.0344 25.5168 27.1514 26.2767 27.2975 27.0074C27.2975 27.1243 27.239 27.2412 27.2683 27.3581C27.2683 27.3289 27.2683 27.3289 27.2683 27.3581C27.2683 27.3289 27.2683 27.3289 27.2683 27.3289C27.239 27.3289 27.2683 27.3289 27.2683 27.3581C27.239 27.3581 27.239 27.3581 27.2098 27.3581C27.2098 27.3581 27.239 27.3581 27.2683 27.3581Z" fill="url(#paint3_linear_6448_47173)"/>
<path d="M13.1793 33.7283C13.2085 34.1375 13.2085 34.5174 13.2377 34.9266C12.9162 34.8974 12.624 34.8974 12.3024 34.8974C8.3859 34.8974 5.11237 37.0603 4.35244 39.9538C3.53406 34.8974 4.11862 28.7887 6.33995 22.6509C10.2273 12.0119 17.8265 4.58798 24.8412 3.79883C24.812 3.82806 24.7828 3.85728 24.7536 3.88651C24.7243 3.91574 24.6951 3.94497 24.6659 3.9742C24.4905 4.12034 24.3151 4.26648 24.1398 4.41261C23.9936 4.52953 23.8767 4.64644 23.7306 4.76335C23.5844 4.90949 23.4091 5.05563 23.2629 5.20177C23.2629 5.20177 23.2629 5.20177 23.2337 5.20177C23.0876 5.34791 22.9414 5.49405 22.7953 5.64019C22.6492 5.78633 22.503 5.9617 22.3569 6.10784C22.2107 6.25398 22.0646 6.42934 21.9185 6.60471C21.7431 6.80931 21.5677 7.0139 21.3923 7.18927C21.2754 7.33541 21.1585 7.48155 21.0416 7.62769C20.7786 7.97843 20.5155 8.32916 20.2525 8.6799C20.2525 8.70913 20.2232 8.70913 20.194 8.73835C20.0479 8.91372 19.9309 9.11832 19.7848 9.32291C19.6387 9.52751 19.5218 9.70288 19.4048 9.90747C19.2879 10.0828 19.171 10.2874 19.0541 10.492C19.0249 10.5505 18.9957 10.5797 18.9664 10.6382C18.8495 10.8135 18.7618 10.9889 18.6449 11.1643C18.528 11.3689 18.4111 11.5735 18.265 11.8073C18.148 12.0119 18.0311 12.2457 17.9142 12.4503C17.6804 12.8887 17.4466 13.3564 17.2127 13.7948C16.9789 14.2624 16.7743 14.7301 16.5697 15.1977C16.4528 15.4316 16.3651 15.6654 16.2775 15.9284C16.1898 16.1623 16.1021 16.3961 16.0144 16.6007C16.0144 16.6299 15.9852 16.6884 15.9852 16.7176C15.8975 16.9514 15.8098 17.1852 15.7221 17.3898C15.6344 17.6529 15.5468 17.8867 15.4591 18.1498C15.3714 18.3836 15.3129 18.5882 15.2252 18.822C15.196 18.8805 15.1668 18.9681 15.1668 19.0266C15.1083 19.2604 15.0207 19.465 14.9622 19.6988C14.9037 19.9327 14.8161 20.1957 14.7576 20.4295C14.7576 20.4588 14.7284 20.5172 14.7284 20.5465C14.6699 20.7218 14.6407 20.8972 14.5822 21.0726C14.553 21.1895 14.5238 21.3356 14.4945 21.4525C14.3484 21.9786 14.2315 22.5047 14.1146 23.0601C14.0854 23.2354 14.0269 23.44 13.9977 23.6446C13.9392 23.9661 13.8808 24.2876 13.8223 24.6384C13.3254 27.415 13.1208 30.1332 13.1501 32.7345C13.1501 33.0853 13.1501 33.4068 13.1793 33.7283Z" fill="url(#paint4_linear_6448_47173)"/>
<path d="M15.2536 32.1211C14.406 32.9979 13.7045 33.9332 13.2369 34.927C12.9446 34.8978 12.6231 34.8978 12.3016 34.8978C8.38502 34.8978 5.11149 37.0606 4.35156 39.9542C5.11149 42.8478 8.38502 45.0399 12.3016 45.0399C12.5938 45.0399 12.8861 45.0106 13.1784 45.0106C13.12 43.7538 13.0615 38.6097 15.2536 32.1211Z" fill="url(#paint5_linear_6448_47173)"/>
<path d="M66.4305 34.8976C66.109 34.8976 65.8167 34.8976 65.4952 34.9268C64.9983 33.9039 64.2968 32.9393 63.4492 32.0625C65.6705 38.5511 65.6121 43.7245 65.5536 44.9813C65.8459 45.0105 66.1382 45.0105 66.4305 45.0105C70.347 45.0105 73.6205 42.8184 74.3805 39.9248C73.6205 37.0605 70.347 34.8976 66.4305 34.8976Z" fill="url(#paint6_linear_6448_47173)"/>
<path d="M49.6578 26.7721C46.7058 25.2815 43.1692 24.5508 39.3696 24.5508C35.7161 24.5508 32.1795 24.9892 29.2567 26.2752C24.814 38.0833 26.3923 48.3423 27.3861 52.6681C30.5719 54.714 34.8977 55.3863 39.3696 55.3863C43.8999 55.3863 48.0795 54.3341 51.2654 52.2297C51.3238 52.2297 51.3823 52.2297 51.4407 52.2297C52.4345 47.7578 53.7205 37.9956 49.6578 26.7721Z" fill="url(#paint7_linear_6448_47173)"/>
<path d="M63.4539 32.0929C60.8234 29.4332 56.7022 27.7087 52.055 27.7087C51.8211 27.7087 51.5289 27.7087 51.295 27.7087C50.7689 27.358 50.2428 27.0657 49.6875 26.7734C53.7502 37.997 52.4642 47.7591 51.4704 52.231C51.675 52.231 51.8796 52.231 52.0842 52.231C58.2221 52.231 63.4831 49.2205 65.5291 44.9825C65.5583 44.9825 65.5583 44.9825 65.5875 44.9825C65.6168 43.7549 65.6752 38.5815 63.4539 32.0929Z" fill="url(#paint8_linear_6448_47173)"/>
<path d="M29.2564 26.2754C28.5549 26.5969 27.8827 26.9476 27.2689 27.3568C27.3274 27.3568 27.3858 27.3568 27.2689 27.3568C27.2689 27.3568 27.2689 27.3568 27.2689 27.3861C27.2689 27.3861 27.2689 27.3861 27.2689 27.3568C22.5632 27.3568 18.0621 29.3151 15.2854 32.1502C13.0933 38.6096 13.1518 43.7829 13.2102 45.0105C13.2395 45.0105 13.2395 45.0105 13.2687 45.0105C15.3147 49.2486 21.131 52.5806 27.2981 52.5806C27.2981 52.5513 27.2981 52.5513 27.2981 52.5513C27.2981 52.5513 27.2981 52.5513 27.2981 52.5806C27.2981 52.5806 27.2981 52.5806 27.2981 52.6098C27.415 52.6098 27.3566 52.6098 27.2981 52.6098C27.3274 52.639 27.3858 52.6682 27.415 52.6975C26.3921 48.3425 24.843 38.0835 29.2564 26.2754ZM27.2689 27.3861C27.2689 27.3861 27.2689 27.4153 27.2689 27.3861C27.2689 27.4153 27.2689 27.3861 27.2689 27.3861Z" fill="url(#paint9_linear_6448_47173)"/>
<path d="M65.4986 35.5109C65.1771 35.5109 64.9141 35.2479 64.9141 34.9264C64.9141 34.6048 65.1771 34.3418 65.4986 34.3418C65.8201 34.3418 66.0832 34.6048 66.0832 34.9264C66.0832 35.2771 65.8201 35.5109 65.4986 35.5109ZM65.4986 34.6341C65.3233 34.6341 65.2063 34.751 65.2063 34.9264C65.2063 35.1017 65.3233 35.2186 65.4986 35.2186C65.674 35.2186 65.7909 35.1017 65.7909 34.9264C65.7909 34.7802 65.674 34.6341 65.4986 34.6341Z" fill="#6A6A6A"/>
<path d="M51.2642 28.2922C50.9427 28.2922 50.6797 28.0291 50.6797 27.7076C50.6797 27.3861 50.9427 27.123 51.2642 27.123C51.5858 27.123 51.8488 27.3861 51.8488 27.7076C51.8488 28.0291 51.5858 28.2922 51.2642 28.2922ZM51.2642 27.4153C51.0889 27.4153 50.972 27.5322 50.972 27.7076C50.972 27.883 51.0889 27.9999 51.2642 27.9999C51.4396 27.9999 51.5565 27.883 51.5565 27.7076C51.5565 27.5322 51.4396 27.4153 51.2642 27.4153Z" fill="#6A6A6A"/>
<path d="M27.2682 27.9426C26.9466 27.9426 26.6836 27.6795 26.6836 27.358C26.6836 27.0365 26.9466 26.7734 27.2682 26.7734C27.5897 26.7734 27.8527 27.0365 27.8527 27.358C27.8527 27.6795 27.5897 27.9426 27.2682 27.9426ZM27.2682 27.0657C27.0928 27.0657 26.9759 27.1826 26.9759 27.358C26.9759 27.5334 27.0928 27.6503 27.2682 27.6503C27.4435 27.6503 27.5604 27.5334 27.5604 27.358C27.5604 27.1826 27.4143 27.0657 27.2682 27.0657Z" fill="#6A6A6A"/>
<path d="M13.2369 35.5109C12.9154 35.5109 12.6523 35.2479 12.6523 34.9264C12.6523 34.6048 12.9154 34.3418 13.2369 34.3418C13.5584 34.3418 13.8215 34.6048 13.8215 34.9264C13.8215 35.2771 13.5584 35.5109 13.2369 35.5109ZM13.2369 34.6341C13.0615 34.6341 12.9446 34.751 12.9446 34.9264C12.9446 35.1017 13.0615 35.2186 13.2369 35.2186C13.4123 35.2186 13.5292 35.1017 13.5292 34.9264C13.5292 34.7802 13.4123 34.6341 13.2369 34.6341Z" fill="#6A6A6A"/>
<path d="M13.1783 45.5969C12.8568 45.5969 12.5938 45.3338 12.5938 45.0123C12.5938 44.6908 12.8568 44.4277 13.1783 44.4277C13.4998 44.4277 13.7629 44.6908 13.7629 45.0123C13.7629 45.3338 13.4998 45.5969 13.1783 45.5969ZM13.1783 44.72C13.0029 44.72 12.886 44.8369 12.886 45.0123C12.886 45.1877 13.0029 45.3046 13.1783 45.3046C13.3537 45.3046 13.4706 45.1877 13.4706 45.0123C13.4706 44.8369 13.3537 44.72 13.1783 44.72Z" fill="#6A6A6A"/>
<path d="M27.2682 53.1359C26.9466 53.1359 26.6836 52.8729 26.6836 52.5514C26.6836 52.2298 26.9466 51.9668 27.2682 51.9668C27.5897 51.9668 27.8527 52.2298 27.8527 52.5514C27.8527 52.9021 27.5897 53.1359 27.2682 53.1359ZM27.2682 52.2591C27.0928 52.2591 26.9759 52.376 26.9759 52.5514C26.9759 52.7267 27.0928 52.8436 27.2682 52.8436C27.4435 52.8436 27.5604 52.7267 27.5604 52.5514C27.5604 52.4052 27.4143 52.2591 27.2682 52.2591Z" fill="#6A6A6A"/>
<path d="M51.4361 52.8156C51.1146 52.8156 50.8516 52.5526 50.8516 52.231C50.8516 51.9095 51.1146 51.6465 51.4361 51.6465C51.7576 51.6465 52.0207 51.9095 52.0207 52.231C52.0207 52.5526 51.7576 52.8156 51.4361 52.8156ZM51.4361 51.9388C51.2608 51.9388 51.1438 52.0557 51.1438 52.231C51.1438 52.4064 51.2608 52.5233 51.4361 52.5233C51.6115 52.5233 51.7284 52.4064 51.7284 52.231C51.7284 52.0849 51.5823 51.9388 51.4361 51.9388Z" fill="#6A6A6A"/>
<path d="M65.5533 45.5969C65.2318 45.5969 64.9688 45.3338 64.9688 45.0123C64.9688 44.6908 65.2318 44.4277 65.5533 44.4277C65.8748 44.4277 66.1379 44.6908 66.1379 45.0123C66.1379 45.3338 65.8748 45.5969 65.5533 45.5969ZM65.5533 44.72C65.3779 44.72 65.261 44.8369 65.261 45.0123C65.261 45.1877 65.3779 45.3046 65.5533 45.3046C65.7287 45.3046 65.8456 45.1877 65.8456 45.0123C65.8456 44.8369 65.6994 44.72 65.5533 44.72Z" fill="#6A6A6A"/>
<path d="M39.5424 82.5688C39.5132 82.5688 39.484 82.5688 39.484 82.5396C39.4255 82.5103 39.3963 82.4227 39.4255 82.335L65.38 34.8687C65.4092 34.8103 65.4969 34.7811 65.5846 34.8103C65.643 34.8395 65.6722 34.9272 65.643 35.0149L39.6886 82.5103C39.6594 82.5396 39.6009 82.5688 39.5424 82.5688Z" fill="url(#paint10_linear_6448_47173)"/>
<path d="M39.5429 82.5687C39.4845 82.5687 39.4552 82.5395 39.426 82.481L13.1208 34.9856C13.0916 34.9271 13.1208 34.8395 13.1793 34.781C13.2378 34.7518 13.3254 34.781 13.3839 34.8395L39.6891 82.3349C39.7183 82.3934 39.6891 82.481 39.6306 82.5395C39.6014 82.5687 39.5722 82.5687 39.5429 82.5687Z" fill="url(#paint11_linear_6448_47173)"/>
<path d="M39.5446 82.5677H39.5153C39.4277 82.5385 39.3984 82.48 39.3984 82.3923L51.1189 27.7361C51.1481 27.6484 51.2065 27.6191 51.2942 27.6191C51.3819 27.6484 51.4111 27.7068 51.4111 27.7945L39.6907 82.4508C39.6907 82.5385 39.6323 82.5677 39.5446 82.5677Z" fill="url(#paint12_linear_6448_47173)"/>
<path d="M39.5428 82.5685C39.4843 82.5685 39.4259 82.51 39.3966 82.4516L27.1209 27.3861C27.0917 27.2984 27.1501 27.24 27.2378 27.2107C27.3255 27.1815 27.3839 27.24 27.4132 27.3276L39.6889 82.3931C39.7181 82.4808 39.6597 82.5393 39.572 82.5685C39.572 82.5685 39.572 82.5685 39.5428 82.5685Z" fill="url(#paint13_linear_6448_47173)"/>
<path d="M39.5433 82.568C39.5141 82.568 39.4849 82.568 39.4556 82.5387C39.3972 82.4803 39.3679 82.3926 39.4264 82.3341L65.4101 44.8931C65.4685 44.8347 65.5562 44.8054 65.6146 44.8639C65.6731 44.9224 65.7023 45.01 65.6439 45.0685L39.6602 82.5095C39.631 82.5387 39.6018 82.568 39.5433 82.568Z" fill="url(#paint14_linear_6448_47173)"/>
<path d="M39.5438 82.568C39.5146 82.568 39.5146 82.568 39.4854 82.568C39.3977 82.5388 39.3685 82.4511 39.3977 82.3926L51.2935 52.1709C51.3227 52.0832 51.4104 52.054 51.4688 52.0832C51.5565 52.1125 51.5857 52.2001 51.5565 52.2586L39.6607 82.4511C39.6607 82.5388 39.6023 82.568 39.5438 82.568Z" fill="url(#paint15_linear_6448_47173)"/>
<path d="M39.5422 82.5687C39.4838 82.5687 39.4253 82.5395 39.3961 82.4811L27.1203 52.6101C27.0911 52.5224 27.1203 52.4639 27.208 52.4055C27.2957 52.3763 27.3542 52.4055 27.4126 52.4932L39.6884 82.3641C39.7176 82.4518 39.6884 82.5103 39.6007 82.5687C39.6007 82.5687 39.5714 82.5687 39.5422 82.5687Z" fill="url(#paint16_linear_6448_47173)"/>
<path d="M39.5397 82.568C39.4813 82.568 39.4521 82.5387 39.4228 82.5095L13.0592 45.0685C13.0008 45.01 13.03 44.9224 13.0884 44.8639C13.1469 44.8054 13.2346 44.8347 13.293 44.8931L39.6567 82.3341C39.7151 82.3926 39.6859 82.4803 39.6274 82.5387C39.5982 82.568 39.569 82.568 39.5397 82.568Z" fill="url(#paint17_linear_6448_47173)"/>
<path d="M45.7706 76.4902L53.3406 82.102L53.1945 101.714L45.3906 97.5051L45.7706 76.4902Z" fill="url(#paint18_linear_6448_47173)"/>
<path d="M53.192 101.715L45.0082 102.299H44.9789L41.5885 102.533L34.9537 103.001L26.0977 99.3764L36.6782 98.3535L37.7888 98.2366H37.8181L45.3881 97.5059L53.192 101.715Z" fill="#BFAB8C"/>
<path d="M26.0977 99.405L27.0037 79.2377L45.7681 76.4902L45.3881 97.5051L26.0977 99.405Z" fill="#FFE4BB"/>
<path d="M45.3906 97.5039C45.3906 97.5039 45.8875 97.767 46.6182 98.1469C47.3489 98.5269 48.3426 99.053 49.3072 99.5791C50.2717 100.105 51.2654 100.631 51.9961 101.04C52.7268 101.45 53.1945 101.713 53.1945 101.713C53.1945 101.713 52.6976 101.45 51.9669 101.07C51.2362 100.69 50.2425 100.164 49.2779 99.6375C48.3134 99.1114 47.3197 98.5853 46.589 98.1761C45.8583 97.767 45.3906 97.5039 45.3906 97.5039Z" fill="#B6B6B6"/>
<path d="M45.3906 97.5052C45.3906 97.5052 45.4199 96.19 45.4199 94.2317C45.4491 92.2734 45.5075 89.6429 45.5368 87.0124C45.5952 84.3819 45.6537 81.7513 45.6829 79.7931C45.7414 77.8348 45.7706 76.5195 45.7706 76.5195C45.7706 76.5195 45.7414 77.8348 45.7414 79.7931C45.7121 81.7513 45.6537 84.3819 45.6244 87.0124C45.566 89.6429 45.5075 92.2734 45.4783 94.2317C45.4198 96.19 45.3906 97.5052 45.3906 97.5052Z" fill="#F2F2F2"/>
<path d="M45.3881 97.5039C45.3881 97.5039 44.1898 97.6208 42.3776 97.8254C40.5655 98.0008 38.1688 98.2346 35.7429 98.4977C33.3462 98.7315 30.9203 98.9653 29.1081 99.1407C27.296 99.316 26.0977 99.4037 26.0977 99.4037C26.0977 99.4037 27.296 99.2868 29.1081 99.0822C30.9203 98.9068 33.317 98.673 35.7429 98.41C38.1396 98.1762 40.5655 97.9423 42.3776 97.767C44.1605 97.6208 45.3881 97.5039 45.3881 97.5039Z" fill="#F2F2F2"/>
<path d="M33.7266 98.6458L33.8727 78.2447L37.8769 77.6602L37.8185 98.2366L33.7266 98.6458Z" fill="#C9AA7B"/>
<path d="M45.0086 102.299H44.9793L41.5889 102.533L33.7266 98.6455L36.6786 98.3532L37.7893 98.2363H37.8185L45.0086 102.299Z" fill="#97805C"/>
<g filter="url(#filter1_i_6448_47173)">
<ellipse cx="36.3983" cy="87.9445" rx="4.45527" ry="4.29026" transform="rotate(-4.59975 36.3983 87.9445)" fill="url(#paint19_linear_6448_47173)"/>
<ellipse cx="36.3983" cy="87.9445" rx="4.45527" ry="4.29026" transform="rotate(-4.59975 36.3983 87.9445)" fill="black" fill-opacity="0.05"/>
</g>
<path d="M35.6705 85.4213L35.9447 85.4354L35.7229 90.1418L34.5477 90.0814C34.5477 90.0814 35.4627 89.831 35.6705 85.4213Z" fill="white"/>
<path d="M36.9262 85.4867L36.6523 85.4727L36.4305 90.1791L37.6057 90.2395C37.6057 90.2395 36.7184 89.8964 36.9262 85.4867Z" fill="white"/>
</g>
<defs>
<filter id="filter0_d_6448_47173" x="0" y="0" width="78.7188" height="111" filterUnits="userSpaceOnUse" color-interpolation-filters="sRGB">
<feFlood flood-opacity="0" result="BackgroundImageFix"/>
<feColorMatrix in="SourceAlpha" type="matrix" values="0 0 0 0 0 0 0 0 0 0 0 0 0 0 0 0 0 0 127 0" result="hardAlpha"/>
<feOffset dy="4"/>
<feGaussianBlur stdDeviation="2"/>
<feComposite in2="hardAlpha" operator="out"/>
<feColorMatrix type="matrix" values="0 0 0 0 0 0 0 0 0 0 0 0 0 0 0 0 0 0 0.25 0"/>
<feBlend mode="normal" in2="BackgroundImageFix" result="effect1_dropShadow_6448_47173"/>
<feBlend mode="normal" in="SourceGraphic" in2="effect1_dropShadow_6448_47173" result="shape"/>
</filter>
<filter id="filter1_i_6448_47173" x="31.9453" y="83.6523" width="8.90625" height="12.584" filterUnits="userSpaceOnUse" color-interpolation-filters="sRGB">
<feFlood flood-opacity="0" result="BackgroundImageFix"/>
<feBlend mode="normal" in="SourceGraphic" in2="BackgroundImageFix" result="shape"/>
<feColorMatrix in="SourceAlpha" type="matrix" values="0 0 0 0 0 0 0 0 0 0 0 0 0 0 0 0 0 0 127 0" result="hardAlpha"/>
<feOffset dy="4"/>
<feGaussianBlur stdDeviation="2"/>
<feComposite in2="hardAlpha" operator="arithmetic" k2="-1" k3="1"/>
<feColorMatrix type="matrix" values="0 0 0 0 0 0 0 0 0 0 0 0 0 0 0 0 0 0 0.25 0"/>
<feBlend mode="normal" in2="shape" result="effect1_innerShadow_6448_47173"/>
</filter>
<linearGradient id="paint0_linear_6448_47173" x1="43.1368" y1="17.7759" x2="65.6002" y2="17.7759" gradientUnits="userSpaceOnUse">
<stop stop-color="#D7D7D7"/>
<stop offset="0.0725913" stop-color="#DBDBDB"/>
<stop offset="0.6449" stop-color="#F2F2F2"/>
<stop offset="1" stop-color="#FBFBFB"/>
</linearGradient>
<linearGradient id="paint1_linear_6448_47173" x1="53.8717" y1="21.8907" x2="74.7301" y2="21.8907" gradientUnits="userSpaceOnUse">
<stop stop-color="#3491E3"/>
<stop offset="1" stop-color="#54B6FF"/>
</linearGradient>
<linearGradient id="paint2_linear_6448_47173" x1="26.661" y1="13.8391" x2="52.0717" y2="13.8391" gradientUnits="userSpaceOnUse">
<stop stop-color="#3491E3"/>
<stop offset="1" stop-color="#54B6FF"/>
</linearGradient>
<linearGradient id="paint3_linear_6448_47173" x1="13.1342" y1="17.776" x2="35.601" y2="17.776" gradientUnits="userSpaceOnUse">
<stop stop-color="#D7D7D7"/>
<stop offset="0.0725913" stop-color="#DBDBDB"/>
<stop offset="0.6449" stop-color="#F2F2F2"/>
<stop offset="1" stop-color="#FBFBFB"/>
</linearGradient>
<linearGradient id="paint4_linear_6448_47173" x1="4.00367" y1="21.8906" x2="24.8614" y2="21.8906" gradientUnits="userSpaceOnUse">
<stop stop-color="#3491E3"/>
<stop offset="1" stop-color="#54B6FF"/>
</linearGradient>
<linearGradient id="paint5_linear_6448_47173" x1="4.36305" y1="38.5853" x2="15.2647" y2="38.5853" gradientUnits="userSpaceOnUse">
<stop stop-color="#2978C9"/>
<stop offset="1" stop-color="#2266A9"/>
</linearGradient>
<linearGradient id="paint6_linear_6448_47173" x1="63.4485" y1="38.5579" x2="74.369" y2="38.5579" gradientUnits="userSpaceOnUse">
<stop stop-color="#2978C9"/>
<stop offset="1" stop-color="#2266A9"/>
</linearGradient>
<linearGradient id="paint7_linear_6448_47173" x1="26.2858" y1="39.9667" x2="52.453" y2="39.9667" gradientUnits="userSpaceOnUse">
<stop stop-color="#2978C9"/>
<stop offset="1" stop-color="#2266A9"/>
</linearGradient>
<linearGradient id="paint8_linear_6448_47173" x1="62.4495" y1="47.851" x2="45.4972" y2="28.5603" gradientUnits="userSpaceOnUse">
<stop offset="0.1989" stop-color="#B4B4B4"/>
<stop offset="0.3404" stop-color="#AFAFAF"/>
<stop offset="0.5111" stop-color="#A0A0A0"/>
<stop offset="0.6968" stop-color="#888888"/>
<stop offset="0.892" stop-color="#666666"/>
<stop offset="1" stop-color="#505050"/>
</linearGradient>
<linearGradient id="paint9_linear_6448_47173" x1="8.76055" y1="57.7904" x2="40.0344" y2="19.5019" gradientUnits="userSpaceOnUse">
<stop offset="0.1989" stop-color="#B4B4B4"/>
<stop offset="0.3404" stop-color="#AFAFAF"/>
<stop offset="0.5111" stop-color="#A0A0A0"/>
<stop offset="0.6968" stop-color="#888888"/>
<stop offset="0.892" stop-color="#666666"/>
<stop offset="1" stop-color="#505050"/>
</linearGradient>
<linearGradient id="paint10_linear_6448_47173" x1="52.5242" y1="82.5745" x2="52.5242" y2="34.7953" gradientUnits="userSpaceOnUse">
<stop stop-color="#808080"/>
<stop offset="1" stop-color="#CCCCCC"/>
</linearGradient>
<linearGradient id="paint11_linear_6448_47173" x1="26.3949" y1="82.5744" x2="26.3949" y2="34.7952" gradientUnits="userSpaceOnUse">
<stop stop-color="#808080"/>
<stop offset="1" stop-color="#CCCCCC"/>
</linearGradient>
<linearGradient id="paint12_linear_6448_47173" x1="45.4123" y1="82.5734" x2="45.4123" y2="27.6182" gradientUnits="userSpaceOnUse">
<stop stop-color="#808080"/>
<stop offset="1" stop-color="#CCCCCC"/>
</linearGradient>
<linearGradient id="paint13_linear_6448_47173" x1="33.4095" y1="82.5742" x2="33.4095" y2="27.2046" gradientUnits="userSpaceOnUse">
<stop stop-color="#808080"/>
<stop offset="1" stop-color="#CCCCCC"/>
</linearGradient>
<linearGradient id="paint14_linear_6448_47173" x1="52.5512" y1="82.5737" x2="52.5512" y2="44.8493" gradientUnits="userSpaceOnUse">
<stop stop-color="#808080"/>
<stop offset="1" stop-color="#CCCCCC"/>
</linearGradient>
<linearGradient id="paint15_linear_6448_47173" x1="45.4945" y1="82.5737" x2="45.4945" y2="52.0847" gradientUnits="userSpaceOnUse">
<stop stop-color="#808080"/>
<stop offset="1" stop-color="#CCCCCC"/>
</linearGradient>
<linearGradient id="paint16_linear_6448_47173" x1="33.409" y1="82.5744" x2="33.409" y2="52.4112" gradientUnits="userSpaceOnUse">
<stop stop-color="#808080"/>
<stop offset="1" stop-color="#CCCCCC"/>
</linearGradient>
<linearGradient id="paint17_linear_6448_47173" x1="26.3659" y1="82.5737" x2="26.3659" y2="44.8498" gradientUnits="userSpaceOnUse">
<stop stop-color="#808080"/>
<stop offset="1" stop-color="#CCCCCC"/>
</linearGradient>
<linearGradient id="paint18_linear_6448_47173" x1="43.5726" y1="94.7249" x2="53.9402" y2="84.8534" gradientUnits="userSpaceOnUse">
<stop stop-color="#E6CDA8"/>
<stop offset="1" stop-color="#C9AA7B"/>
</linearGradient>
<linearGradient id="paint19_linear_6448_47173" x1="31.8091" y1="83.6543" x2="41.0468" y2="83.8677" gradientUnits="userSpaceOnUse">
<stop stop-color="#0096F2"/>
<stop offset="1" stop-color="#7AE6F4"/>
</linearGradient>
</defs>
</svg>
