<svg width="20" height="20" viewBox="0 0 20 20" fill="none" xmlns="http://www.w3.org/2000/svg">
<path d="M10.125 13.75V15.5" stroke="white" stroke-width="1.2" stroke-linecap="round" stroke-linejoin="round"/>
<path d="M5.95703 18.334H14.2904V17.5007C14.2904 16.584 13.5404 15.834 12.6237 15.834H7.6237C6.70703 15.834 5.95703 16.584 5.95703 17.5007V18.334V18.334Z" stroke="white" stroke-width="1.2" stroke-miterlimit="10"/>
<path d="M5.125 18.334H15.125" stroke="white" stroke-width="1.2" stroke-linecap="round" stroke-linejoin="round"/>
<path d="M10.0013 13.3327C6.7763 13.3327 4.16797 10.7243 4.16797 7.49935V4.99935C4.16797 3.15768 5.65964 1.66602 7.5013 1.66602H12.5013C14.343 1.66602 15.8346 3.15768 15.8346 4.99935V7.49935C15.8346 10.7243 13.2263 13.3327 10.0013 13.3327Z" stroke="white" stroke-width="1.2" stroke-linecap="round" stroke-linejoin="round"/>
<path d="M4.55755 9.70833C3.93255 9.50833 3.38255 9.14167 2.94922 8.70833C2.19922 7.875 1.69922 6.875 1.69922 5.70833C1.69922 4.54167 2.61589 3.625 3.78255 3.625H4.32422C4.15755 4.00833 4.07422 4.43333 4.07422 4.875V7.375C4.07422 8.20833 4.24922 8.99167 4.55755 9.70833Z" stroke="white" stroke-width="1.2" stroke-linecap="round" stroke-linejoin="round"/>
<path d="M15.4414 9.70833C16.0664 9.50833 16.6164 9.14167 17.0497 8.70833C17.7997 7.875 18.2997 6.875 18.2997 5.70833C18.2997 4.54167 17.3831 3.625 16.2164 3.625H15.6747C15.8414 4.00833 15.9247 4.43333 15.9247 4.875V7.375C15.9247 8.20833 15.7497 8.99167 15.4414 9.70833Z" stroke="white" stroke-width="1.2" stroke-linecap="round" stroke-linejoin="round"/>
</svg>
