<svg xmlns="http://www.w3.org/2000/svg" viewBox="0 0 963.27 135.62"><defs><style>.cls-1{fill:#e6e6e6;}.cls-2{fill:#0096f2;}</style></defs><g id="Layer_2" data-name="Layer 2"><g id="Layer_1-2" data-name="Layer 1"><path class="cls-1" d="M80.9,134.25,52.35,91.6h-23v42.65H0V1H60.92q23.79,0,37,11.61T111.17,45v.38q0,16.17-7.9,26.36a45.8,45.8,0,0,1-20.65,15l32.55,47.59Zm.58-87.76q0-9.52-6.1-14.28T58.44,27.45H29.32V65.72H59q10.86,0,16.66-5.15t5.81-13.7Z"/><path class="cls-1" d="M259.07,94.13a67.68,67.68,0,0,1-14.88,21.54,69.32,69.32,0,0,1-22.65,14.62,75.8,75.8,0,0,1-28.7,5.33,75,75,0,0,1-28.61-5.33,71.39,71.39,0,0,1-22.56-14.43,64.46,64.46,0,0,1-14.78-21.35,65.89,65.89,0,0,1-5.28-26.32v-.38A64.78,64.78,0,0,1,127,41.49,67.93,67.93,0,0,1,141.86,20,69.5,69.5,0,0,1,164.52,5.34a79.55,79.55,0,0,1,57.31,0,71.38,71.38,0,0,1,22.55,14.42,64.63,64.63,0,0,1,14.79,21.36,65.86,65.86,0,0,1,5.28,26.32v.37A64.91,64.91,0,0,1,259.07,94.13ZM233.54,67.81a42.82,42.82,0,0,0-3-15.92,39.36,39.36,0,0,0-8.45-13.11A40.39,40.39,0,0,0,192.84,26.6a41,41,0,0,0-16.42,3.19,37.41,37.41,0,0,0-12.67,8.8,41.55,41.55,0,0,0-8.26,13,42.09,42.09,0,0,0-3,15.83v.37a42.78,42.78,0,0,0,3,15.92,39.56,39.56,0,0,0,8.45,13.12,41.12,41.12,0,0,0,12.87,8.9A40.07,40.07,0,0,0,193.22,109a41.31,41.31,0,0,0,16.32-3.18A37.47,37.47,0,0,0,222.31,97a41.52,41.52,0,0,0,8.25-13,42.13,42.13,0,0,0,3-15.83Z"/><path class="cls-1" d="M390,113.69a31,31,0,0,1-10.07,11.42A47.24,47.24,0,0,1,364.12,132a85.15,85.15,0,0,1-20.43,2.29H280.4V1h61.76q20.52,0,32.21,9.33t11.69,25.13v.38a33,33,0,0,1-1.42,10.09,31.56,31.56,0,0,1-3.79,7.9A29.81,29.81,0,0,1,375.37,60a36.47,36.47,0,0,1-6.71,4.57q11.55,4.38,18.19,11.9t6.63,20.85v.38A34.51,34.51,0,0,1,390,113.69ZM357.12,40.4q0-6.66-4.95-10.19t-14.28-3.52H309V54.86h27q9.7,0,15.42-3.33t5.71-10.75Zm7.42,53.3a12.58,12.58,0,0,0-5.14-10.57q-5.13-3.9-16.56-3.9H309v29.32H343.8q9.7,0,15.22-3.53t5.52-10.94Z"/><path class="cls-1" d="M538.11,94.13a67.32,67.32,0,0,1-36.87,36.16,73.26,73.26,0,0,1-28.19,5.33,72.58,72.58,0,0,1-28.1-5.33,69.81,69.81,0,0,1-22.15-14.43,64.38,64.38,0,0,1-14.53-21.35,66.88,66.88,0,0,1-5.18-26.32v-.38a65.89,65.89,0,0,1,5.28-26.32A67.26,67.26,0,0,1,445.24,5.34a76.84,76.84,0,0,1,56.29,0,70,70,0,0,1,22.15,14.42A64.35,64.35,0,0,1,538.2,41.12a66.85,66.85,0,0,1,5.19,26.32v.37A65.86,65.86,0,0,1,538.11,94.13ZM513,67.81a43.6,43.6,0,0,0-2.92-15.92,39.44,39.44,0,0,0-21-22,39,39,0,0,0-16-3.28,39.58,39.58,0,0,0-16.12,3.19,36.81,36.81,0,0,0-12.45,8.8,41.51,41.51,0,0,0-8.11,13,42.65,42.65,0,0,0-2.92,15.83v.37a43.36,43.36,0,0,0,2.92,15.92,39.65,39.65,0,0,0,8.3,13.12,40.3,40.3,0,0,0,12.63,8.9A38.85,38.85,0,0,0,473.43,109a40,40,0,0,0,16-3.18A36.73,36.73,0,0,0,502,97a41.69,41.69,0,0,0,8.11-13A42.89,42.89,0,0,0,513,68.19Z"/><path class="cls-1" d="M802.68,134.39,738.15,50v84.35H709.21V1h27l62.44,82.9V1h28.94v133.4Z"/><path class="cls-1" d="M959.24,101.18a49.15,49.15,0,0,1-11.54,18.48,47.19,47.19,0,0,1-18.2,11.07,73.3,73.3,0,0,1-23.83,3.66q-26.46,0-41.65-14.63T848.82,76V1h28.89v74.3q0,16.14,7.51,24.3T906,107.75q13.32,0,20.83-7.88t7.51-23.64V1h28.89V75.1Q963.27,90.12,959.24,101.18Z"/><path class="cls-2" d="M627.12,1.16h8.4V134.23h-36S627.12,125.84,627.12,1.16Z"/><path class="cls-2" d="M664.29,1.16H655.9V134.23h36S664.29,125.84,664.29,1.16Z"/></g></g></svg>