<svg width="31" height="30" viewBox="0 0 31 30" fill="none" xmlns="http://www.w3.org/2000/svg">
<path d="M30.504 13.9566C30.4959 13.5783 30.3396 13.2182 30.0685 12.9536C29.7974 12.6889 29.4332 12.5408 29.054 12.5409H21.2896L19.1628 7.88976C19.0471 7.63696 18.8609 7.42276 18.6264 7.27277C18.3919 7.12279 18.119 7.04337 17.8404 7.04401H6.16867L3.58763 1.60309C3.44757 1.3075 3.21127 1.06796 2.91725 0.923528C2.62323 0.779093 2.28883 0.738283 1.96858 0.80775C1.64833 0.877217 1.36111 1.05286 1.15376 1.30605C0.946407 1.55924 0.831148 1.87504 0.826775 2.20196L0.536769 22.6464C0.532075 22.9742 0.639099 23.2938 0.840308 23.5529C0.909909 23.6416 2.56874 25.7497 5.6428 27.3486C7.92231 28.5349 10.4563 29.1517 13.0273 29.1462C14.8476 29.1462 16.8757 28.8463 19.0874 28.0854C25.0587 26.0275 27.8466 22.3311 29.1342 19.5932C30.5427 16.596 30.504 14.0626 30.504 13.9566ZM7.08992 24.8384C5.73078 24.1475 4.49833 23.2327 3.44456 22.1324L3.63789 8.4732L12.0626 26.2348C10.3275 26.109 8.63598 25.634 7.08992 24.8384ZM18.1401 25.3495C17.1854 25.6823 16.2029 25.9298 15.2043 26.0892L7.54137 9.9371H16.9085L18.1014 12.5409H16.3904C16.0228 12.0701 15.5115 11.7315 14.9339 11.5763C14.3563 11.4212 13.7437 11.4578 13.1888 11.6808C12.6339 11.9037 12.1669 12.3008 11.8583 12.8121C11.5498 13.3233 11.4164 13.9209 11.4785 14.5144C11.5406 15.1079 11.7947 15.6652 12.2024 16.1019C12.6101 16.5385 13.1493 16.8309 13.7383 16.9348C14.3274 17.0387 14.9343 16.9484 15.4674 16.6776C16.0005 16.4069 16.4307 15.9703 16.693 15.434H19.4277L22.8421 22.8894C21.5248 23.8981 19.9575 24.7182 18.1401 25.3495ZM26.4536 18.4833C26.068 19.2822 25.5953 20.0364 25.0442 20.7321L22.6149 15.434H27.4483C27.2544 16.4903 26.9192 17.5159 26.4517 18.4833H26.4536Z" fill="#0096F2"/>
</svg>
