<svg xmlns="http://www.w3.org/2000/svg" viewBox="0 0 544.02 1053.25"><defs><style>.cls-1{fill:none;stroke:#0096f2;stroke-linecap:round;stroke-miterlimit:10;opacity:0.06;}</style></defs><g id="Layer_2" data-name="Layer 2"><g id="Layer_1-2" data-name="Layer 1"><polygon class="cls-1" points="406.76 293.81 425.54 167.71 378.96 265 406.76 293.81"/><polygon class="cls-1" points="406.76 293.81 425.54 167.71 383.36 331.43 406.76 293.81"/><polygon class="cls-1" points="406.76 293.81 425.54 167.71 333.67 321.93 406.76 293.81"/><polygon class="cls-1" points="406.76 293.81 378.96 265 383.36 331.43 406.76 293.81"/><polygon class="cls-1" points="406.76 293.81 378.96 265 333.67 321.93 406.76 293.81"/><polygon class="cls-1" points="406.76 293.81 383.36 331.43 333.67 321.93 406.76 293.81"/><polygon class="cls-1" points="178.12 30.68 113.48 109.05 99.99 10.74 178.12 30.68"/><polygon class="cls-1" points="178.12 30.68 113.48 109.05 114.97 4.17 178.12 30.68"/><line class="cls-1" x1="178.12" y1="30.68" x2="113.48" y2="109.05"/><line class="cls-1" x1="178.12" y1="30.68" x2="113.48" y2="109.05"/><polygon class="cls-1" points="178.12 30.68 113.48 109.05 202.43 140.32 178.12 30.68"/><polygon class="cls-1" points="178.12 30.68 113.48 109.05 62.25 62.6 178.12 30.68"/><polygon class="cls-1" points="178.12 30.68 99.99 10.74 114.97 4.17 178.12 30.68"/><line class="cls-1" x1="178.12" y1="30.68" x2="99.99" y2="10.74"/><line class="cls-1" x1="178.12" y1="30.68" x2="99.99" y2="10.74"/><polygon class="cls-1" points="178.12 30.68 99.99 10.74 202.43 140.32 178.12 30.68"/><polygon class="cls-1" points="178.12 30.68 99.99 10.74 62.25 62.6 178.12 30.68"/><line class="cls-1" x1="178.12" y1="30.68" x2="114.97" y2="4.16"/><line class="cls-1" x1="178.12" y1="30.68" x2="114.97" y2="4.16"/><polygon class="cls-1" points="178.12 30.68 114.97 4.17 202.43 140.32 178.12 30.68"/><polygon class="cls-1" points="178.12 30.68 114.97 4.17 62.25 62.6 178.12 30.68"/><line class="cls-1" x1="202.43" y1="140.32" x2="178.12" y2="30.68"/><line class="cls-1" x1="62.25" y1="62.6" x2="178.12" y2="30.68"/><line class="cls-1" x1="202.43" y1="140.32" x2="178.12" y2="30.68"/><line class="cls-1" x1="62.25" y1="62.6" x2="178.12" y2="30.68"/><polygon class="cls-1" points="178.12 30.68 202.43 140.32 62.25 62.6 178.12 30.68"/><polygon class="cls-1" points="384.28 836.74 472.5 762.58 306.34 902.16 384.28 836.74"/><polygon class="cls-1" points="384.28 836.74 472.5 762.58 293.74 858.43 384.28 836.74"/><polygon class="cls-1" points="384.28 836.74 472.5 762.58 497.8 875.23 384.28 836.74"/><polygon class="cls-1" points="384.28 836.74 472.5 762.58 267.43 792.24 384.28 836.74"/><polygon class="cls-1" points="384.28 836.74 472.5 762.58 451.36 820.78 384.28 836.74"/><polygon class="cls-1" points="384.28 836.74 306.34 902.16 293.74 858.43 384.28 836.74"/><polygon class="cls-1" points="384.28 836.74 306.34 902.16 497.8 875.23 384.28 836.74"/><polygon class="cls-1" points="384.28 836.74 306.34 902.16 267.43 792.24 384.28 836.74"/><polygon class="cls-1" points="384.28 836.74 306.34 902.16 451.36 820.78 384.28 836.74"/><polygon class="cls-1" points="384.28 836.74 293.74 858.43 497.8 875.23 384.28 836.74"/><polygon class="cls-1" points="384.28 836.74 293.74 858.43 267.43 792.24 384.28 836.74"/><polygon class="cls-1" points="384.28 836.74 293.74 858.43 451.36 820.78 384.28 836.74"/><polygon class="cls-1" points="384.28 836.74 497.8 875.23 267.43 792.24 384.28 836.74"/><polygon class="cls-1" points="384.28 836.74 497.8 875.23 451.36 820.78 384.28 836.74"/><polygon class="cls-1" points="384.28 836.74 267.43 792.24 451.36 820.78 384.28 836.74"/><polygon class="cls-1" points="430.8 702.73 472.5 762.58 433.12 620.13 430.8 702.73"/><polygon class="cls-1" points="430.8 702.73 472.5 762.58 451.36 820.78 430.8 702.73"/><polygon class="cls-1" points="430.8 702.73 472.5 762.58 490.03 590.01 430.8 702.73"/><polygon class="cls-1" points="430.8 702.73 472.5 762.58 450.94 684.78 430.8 702.73"/><polygon class="cls-1" points="430.8 702.73 472.5 762.58 319.06 627.13 430.8 702.73"/><polygon class="cls-1" points="430.8 702.73 433.12 620.13 451.36 820.78 430.8 702.73"/><polygon class="cls-1" points="430.8 702.73 433.12 620.13 490.03 590.01 430.8 702.73"/><polygon class="cls-1" points="430.8 702.73 433.12 620.13 450.94 684.78 430.8 702.73"/><polygon class="cls-1" points="430.8 702.73 433.12 620.13 319.06 627.13 430.8 702.73"/><polygon class="cls-1" points="430.8 702.73 451.36 820.78 490.03 590.01 430.8 702.73"/><polygon class="cls-1" points="430.8 702.73 451.36 820.78 450.94 684.78 430.8 702.73"/><polygon class="cls-1" points="430.8 702.73 451.36 820.78 319.06 627.13 430.8 702.73"/><polygon class="cls-1" points="430.8 702.73 490.03 590.01 450.94 684.78 430.8 702.73"/><polygon class="cls-1" points="430.8 702.73 490.03 590.01 319.06 627.13 430.8 702.73"/><polygon class="cls-1" points="430.8 702.73 450.94 684.78 319.06 627.13 430.8 702.73"/><polygon class="cls-1" points="302.84 116.82 425.54 167.71 245.51 219.84 302.84 116.82"/><polygon class="cls-1" points="302.84 116.82 425.54 167.71 427.59 94.04 302.84 116.82"/><polygon class="cls-1" points="302.84 116.82 425.54 167.71 288.31 120.25 302.84 116.82"/><polygon class="cls-1" points="302.84 116.82 425.54 167.71 202.43 140.32 302.84 116.82"/><polygon class="cls-1" points="302.84 116.82 245.51 219.84 427.59 94.04 302.84 116.82"/><polygon class="cls-1" points="302.84 116.82 245.51 219.84 288.31 120.25 302.84 116.82"/><polygon class="cls-1" points="302.84 116.82 245.51 219.84 202.43 140.32 302.84 116.82"/><polygon class="cls-1" points="302.84 116.82 427.59 94.04 288.31 120.25 302.84 116.82"/><polygon class="cls-1" points="302.84 116.82 427.59 94.04 202.43 140.32 302.84 116.82"/><polygon class="cls-1" points="302.84 116.82 288.31 120.25 202.43 140.32 302.84 116.82"/><line class="cls-1" x1="82.9" y1="526.83" x2="111.05" y2="556.8"/><polygon class="cls-1" points="412.95 455.56 508.49 419.13 346.44 500.29 412.95 455.56"/><polygon class="cls-1" points="412.95 455.56 508.49 419.13 383.36 331.43 412.95 455.56"/><polygon class="cls-1" points="412.95 455.56 508.49 419.13 507.9 517.75 412.95 455.56"/><polygon class="cls-1" points="412.95 455.56 508.49 419.13 297.45 510.07 412.95 455.56"/><polygon class="cls-1" points="412.95 455.56 346.44 500.29 383.36 331.43 412.95 455.56"/><polygon class="cls-1" points="412.95 455.56 346.44 500.29 507.9 517.75 412.95 455.56"/><polygon class="cls-1" points="412.95 455.56 346.44 500.29 297.45 510.07 412.95 455.56"/><polygon class="cls-1" points="412.95 455.56 383.36 331.43 507.9 517.75 412.95 455.56"/><polygon class="cls-1" points="412.95 455.56 383.36 331.43 297.45 510.07 412.95 455.56"/><polygon class="cls-1" points="412.95 455.56 507.9 517.75 297.45 510.07 412.95 455.56"/><polygon class="cls-1" points="113.48 109.05 167.64 234.16 157.05 186.5 113.48 109.05"/><polygon class="cls-1" points="113.48 109.05 167.64 234.16 99.99 10.74 113.48 109.05"/><polygon class="cls-1" points="113.48 109.05 167.64 234.16 114.97 4.17 113.48 109.05"/><polygon class="cls-1" points="113.48 109.05 167.64 234.16 95.71 207.38 113.48 109.05"/><polygon class="cls-1" points="113.48 109.05 167.64 234.16 202.43 140.32 113.48 109.05"/><polygon class="cls-1" points="113.48 109.05 167.64 234.16 62.25 62.6 113.48 109.05"/><polygon class="cls-1" points="113.48 109.05 157.05 186.5 99.99 10.74 113.48 109.05"/><polygon class="cls-1" points="113.48 109.05 157.05 186.5 114.97 4.17 113.48 109.05"/><polygon class="cls-1" points="113.48 109.05 157.05 186.5 95.71 207.38 113.48 109.05"/><polygon class="cls-1" points="113.48 109.05 157.05 186.5 202.43 140.32 113.48 109.05"/><polygon class="cls-1" points="113.48 109.05 157.05 186.5 62.25 62.6 113.48 109.05"/><polygon class="cls-1" points="113.48 109.05 99.99 10.74 114.97 4.17 113.48 109.05"/><polygon class="cls-1" points="113.48 109.05 99.99 10.74 95.71 207.38 113.48 109.05"/><polygon class="cls-1" points="113.48 109.05 99.99 10.74 202.43 140.32 113.48 109.05"/><polygon class="cls-1" points="113.48 109.05 99.99 10.74 62.25 62.6 113.48 109.05"/><polygon class="cls-1" points="113.48 109.05 114.97 4.17 95.71 207.38 113.48 109.05"/><polygon class="cls-1" points="113.48 109.05 114.97 4.17 202.43 140.32 113.48 109.05"/><polygon class="cls-1" points="113.48 109.05 114.97 4.17 62.25 62.6 113.48 109.05"/><polygon class="cls-1" points="113.48 109.05 95.71 207.38 202.43 140.32 113.48 109.05"/><polygon class="cls-1" points="113.48 109.05 95.71 207.38 62.25 62.6 113.48 109.05"/><polygon class="cls-1" points="113.48 109.05 202.43 140.32 62.25 62.6 113.48 109.05"/><line class="cls-1" x1="507.9" y1="517.75" x2="508.49" y2="419.13"/><line class="cls-1" x1="507.9" y1="517.75" x2="508.49" y2="419.13"/><polygon class="cls-1" points="195.58 633.89 281.41 617.05 238.92 665.13 195.58 633.89"/><line class="cls-1" x1="195.58" y1="633.89" x2="281.41" y2="617.05"/><line class="cls-1" x1="195.58" y1="633.89" x2="281.41" y2="617.05"/><line class="cls-1" x1="195.58" y1="633.89" x2="281.41" y2="617.05"/><polygon class="cls-1" points="195.58 633.89 281.41 617.05 172.83 552.26 195.58 633.89"/><polygon class="cls-1" points="195.58 633.89 281.41 617.05 111.05 556.8 195.58 633.89"/><polygon class="cls-1" points="195.58 633.89 281.41 617.05 319.06 627.13 195.58 633.89"/><line class="cls-1" x1="195.58" y1="633.89" x2="238.92" y2="665.13"/><line class="cls-1" x1="195.58" y1="633.89" x2="238.92" y2="665.13"/><line class="cls-1" x1="195.58" y1="633.89" x2="238.92" y2="665.13"/><polygon class="cls-1" points="195.58 633.89 238.92 665.13 172.83 552.26 195.58 633.89"/><polygon class="cls-1" points="195.58 633.89 238.92 665.13 111.05 556.8 195.58 633.89"/><polygon class="cls-1" points="195.58 633.89 238.92 665.13 319.06 627.13 195.58 633.89"/><line class="cls-1" x1="172.83" y1="552.26" x2="195.58" y2="633.89"/><line class="cls-1" x1="111.05" y1="556.8" x2="195.58" y2="633.89"/><line class="cls-1" x1="319.06" y1="627.13" x2="195.58" y2="633.89"/><line class="cls-1" x1="172.83" y1="552.26" x2="195.58" y2="633.89"/><line class="cls-1" x1="111.05" y1="556.8" x2="195.58" y2="633.89"/><line class="cls-1" x1="319.06" y1="627.13" x2="195.58" y2="633.89"/><line class="cls-1" x1="172.83" y1="552.26" x2="195.58" y2="633.89"/><line class="cls-1" x1="111.05" y1="556.8" x2="195.58" y2="633.89"/><line class="cls-1" x1="319.06" y1="627.13" x2="195.58" y2="633.89"/><polygon class="cls-1" points="195.58 633.89 172.83 552.26 111.05 556.8 195.58 633.89"/><polygon class="cls-1" points="195.58 633.89 172.83 552.26 319.06 627.13 195.58 633.89"/><polygon class="cls-1" points="195.58 633.89 111.05 556.8 319.06 627.13 195.58 633.89"/><line class="cls-1" x1="473.61" y1="1045.04" x2="478.52" y2="1049.07"/><line class="cls-1" x1="513.93" y1="917.3" x2="478.52" y2="1049.07"/><line class="cls-1" x1="432.44" y1="987.27" x2="478.52" y2="1049.07"/><line class="cls-1" x1="480.76" y1="960.8" x2="478.52" y2="1049.07"/><polygon class="cls-1" points="478.52 1049.07 473.61 1045.04 513.93 917.3 478.52 1049.07"/><line class="cls-1" x1="478.52" y1="1049.07" x2="473.61" y2="1045.04"/><line class="cls-1" x1="478.52" y1="1049.07" x2="473.61" y2="1045.04"/><polygon class="cls-1" points="478.52 1049.07 473.61 1045.04 432.44 987.27 478.52 1049.07"/><line class="cls-1" x1="478.52" y1="1049.07" x2="473.61" y2="1045.04"/><polygon class="cls-1" points="478.52 1049.07 473.61 1045.04 480.76 960.8 478.52 1049.07"/><line class="cls-1" x1="478.52" y1="1049.07" x2="513.93" y2="917.3"/><line class="cls-1" x1="478.52" y1="1049.07" x2="513.93" y2="917.3"/><polygon class="cls-1" points="478.52 1049.07 513.93 917.3 432.44 987.27 478.52 1049.07"/><line class="cls-1" x1="478.52" y1="1049.07" x2="513.93" y2="917.3"/><polygon class="cls-1" points="478.52 1049.07 513.93 917.3 480.76 960.8 478.52 1049.07"/><line class="cls-1" x1="432.44" y1="987.27" x2="478.52" y2="1049.07"/><line class="cls-1" x1="480.76" y1="960.8" x2="478.52" y2="1049.07"/><line class="cls-1" x1="432.44" y1="987.27" x2="478.52" y2="1049.07"/><line class="cls-1" x1="480.76" y1="960.8" x2="478.52" y2="1049.07"/><line class="cls-1" x1="478.52" y1="1049.07" x2="432.44" y2="987.27"/><polygon class="cls-1" points="478.52 1049.07 432.44 987.27 480.76 960.8 478.52 1049.07"/><line class="cls-1" x1="480.76" y1="960.8" x2="478.52" y2="1049.07"/><line class="cls-1" x1="513.93" y1="917.3" x2="472.5" y2="762.57"/><line class="cls-1" x1="513.93" y1="917.3" x2="541.22" y2="835.72"/><line class="cls-1" x1="513.93" y1="917.3" x2="497.8" y2="875.23"/><line class="cls-1" x1="513.93" y1="917.3" x2="451.36" y2="820.78"/><line class="cls-1" x1="472.5" y1="762.57" x2="541.22" y2="835.72"/><line class="cls-1" x1="472.5" y1="762.57" x2="497.8" y2="875.23"/><line class="cls-1" x1="472.5" y1="762.57" x2="451.36" y2="820.78"/><line class="cls-1" x1="541.22" y1="835.72" x2="497.8" y2="875.23"/><line class="cls-1" x1="541.22" y1="835.72" x2="451.36" y2="820.78"/><line class="cls-1" x1="497.8" y1="875.23" x2="451.36" y2="820.78"/><polygon class="cls-1" points="281.41 617.05 233.49 494.45 346.44 500.29 281.41 617.05"/><polygon class="cls-1" points="281.41 617.05 233.49 494.45 238.92 665.13 281.41 617.05"/><polygon class="cls-1" points="281.41 617.05 233.49 494.45 172.83 552.26 281.41 617.05"/><polygon class="cls-1" points="281.41 617.05 233.49 494.45 281.77 508.82 281.41 617.05"/><polygon class="cls-1" points="281.41 617.05 233.49 494.45 297.45 510.07 281.41 617.05"/><polygon class="cls-1" points="281.41 617.05 233.49 494.45 319.06 627.13 281.41 617.05"/><polygon class="cls-1" points="281.41 617.05 346.44 500.29 238.92 665.13 281.41 617.05"/><polygon class="cls-1" points="281.41 617.05 346.44 500.29 172.83 552.26 281.41 617.05"/><polygon class="cls-1" points="281.41 617.05 346.44 500.29 281.77 508.82 281.41 617.05"/><polygon class="cls-1" points="281.41 617.05 346.44 500.29 297.45 510.07 281.41 617.05"/><polygon class="cls-1" points="281.41 617.05 346.44 500.29 319.06 627.13 281.41 617.05"/><polygon class="cls-1" points="281.41 617.05 238.92 665.13 172.83 552.26 281.41 617.05"/><polygon class="cls-1" points="281.41 617.05 238.92 665.13 281.77 508.82 281.41 617.05"/><polygon class="cls-1" points="281.41 617.05 238.92 665.13 297.45 510.07 281.41 617.05"/><polygon class="cls-1" points="281.41 617.05 238.92 665.13 319.06 627.13 281.41 617.05"/><polygon class="cls-1" points="281.41 617.05 172.83 552.26 281.77 508.82 281.41 617.05"/><polygon class="cls-1" points="281.41 617.05 172.83 552.26 297.45 510.07 281.41 617.05"/><polygon class="cls-1" points="281.41 617.05 172.83 552.26 319.06 627.13 281.41 617.05"/><polygon class="cls-1" points="281.41 617.05 281.77 508.82 297.45 510.07 281.41 617.05"/><polygon class="cls-1" points="281.41 617.05 281.77 508.82 319.06 627.13 281.41 617.05"/><polygon class="cls-1" points="281.41 617.05 297.45 510.07 319.06 627.13 281.41 617.05"/><line class="cls-1" x1="473.61" y1="1045.04" x2="513.93" y2="917.3"/><line class="cls-1" x1="473.61" y1="1045.04" x2="480.76" y2="960.8"/><line class="cls-1" x1="513.93" y1="917.3" x2="480.76" y2="960.8"/><polygon class="cls-1" points="108.81 511.02 233.49 494.45 88.63 472.12 108.81 511.02"/><polygon class="cls-1" points="108.81 511.02 233.49 494.45 82.9 526.83 108.81 511.02"/><line class="cls-1" x1="108.81" y1="511.02" x2="233.49" y2="494.45"/><line class="cls-1" x1="108.81" y1="511.02" x2="233.49" y2="494.45"/><polygon class="cls-1" points="108.81 511.02 233.49 494.45 172.83 552.26 108.81 511.02"/><line class="cls-1" x1="108.81" y1="511.02" x2="233.49" y2="494.45"/><polygon class="cls-1" points="108.81 511.02 233.49 494.45 111.05 556.8 108.81 511.02"/><polygon class="cls-1" points="108.81 511.02 233.49 494.45 213 439.46 108.81 511.02"/><polygon class="cls-1" points="108.81 511.02 88.63 472.12 82.9 526.83 108.81 511.02"/><line class="cls-1" x1="108.81" y1="511.02" x2="88.63" y2="472.11"/><line class="cls-1" x1="108.81" y1="511.02" x2="88.63" y2="472.11"/><polygon class="cls-1" points="108.81 511.02 88.63 472.12 172.83 552.26 108.81 511.02"/><line class="cls-1" x1="108.81" y1="511.02" x2="88.63" y2="472.11"/><polygon class="cls-1" points="108.81 511.02 88.63 472.12 111.05 556.8 108.81 511.02"/><polygon class="cls-1" points="108.81 511.02 88.63 472.12 213 439.46 108.81 511.02"/><line class="cls-1" x1="108.81" y1="511.02" x2="82.9" y2="526.83"/><line class="cls-1" x1="108.81" y1="511.02" x2="82.9" y2="526.83"/><polygon class="cls-1" points="108.81 511.02 82.9 526.83 172.83 552.26 108.81 511.02"/><line class="cls-1" x1="108.81" y1="511.02" x2="82.9" y2="526.83"/><polygon class="cls-1" points="108.81 511.02 82.9 526.83 111.05 556.8 108.81 511.02"/><polygon class="cls-1" points="108.81 511.02 82.9 526.83 213 439.46 108.81 511.02"/><line class="cls-1" x1="172.83" y1="552.26" x2="108.81" y2="511.02"/><line class="cls-1" x1="111.05" y1="556.8" x2="108.81" y2="511.02"/><line class="cls-1" x1="213" y1="439.46" x2="108.81" y2="511.02"/><line class="cls-1" x1="172.83" y1="552.26" x2="108.81" y2="511.02"/><line class="cls-1" x1="111.05" y1="556.8" x2="108.81" y2="511.02"/><line class="cls-1" x1="213" y1="439.46" x2="108.81" y2="511.02"/><line class="cls-1" x1="108.81" y1="511.02" x2="172.83" y2="552.26"/><polygon class="cls-1" points="108.81 511.02 172.83 552.26 111.05 556.8 108.81 511.02"/><polygon class="cls-1" points="108.81 511.02 172.83 552.26 213 439.46 108.81 511.02"/><line class="cls-1" x1="111.05" y1="556.8" x2="108.81" y2="511.02"/><line class="cls-1" x1="213" y1="439.46" x2="108.81" y2="511.02"/><polygon class="cls-1" points="108.81 511.02 111.05 556.8 213 439.46 108.81 511.02"/><line class="cls-1" x1="433.12" y1="620.13" x2="515.64" y2="589.64"/><line class="cls-1" x1="507.9" y1="517.75" x2="515.64" y2="589.64"/><line class="cls-1" x1="490.03" y1="590.01" x2="515.64" y2="589.64"/><line class="cls-1" x1="450.94" y1="684.78" x2="515.64" y2="589.64"/><line class="cls-1" x1="433.12" y1="620.13" x2="515.64" y2="589.64"/><line class="cls-1" x1="507.9" y1="517.75" x2="515.64" y2="589.64"/><line class="cls-1" x1="490.03" y1="590.01" x2="515.64" y2="589.64"/><line class="cls-1" x1="450.94" y1="684.78" x2="515.64" y2="589.64"/><polygon class="cls-1" points="515.64 589.64 433.12 620.13 507.9 517.75 515.64 589.64"/><polygon class="cls-1" points="515.64 589.64 433.12 620.13 490.03 590.01 515.64 589.64"/><polygon class="cls-1" points="515.64 589.64 433.12 620.13 450.94 684.78 515.64 589.64"/><polygon class="cls-1" points="515.64 589.64 507.9 517.75 490.03 590.01 515.64 589.64"/><polygon class="cls-1" points="515.64 589.64 507.9 517.75 450.94 684.78 515.64 589.64"/><polygon class="cls-1" points="515.64 589.64 490.03 590.01 450.94 684.78 515.64 589.64"/><line class="cls-1" x1="513.93" y1="917.3" x2="541.22" y2="835.72"/><line class="cls-1" x1="306.34" y1="902.16" x2="293.74" y2="858.43"/><line class="cls-1" x1="306.34" y1="902.16" x2="267.43" y2="792.24"/><line class="cls-1" x1="293.74" y1="858.43" x2="267.43" y2="792.24"/><polygon class="cls-1" points="233.49 494.45 220.52 357.54 346.44 500.29 233.49 494.45"/><polygon class="cls-1" points="233.49 494.45 220.52 357.54 172.83 552.26 233.49 494.45"/><polygon class="cls-1" points="233.49 494.45 220.52 357.54 257.92 401.49 233.49 494.45"/><polygon class="cls-1" points="233.49 494.45 220.52 357.54 281.77 508.82 233.49 494.45"/><polygon class="cls-1" points="233.49 494.45 220.52 357.54 111.05 556.8 233.49 494.45"/><polygon class="cls-1" points="233.49 494.45 220.52 357.54 297.45 510.07 233.49 494.45"/><polygon class="cls-1" points="233.49 494.45 220.52 357.54 213 439.46 233.49 494.45"/><polygon class="cls-1" points="233.49 494.45 346.44 500.29 172.83 552.26 233.49 494.45"/><polygon class="cls-1" points="233.49 494.45 346.44 500.29 257.92 401.49 233.49 494.45"/><polygon class="cls-1" points="233.49 494.45 346.44 500.29 281.77 508.82 233.49 494.45"/><polygon class="cls-1" points="233.49 494.45 346.44 500.29 111.05 556.8 233.49 494.45"/><polygon class="cls-1" points="233.49 494.45 346.44 500.29 297.45 510.07 233.49 494.45"/><polygon class="cls-1" points="233.49 494.45 346.44 500.29 213 439.46 233.49 494.45"/><polygon class="cls-1" points="233.49 494.45 172.83 552.26 257.92 401.49 233.49 494.45"/><polygon class="cls-1" points="233.49 494.45 172.83 552.26 281.77 508.82 233.49 494.45"/><polygon class="cls-1" points="233.49 494.45 172.83 552.26 111.05 556.8 233.49 494.45"/><polygon class="cls-1" points="233.49 494.45 172.83 552.26 297.45 510.07 233.49 494.45"/><polygon class="cls-1" points="233.49 494.45 172.83 552.26 213 439.46 233.49 494.45"/><polygon class="cls-1" points="233.49 494.45 257.92 401.49 281.77 508.82 233.49 494.45"/><polygon class="cls-1" points="233.49 494.45 257.92 401.49 111.05 556.8 233.49 494.45"/><polygon class="cls-1" points="233.49 494.45 257.92 401.49 297.45 510.07 233.49 494.45"/><polygon class="cls-1" points="233.49 494.45 257.92 401.49 213 439.46 233.49 494.45"/><polygon class="cls-1" points="233.49 494.45 281.77 508.82 111.05 556.8 233.49 494.45"/><polygon class="cls-1" points="233.49 494.45 281.77 508.82 297.45 510.07 233.49 494.45"/><polygon class="cls-1" points="233.49 494.45 281.77 508.82 213 439.46 233.49 494.45"/><polygon class="cls-1" points="233.49 494.45 111.05 556.8 297.45 510.07 233.49 494.45"/><polygon class="cls-1" points="233.49 494.45 111.05 556.8 213 439.46 233.49 494.45"/><polygon class="cls-1" points="233.49 494.45 297.45 510.07 213 439.46 233.49 494.45"/><polygon class="cls-1" points="167.64 234.16 220.52 357.54 157.05 186.5 167.64 234.16"/><polygon class="cls-1" points="167.64 234.16 220.52 357.54 229.4 243.34 167.64 234.16"/><polygon class="cls-1" points="167.64 234.16 220.52 357.54 88.47 287.98 167.64 234.16"/><polygon class="cls-1" points="167.64 234.16 220.52 357.54 245.51 219.84 167.64 234.16"/><polygon class="cls-1" points="167.64 234.16 220.52 357.54 155.86 343.21 167.64 234.16"/><polygon class="cls-1" points="167.64 234.16 220.52 357.54 267.51 307.63 167.64 234.16"/><polygon class="cls-1" points="167.64 234.16 220.52 357.54 95.71 207.38 167.64 234.16"/><polygon class="cls-1" points="167.64 234.16 220.52 357.54 202.43 140.32 167.64 234.16"/><polygon class="cls-1" points="167.64 234.16 220.52 357.54 265.16 293.29 167.64 234.16"/><polygon class="cls-1" points="167.64 234.16 157.05 186.5 229.4 243.34 167.64 234.16"/><polygon class="cls-1" points="167.64 234.16 157.05 186.5 88.47 287.98 167.64 234.16"/><polygon class="cls-1" points="167.64 234.16 157.05 186.5 245.51 219.84 167.64 234.16"/><polygon class="cls-1" points="167.64 234.16 157.05 186.5 155.86 343.21 167.64 234.16"/><polygon class="cls-1" points="167.64 234.16 157.05 186.5 267.51 307.63 167.64 234.16"/><polygon class="cls-1" points="167.64 234.16 157.05 186.5 95.71 207.38 167.64 234.16"/><polygon class="cls-1" points="167.64 234.16 157.05 186.5 202.43 140.32 167.64 234.16"/><polygon class="cls-1" points="167.64 234.16 157.05 186.5 265.16 293.29 167.64 234.16"/><polygon class="cls-1" points="167.64 234.16 229.4 243.34 88.47 287.98 167.64 234.16"/><polygon class="cls-1" points="167.64 234.16 229.4 243.34 245.51 219.84 167.64 234.16"/><polygon class="cls-1" points="167.64 234.16 229.4 243.34 155.86 343.21 167.64 234.16"/><polygon class="cls-1" points="167.64 234.16 229.4 243.34 267.51 307.63 167.64 234.16"/><polygon class="cls-1" points="167.64 234.16 229.4 243.34 95.71 207.38 167.64 234.16"/><polygon class="cls-1" points="167.64 234.16 229.4 243.34 202.43 140.32 167.64 234.16"/><polygon class="cls-1" points="167.64 234.16 229.4 243.34 265.16 293.29 167.64 234.16"/><polygon class="cls-1" points="167.64 234.16 88.47 287.98 245.51 219.84 167.64 234.16"/><polygon class="cls-1" points="167.64 234.16 88.47 287.98 155.86 343.21 167.64 234.16"/><polygon class="cls-1" points="167.64 234.16 88.47 287.98 267.51 307.63 167.64 234.16"/><polygon class="cls-1" points="167.64 234.16 88.47 287.98 95.71 207.38 167.64 234.16"/><polygon class="cls-1" points="167.64 234.16 88.47 287.98 202.43 140.32 167.64 234.16"/><polygon class="cls-1" points="167.64 234.16 88.47 287.98 265.16 293.29 167.64 234.16"/><polygon class="cls-1" points="167.64 234.16 245.51 219.84 155.86 343.21 167.64 234.16"/><polygon class="cls-1" points="167.64 234.16 245.51 219.84 267.51 307.63 167.64 234.16"/><polygon class="cls-1" points="167.64 234.16 245.51 219.84 95.71 207.38 167.64 234.16"/><polygon class="cls-1" points="167.64 234.16 245.51 219.84 202.43 140.32 167.64 234.16"/><polygon class="cls-1" points="167.64 234.16 245.51 219.84 265.16 293.29 167.64 234.16"/><polygon class="cls-1" points="167.64 234.16 155.86 343.21 267.51 307.63 167.64 234.16"/><polygon class="cls-1" points="167.64 234.16 155.86 343.21 95.71 207.38 167.64 234.16"/><polygon class="cls-1" points="167.64 234.16 155.86 343.21 202.43 140.32 167.64 234.16"/><polygon class="cls-1" points="167.64 234.16 155.86 343.21 265.16 293.29 167.64 234.16"/><polygon class="cls-1" points="167.64 234.16 267.51 307.63 95.71 207.38 167.64 234.16"/><polygon class="cls-1" points="167.64 234.16 267.51 307.63 202.43 140.32 167.64 234.16"/><polygon class="cls-1" points="167.64 234.16 267.51 307.63 265.16 293.29 167.64 234.16"/><polygon class="cls-1" points="167.64 234.16 95.71 207.38 202.43 140.32 167.64 234.16"/><polygon class="cls-1" points="167.64 234.16 95.71 207.38 265.16 293.29 167.64 234.16"/><polygon class="cls-1" points="167.64 234.16 202.43 140.32 265.16 293.29 167.64 234.16"/><polygon class="cls-1" points="220.52 357.54 229.4 243.34 257.92 401.49 220.52 357.54"/><polygon class="cls-1" points="220.52 357.54 229.4 243.34 155.86 343.21 220.52 357.54"/><polygon class="cls-1" points="220.52 357.54 229.4 243.34 267.51 307.63 220.52 357.54"/><polygon class="cls-1" points="220.52 357.54 229.4 243.34 333.67 321.93 220.52 357.54"/><polygon class="cls-1" points="220.52 357.54 229.4 243.34 265.16 293.29 220.52 357.54"/><polygon class="cls-1" points="220.52 357.54 229.4 243.34 213 439.46 220.52 357.54"/><polygon class="cls-1" points="220.52 357.54 257.92 401.49 155.86 343.21 220.52 357.54"/><polygon class="cls-1" points="220.52 357.54 257.92 401.49 267.51 307.63 220.52 357.54"/><polygon class="cls-1" points="220.52 357.54 257.92 401.49 333.67 321.93 220.52 357.54"/><polygon class="cls-1" points="220.52 357.54 257.92 401.49 265.16 293.29 220.52 357.54"/><polygon class="cls-1" points="220.52 357.54 257.92 401.49 213 439.46 220.52 357.54"/><polygon class="cls-1" points="220.52 357.54 155.86 343.21 267.51 307.63 220.52 357.54"/><polygon class="cls-1" points="220.52 357.54 155.86 343.21 333.67 321.93 220.52 357.54"/><polygon class="cls-1" points="220.52 357.54 155.86 343.21 265.16 293.29 220.52 357.54"/><polygon class="cls-1" points="220.52 357.54 155.86 343.21 213 439.46 220.52 357.54"/><polygon class="cls-1" points="220.52 357.54 267.51 307.63 333.67 321.93 220.52 357.54"/><polygon class="cls-1" points="220.52 357.54 267.51 307.63 265.16 293.29 220.52 357.54"/><polygon class="cls-1" points="220.52 357.54 267.51 307.63 213 439.46 220.52 357.54"/><polygon class="cls-1" points="220.52 357.54 333.67 321.93 265.16 293.29 220.52 357.54"/><polygon class="cls-1" points="220.52 357.54 333.67 321.93 213 439.46 220.52 357.54"/><polygon class="cls-1" points="220.52 357.54 265.16 293.29 213 439.46 220.52 357.54"/><line class="cls-1" x1="88.47" y1="287.98" x2="36.66" y2="329.75"/><line class="cls-1" x1="88.47" y1="287.98" x2="1.25" y2="261.5"/><line class="cls-1" x1="36.66" y1="329.75" x2="1.25" y2="261.5"/><line class="cls-1" x1="88.63" y1="472.11" x2="82.9" y2="526.83"/><polygon class="cls-1" points="88.63 472.12 82.9 526.83 172.83 552.26 88.63 472.12"/><line class="cls-1" x1="88.63" y1="472.11" x2="82.9" y2="526.83"/><polygon class="cls-1" points="88.63 472.12 82.9 526.83 111.05 556.8 88.63 472.12"/><polygon class="cls-1" points="88.63 472.12 82.9 526.83 213 439.46 88.63 472.12"/><line class="cls-1" x1="172.83" y1="552.26" x2="88.63" y2="472.11"/><line class="cls-1" x1="111.05" y1="556.8" x2="88.63" y2="472.11"/><line class="cls-1" x1="213" y1="439.46" x2="88.63" y2="472.11"/><line class="cls-1" x1="88.63" y1="472.11" x2="172.83" y2="552.26"/><polygon class="cls-1" points="88.63 472.12 172.83 552.26 111.05 556.8 88.63 472.12"/><polygon class="cls-1" points="88.63 472.12 172.83 552.26 213 439.46 88.63 472.12"/><line class="cls-1" x1="111.05" y1="556.8" x2="88.63" y2="472.11"/><line class="cls-1" x1="213" y1="439.46" x2="88.63" y2="472.11"/><polygon class="cls-1" points="88.63 472.12 111.05 556.8 213 439.46 88.63 472.12"/><polygon class="cls-1" points="157.05 186.5 229.4 243.34 88.47 287.98 157.05 186.5"/><polygon class="cls-1" points="157.05 186.5 229.4 243.34 245.51 219.84 157.05 186.5"/><polygon class="cls-1" points="157.05 186.5 229.4 243.34 95.71 207.38 157.05 186.5"/><polygon class="cls-1" points="157.05 186.5 229.4 243.34 202.43 140.32 157.05 186.5"/><polygon class="cls-1" points="157.05 186.5 88.47 287.98 245.51 219.84 157.05 186.5"/><polygon class="cls-1" points="157.05 186.5 88.47 287.98 95.71 207.38 157.05 186.5"/><polygon class="cls-1" points="157.05 186.5 88.47 287.98 202.43 140.32 157.05 186.5"/><polygon class="cls-1" points="157.05 186.5 245.51 219.84 95.71 207.38 157.05 186.5"/><polygon class="cls-1" points="157.05 186.5 245.51 219.84 202.43 140.32 157.05 186.5"/><polygon class="cls-1" points="157.05 186.5 95.71 207.38 202.43 140.32 157.05 186.5"/><line class="cls-1" x1="507.9" y1="517.75" x2="490.03" y2="590.01"/><polygon class="cls-1" points="425.54 167.71 378.96 265 427.59 94.04 425.54 167.71"/><line class="cls-1" x1="99.99" y1="10.74" x2="114.97" y2="4.16"/><line class="cls-1" x1="99.99" y1="10.74" x2="114.97" y2="4.16"/><polygon class="cls-1" points="99.99 10.74 114.97 4.17 62.25 62.6 99.99 10.74"/><line class="cls-1" x1="62.25" y1="62.6" x2="99.99" y2="10.74"/><line class="cls-1" x1="62.25" y1="62.6" x2="99.99" y2="10.74"/><line class="cls-1" x1="62.25" y1="62.6" x2="114.97" y2="4.16"/><line class="cls-1" x1="62.25" y1="62.6" x2="114.97" y2="4.16"/><polygon class="cls-1" points="346.44 500.29 257.92 401.49 281.77 508.82 346.44 500.29"/><polygon class="cls-1" points="346.44 500.29 257.92 401.49 297.45 510.07 346.44 500.29"/><polygon class="cls-1" points="346.44 500.29 257.92 401.49 319.06 627.13 346.44 500.29"/><polygon class="cls-1" points="346.44 500.29 281.77 508.82 297.45 510.07 346.44 500.29"/><polygon class="cls-1" points="346.44 500.29 281.77 508.82 319.06 627.13 346.44 500.29"/><polygon class="cls-1" points="346.44 500.29 297.45 510.07 319.06 627.13 346.44 500.29"/><polygon class="cls-1" points="378.96 265 383.36 331.43 267.51 307.63 378.96 265"/><polygon class="cls-1" points="378.96 265 383.36 331.43 333.67 321.93 378.96 265"/><polygon class="cls-1" points="378.96 265 383.36 331.43 265.16 293.29 378.96 265"/><polygon class="cls-1" points="378.96 265 267.51 307.63 333.67 321.93 378.96 265"/><polygon class="cls-1" points="378.96 265 267.51 307.63 265.16 293.29 378.96 265"/><polygon class="cls-1" points="378.96 265 333.67 321.93 265.16 293.29 378.96 265"/><line class="cls-1" x1="473.61" y1="1045.04" x2="513.93" y2="917.3"/><line class="cls-1" x1="473.61" y1="1045.04" x2="513.93" y2="917.3"/><polygon class="cls-1" points="473.61 1045.04 513.93 917.3 432.44 987.27 473.61 1045.04"/><line class="cls-1" x1="473.61" y1="1045.04" x2="513.93" y2="917.3"/><polygon class="cls-1" points="473.61 1045.04 513.93 917.3 480.76 960.8 473.61 1045.04"/><line class="cls-1" x1="432.44" y1="987.27" x2="473.61" y2="1045.04"/><line class="cls-1" x1="480.76" y1="960.8" x2="473.61" y2="1045.04"/><line class="cls-1" x1="432.44" y1="987.27" x2="473.61" y2="1045.04"/><line class="cls-1" x1="480.76" y1="960.8" x2="473.61" y2="1045.04"/><line class="cls-1" x1="473.61" y1="1045.04" x2="432.44" y2="987.27"/><polygon class="cls-1" points="473.61 1045.04 432.44 987.27 480.76 960.8 473.61 1045.04"/><line class="cls-1" x1="480.76" y1="960.8" x2="473.61" y2="1045.04"/><line class="cls-1" x1="306.34" y1="902.16" x2="293.74" y2="858.43"/><line class="cls-1" x1="306.34" y1="902.16" x2="432.44" y2="987.27"/><line class="cls-1" x1="293.74" y1="858.43" x2="432.44" y2="987.27"/><line class="cls-1" x1="541.22" y1="835.72" x2="513.93" y2="917.3"/><line class="cls-1" x1="497.8" y1="875.23" x2="513.93" y2="917.3"/><line class="cls-1" x1="432.44" y1="987.27" x2="513.93" y2="917.3"/><line class="cls-1" x1="451.36" y1="820.78" x2="513.93" y2="917.3"/><line class="cls-1" x1="480.76" y1="960.8" x2="513.93" y2="917.3"/><polygon class="cls-1" points="513.93 917.3 541.22 835.72 497.8 875.23 513.93 917.3"/><polygon class="cls-1" points="513.93 917.3 541.22 835.72 432.44 987.27 513.93 917.3"/><line class="cls-1" x1="513.93" y1="917.3" x2="541.22" y2="835.72"/><polygon class="cls-1" points="513.93 917.3 541.22 835.72 451.36 820.78 513.93 917.3"/><polygon class="cls-1" points="513.93 917.3 541.22 835.72 480.76 960.8 513.93 917.3"/><line class="cls-1" x1="513.93" y1="917.3" x2="541.22" y2="835.72"/><polygon class="cls-1" points="513.93 917.3 497.8 875.23 432.44 987.27 513.93 917.3"/><line class="cls-1" x1="513.93" y1="917.3" x2="497.8" y2="875.23"/><polygon class="cls-1" points="513.93 917.3 497.8 875.23 451.36 820.78 513.93 917.3"/><polygon class="cls-1" points="513.93 917.3 497.8 875.23 480.76 960.8 513.93 917.3"/><line class="cls-1" x1="513.93" y1="917.3" x2="497.8" y2="875.23"/><line class="cls-1" x1="513.93" y1="917.3" x2="432.44" y2="987.27"/><polygon class="cls-1" points="513.93 917.3 432.44 987.27 451.36 820.78 513.93 917.3"/><polygon class="cls-1" points="513.93 917.3 432.44 987.27 480.76 960.8 513.93 917.3"/><line class="cls-1" x1="513.93" y1="917.3" x2="432.44" y2="987.27"/><line class="cls-1" x1="451.36" y1="820.78" x2="513.93" y2="917.3"/><line class="cls-1" x1="480.76" y1="960.8" x2="513.93" y2="917.3"/><polygon class="cls-1" points="513.93 917.3 451.36 820.78 480.76 960.8 513.93 917.3"/><line class="cls-1" x1="513.93" y1="917.3" x2="451.36" y2="820.78"/><line class="cls-1" x1="513.93" y1="917.3" x2="480.76" y2="960.8"/><polygon class="cls-1" points="472.5 762.58 541.22 835.72 497.8 875.23 472.5 762.58"/><polygon class="cls-1" points="472.5 762.58 541.22 835.72 451.36 820.78 472.5 762.58"/><polygon class="cls-1" points="472.5 762.58 541.22 835.72 450.94 684.78 472.5 762.58"/><polygon class="cls-1" points="472.5 762.58 497.8 875.23 451.36 820.78 472.5 762.58"/><polygon class="cls-1" points="472.5 762.58 497.8 875.23 450.94 684.78 472.5 762.58"/><polygon class="cls-1" points="472.5 762.58 451.36 820.78 450.94 684.78 472.5 762.58"/><line class="cls-1" x1="172.83" y1="552.26" x2="238.92" y2="665.13"/><line class="cls-1" x1="267.43" y1="792.24" x2="238.92" y2="665.13"/><line class="cls-1" x1="319.06" y1="627.13" x2="238.92" y2="665.13"/><line class="cls-1" x1="172.83" y1="552.26" x2="238.92" y2="665.13"/><line class="cls-1" x1="267.43" y1="792.24" x2="238.92" y2="665.13"/><line class="cls-1" x1="319.06" y1="627.13" x2="238.92" y2="665.13"/><polygon class="cls-1" points="238.92 665.13 172.83 552.26 267.43 792.24 238.92 665.13"/><polygon class="cls-1" points="238.92 665.13 172.83 552.26 319.06 627.13 238.92 665.13"/><polygon class="cls-1" points="238.92 665.13 267.43 792.24 319.06 627.13 238.92 665.13"/><line class="cls-1" x1="293.74" y1="858.43" x2="306.34" y2="902.16"/><line class="cls-1" x1="267.43" y1="792.24" x2="306.34" y2="902.16"/><line class="cls-1" x1="293.74" y1="858.43" x2="306.34" y2="902.16"/><line class="cls-1" x1="267.43" y1="792.24" x2="306.34" y2="902.16"/><line class="cls-1" x1="306.34" y1="902.16" x2="293.74" y2="858.43"/><polygon class="cls-1" points="306.34 902.16 293.74 858.43 267.43 792.24 306.34 902.16"/><line class="cls-1" x1="267.43" y1="792.24" x2="306.34" y2="902.16"/><polygon class="cls-1" points="229.4 243.34 245.51 219.84 288.31 120.25 229.4 243.34"/><polygon class="cls-1" points="229.4 243.34 245.51 219.84 155.86 343.21 229.4 243.34"/><polygon class="cls-1" points="229.4 243.34 245.51 219.84 267.51 307.63 229.4 243.34"/><polygon class="cls-1" points="229.4 243.34 245.51 219.84 333.67 321.93 229.4 243.34"/><polygon class="cls-1" points="229.4 243.34 245.51 219.84 95.71 207.38 229.4 243.34"/><polygon class="cls-1" points="229.4 243.34 245.51 219.84 202.43 140.32 229.4 243.34"/><polygon class="cls-1" points="229.4 243.34 245.51 219.84 265.16 293.29 229.4 243.34"/><polygon class="cls-1" points="229.4 243.34 288.31 120.25 155.86 343.21 229.4 243.34"/><polygon class="cls-1" points="229.4 243.34 288.31 120.25 267.51 307.63 229.4 243.34"/><polygon class="cls-1" points="229.4 243.34 288.31 120.25 333.67 321.93 229.4 243.34"/><polygon class="cls-1" points="229.4 243.34 288.31 120.25 95.71 207.38 229.4 243.34"/><polygon class="cls-1" points="229.4 243.34 288.31 120.25 202.43 140.32 229.4 243.34"/><polygon class="cls-1" points="229.4 243.34 288.31 120.25 265.16 293.29 229.4 243.34"/><polygon class="cls-1" points="229.4 243.34 155.86 343.21 267.51 307.63 229.4 243.34"/><polygon class="cls-1" points="229.4 243.34 155.86 343.21 333.67 321.93 229.4 243.34"/><polygon class="cls-1" points="229.4 243.34 155.86 343.21 95.71 207.38 229.4 243.34"/><polygon class="cls-1" points="229.4 243.34 155.86 343.21 202.43 140.32 229.4 243.34"/><polygon class="cls-1" points="229.4 243.34 155.86 343.21 265.16 293.29 229.4 243.34"/><polygon class="cls-1" points="229.4 243.34 267.51 307.63 333.67 321.93 229.4 243.34"/><polygon class="cls-1" points="229.4 243.34 267.51 307.63 95.71 207.38 229.4 243.34"/><polygon class="cls-1" points="229.4 243.34 267.51 307.63 202.43 140.32 229.4 243.34"/><polygon class="cls-1" points="229.4 243.34 267.51 307.63 265.16 293.29 229.4 243.34"/><polygon class="cls-1" points="229.4 243.34 333.67 321.93 95.71 207.38 229.4 243.34"/><polygon class="cls-1" points="229.4 243.34 333.67 321.93 202.43 140.32 229.4 243.34"/><polygon class="cls-1" points="229.4 243.34 333.67 321.93 265.16 293.29 229.4 243.34"/><polygon class="cls-1" points="229.4 243.34 95.71 207.38 202.43 140.32 229.4 243.34"/><polygon class="cls-1" points="229.4 243.34 95.71 207.38 265.16 293.29 229.4 243.34"/><polygon class="cls-1" points="229.4 243.34 202.43 140.32 265.16 293.29 229.4 243.34"/><line class="cls-1" x1="172.83" y1="552.26" x2="82.9" y2="526.83"/><line class="cls-1" x1="111.05" y1="556.8" x2="82.9" y2="526.83"/><line class="cls-1" x1="172.83" y1="552.26" x2="82.9" y2="526.83"/><line class="cls-1" x1="111.05" y1="556.8" x2="82.9" y2="526.83"/><line class="cls-1" x1="82.9" y1="526.83" x2="172.83" y2="552.26"/><polygon class="cls-1" points="82.9 526.83 172.83 552.26 111.05 556.8 82.9 526.83"/><line class="cls-1" x1="82.9" y1="526.83" x2="172.83" y2="552.26"/><line class="cls-1" x1="111.05" y1="556.8" x2="82.9" y2="526.83"/><line class="cls-1" x1="82.9" y1="526.83" x2="111.05" y2="556.8"/><line class="cls-1" x1="172.83" y1="552.26" x2="111.05" y2="556.8"/><line class="cls-1" x1="172.83" y1="552.26" x2="111.05" y2="556.8"/><polygon class="cls-1" points="383.36 331.43 267.51 307.63 333.67 321.93 383.36 331.43"/><polygon class="cls-1" points="383.36 331.43 267.51 307.63 265.16 293.29 383.36 331.43"/><polygon class="cls-1" points="383.36 331.43 333.67 321.93 265.16 293.29 383.36 331.43"/><polygon class="cls-1" points="88.47 287.98 36.66 329.75 1.25 261.5 88.47 287.98"/><polygon class="cls-1" points="88.47 287.98 36.66 329.75 155.86 343.21 88.47 287.98"/><polygon class="cls-1" points="88.47 287.98 36.66 329.75 95.71 207.38 88.47 287.98"/><polygon class="cls-1" points="88.47 287.98 1.25 261.5 155.86 343.21 88.47 287.98"/><polygon class="cls-1" points="88.47 287.98 1.25 261.5 95.71 207.38 88.47 287.98"/><polygon class="cls-1" points="88.47 287.98 155.86 343.21 95.71 207.38 88.47 287.98"/><polygon class="cls-1" points="245.51 219.84 288.31 120.25 267.51 307.63 245.51 219.84"/><polygon class="cls-1" points="245.51 219.84 288.31 120.25 333.67 321.93 245.51 219.84"/><polygon class="cls-1" points="245.51 219.84 288.31 120.25 202.43 140.32 245.51 219.84"/><polygon class="cls-1" points="245.51 219.84 288.31 120.25 265.16 293.29 245.51 219.84"/><polygon class="cls-1" points="245.51 219.84 267.51 307.63 333.67 321.93 245.51 219.84"/><polygon class="cls-1" points="245.51 219.84 267.51 307.63 202.43 140.32 245.51 219.84"/><polygon class="cls-1" points="245.51 219.84 267.51 307.63 265.16 293.29 245.51 219.84"/><polygon class="cls-1" points="245.51 219.84 333.67 321.93 202.43 140.32 245.51 219.84"/><polygon class="cls-1" points="245.51 219.84 333.67 321.93 265.16 293.29 245.51 219.84"/><polygon class="cls-1" points="245.51 219.84 202.43 140.32 265.16 293.29 245.51 219.84"/><polygon class="cls-1" points="433.12 620.13 507.9 517.75 490.03 590.01 433.12 620.13"/><polygon class="cls-1" points="433.12 620.13 507.9 517.75 450.94 684.78 433.12 620.13"/><polygon class="cls-1" points="433.12 620.13 507.9 517.75 319.06 627.13 433.12 620.13"/><polygon class="cls-1" points="433.12 620.13 490.03 590.01 450.94 684.78 433.12 620.13"/><polygon class="cls-1" points="433.12 620.13 490.03 590.01 319.06 627.13 433.12 620.13"/><polygon class="cls-1" points="433.12 620.13 450.94 684.78 319.06 627.13 433.12 620.13"/><line class="cls-1" x1="293.74" y1="858.43" x2="267.43" y2="792.24"/><line class="cls-1" x1="36.66" y1="329.75" x2="1.25" y2="261.5"/><polygon class="cls-1" points="36.66 329.75 1.25 261.5 155.86 343.21 36.66 329.75"/><polygon class="cls-1" points="36.66 329.75 1.25 261.5 95.71 207.38 36.66 329.75"/><line class="cls-1" x1="155.86" y1="343.21" x2="36.66" y2="329.75"/><line class="cls-1" x1="95.71" y1="207.38" x2="36.66" y2="329.75"/><polygon class="cls-1" points="36.66 329.75 155.86 343.21 95.71 207.38 36.66 329.75"/><line class="cls-1" x1="293.74" y1="858.43" x2="267.43" y2="792.24"/><line class="cls-1" x1="267.43" y1="792.24" x2="293.74" y2="858.43"/><polygon class="cls-1" points="172.83 552.26 281.77 508.82 111.05 556.8 172.83 552.26"/><polygon class="cls-1" points="172.83 552.26 281.77 508.82 297.45 510.07 172.83 552.26"/><polygon class="cls-1" points="172.83 552.26 281.77 508.82 213 439.46 172.83 552.26"/><polygon class="cls-1" points="172.83 552.26 111.05 556.8 297.45 510.07 172.83 552.26"/><polygon class="cls-1" points="172.83 552.26 111.05 556.8 213 439.46 172.83 552.26"/><polygon class="cls-1" points="172.83 552.26 297.45 510.07 213 439.46 172.83 552.26"/><polygon class="cls-1" points="257.92 401.49 281.77 508.82 155.86 343.21 257.92 401.49"/><polygon class="cls-1" points="257.92 401.49 281.77 508.82 267.51 307.63 257.92 401.49"/><polygon class="cls-1" points="257.92 401.49 281.77 508.82 333.67 321.93 257.92 401.49"/><polygon class="cls-1" points="257.92 401.49 281.77 508.82 297.45 510.07 257.92 401.49"/><polygon class="cls-1" points="257.92 401.49 281.77 508.82 265.16 293.29 257.92 401.49"/><polygon class="cls-1" points="257.92 401.49 281.77 508.82 213 439.46 257.92 401.49"/><polygon class="cls-1" points="257.92 401.49 155.86 343.21 267.51 307.63 257.92 401.49"/><polygon class="cls-1" points="257.92 401.49 155.86 343.21 333.67 321.93 257.92 401.49"/><polygon class="cls-1" points="257.92 401.49 155.86 343.21 297.45 510.07 257.92 401.49"/><polygon class="cls-1" points="257.92 401.49 155.86 343.21 265.16 293.29 257.92 401.49"/><polygon class="cls-1" points="257.92 401.49 155.86 343.21 213 439.46 257.92 401.49"/><polygon class="cls-1" points="257.92 401.49 267.51 307.63 333.67 321.93 257.92 401.49"/><polygon class="cls-1" points="257.92 401.49 267.51 307.63 297.45 510.07 257.92 401.49"/><polygon class="cls-1" points="257.92 401.49 267.51 307.63 265.16 293.29 257.92 401.49"/><polygon class="cls-1" points="257.92 401.49 267.51 307.63 213 439.46 257.92 401.49"/><polygon class="cls-1" points="257.92 401.49 333.67 321.93 297.45 510.07 257.92 401.49"/><polygon class="cls-1" points="257.92 401.49 333.67 321.93 265.16 293.29 257.92 401.49"/><polygon class="cls-1" points="257.92 401.49 333.67 321.93 213 439.46 257.92 401.49"/><polygon class="cls-1" points="257.92 401.49 297.45 510.07 265.16 293.29 257.92 401.49"/><polygon class="cls-1" points="257.92 401.49 297.45 510.07 213 439.46 257.92 401.49"/><polygon class="cls-1" points="257.92 401.49 265.16 293.29 213 439.46 257.92 401.49"/><polygon class="cls-1" points="281.77 508.82 297.45 510.07 319.06 627.13 281.77 508.82"/><polygon class="cls-1" points="281.77 508.82 297.45 510.07 213 439.46 281.77 508.82"/><polygon class="cls-1" points="281.77 508.82 319.06 627.13 213 439.46 281.77 508.82"/><polygon class="cls-1" points="541.22 835.72 497.8 875.23 451.36 820.78 541.22 835.72"/><line class="cls-1" x1="541.22" y1="835.72" x2="497.8" y2="875.23"/><line class="cls-1" x1="541.22" y1="835.72" x2="451.36" y2="820.78"/><polygon class="cls-1" points="155.86 343.21 267.51 307.63 265.16 293.29 155.86 343.21"/><polygon class="cls-1" points="155.86 343.21 267.51 307.63 213 439.46 155.86 343.21"/><polygon class="cls-1" points="155.86 343.21 265.16 293.29 213 439.46 155.86 343.21"/><polygon class="cls-1" points="267.51 307.63 333.67 321.93 265.16 293.29 267.51 307.63"/><polygon class="cls-1" points="497.8 875.23 432.44 987.27 451.36 820.78 497.8 875.23"/><polygon class="cls-1" points="497.8 875.23 432.44 987.27 480.76 960.8 497.8 875.23"/><line class="cls-1" x1="497.8" y1="875.23" x2="432.44" y2="987.27"/><polygon class="cls-1" points="497.8 875.23 451.36 820.78 480.76 960.8 497.8 875.23"/><line class="cls-1" x1="497.8" y1="875.23" x2="451.36" y2="820.78"/><line class="cls-1" x1="497.8" y1="875.23" x2="480.76" y2="960.8"/><line class="cls-1" x1="480.76" y1="960.8" x2="432.44" y2="987.27"/><polygon class="cls-1" points="297.45 510.07 319.06 627.13 213 439.46 297.45 510.07"/></g></g></svg>