<svg width="24" height="24" viewBox="0 0 24 24" fill="none" xmlns="http://www.w3.org/2000/svg">
<path d="M18.8992 11.1001C19.1167 11.1001 19.3268 11.1788 19.4907 11.3218C19.6546 11.4647 19.7612 11.6622 19.7908 11.8777L19.7992 12.0001V18.3001C19.7993 19.1404 19.4787 19.9491 18.9029 20.5612C18.3272 21.1733 17.5396 21.5427 16.7008 21.5941L16.4992 21.6001H7.49922C6.65887 21.6001 5.85017 21.2796 5.23806 20.7038C4.62595 20.128 4.25656 19.3404 4.20522 18.5017L4.19922 18.3001V12.0001C4.19929 11.772 4.28591 11.5525 4.44159 11.3859C4.59726 11.2193 4.81038 11.118 5.03787 11.1024C5.26537 11.0869 5.49029 11.1583 5.66718 11.3022C5.84407 11.4461 5.95974 11.6518 5.99082 11.8777L5.99922 12.0001V18.3001C5.99922 19.0765 6.58962 19.7161 7.34562 19.7929L7.49922 19.8001H16.4992C16.8704 19.7999 17.2283 19.6622 17.5038 19.4135C17.7793 19.1649 17.9528 18.8229 17.9908 18.4537L17.9992 18.3001V12.0001C17.9992 11.7614 18.094 11.5325 18.2628 11.3637C18.4316 11.1949 18.6605 11.1001 18.8992 11.1001ZM6.27162 7.75447L11.3632 2.66407C11.5156 2.51165 11.7176 2.41897 11.9326 2.4029C12.1475 2.38682 12.3611 2.44841 12.5344 2.57647L12.6352 2.66407L17.7268 7.75447C17.8899 7.9146 17.986 8.13079 17.9955 8.35915C18.005 8.58752 17.9273 8.81095 17.7781 8.98411C17.6289 9.15727 17.4195 9.26718 17.1922 9.29154C16.9649 9.3159 16.7369 9.25288 16.5544 9.11527L16.4536 9.02767L12.8992 5.47207V14.7001C12.8992 14.9176 12.8204 15.1277 12.6775 15.2916C12.5345 15.4555 12.3371 15.5621 12.1216 15.5917L11.9992 15.6001C11.7817 15.6001 11.5716 15.5213 11.4077 15.3783C11.2438 15.2354 11.1372 15.0379 11.1076 14.8225L11.0992 14.7001V5.47207L7.54482 9.02767C7.39236 9.18041 7.1901 9.27328 6.9749 9.28936C6.7597 9.30544 6.54588 9.24365 6.37242 9.11527L6.27162 9.02767C6.11888 8.87521 6.02601 8.67295 6.00993 8.45775C5.99385 8.24255 6.05563 8.02873 6.18402 7.85527L6.27162 7.75447Z" fill="#0096F2"/>
</svg>
